solid ascii
 facet normal 0.469646 -0.175151 -0.865306
  outer loop
   vertex 0.0154873 0.041748 0.0375954
   vertex 0.0157359 0.0411679 0.0378477
   vertex 0.0150748 0.0411821 0.037486
  endloop
 endfacet
 facet normal 0.469651 -0.175149 -0.865304
  outer loop
   vertex 0.00973642 0.0336205 0.0361192
   vertex 0.00918132 0.033815 0.0357785
   vertex 0.00961604 0.034267 0.035923
  endloop
 endfacet
 facet normal 0.469646 -0.175151 -0.865306
  outer loop
   vertex 0.00680574 0.0364453 0.0339567
   vertex 0.00745005 0.036498 0.0342958
   vertex 0.00705432 0.0358652 0.0342091
  endloop
 endfacet
 facet normal 0.469649 -0.175152 -0.865304
  outer loop
   vertex 0.0133699 0.0432051 0.0361512
   vertex 0.013069 0.0426656 0.0360971
   vertex 0.0127976 0.043278 0.0358258
  endloop
 endfacet
 facet normal 0.46965 -0.175149 -0.865304
  outer loop
   vertex 0.0147124 0.0354893 0.0384416
   vertex 0.0144827 0.0362078 0.0381715
   vertex 0.0151007 0.0360382 0.0385413
  endloop
 endfacet
 facet normal 0.469643 -0.175152 -0.865307
  outer loop
   vertex 0.0138006 0.0370986 0.037621
   vertex 0.0132706 0.037324 0.0372877
   vertex 0.0137566 0.03774 0.0374673
  endloop
 endfacet
 facet normal 0.469648 -0.17515 -0.865305
  outer loop
   vertex 0.0122259 0.0441055 0.035348
   vertex 0.0118752 0.0435821 0.0352637
   vertex 0.0116315 0.0441346 0.0350195
  endloop
 endfacet
 facet normal 0.469647 -0.17515 -0.865306
  outer loop
   vertex 0.00973642 0.0336205 0.0361192
   vertex 0.0101695 0.0341476 0.0362475
   vertex 0.0103157 0.0335077 0.0364564
  endloop
 endfacet
 facet normal 0.469648 -0.175149 -0.865306
  outer loop
   vertex 0.0103157 0.0335077 0.0364564
   vertex 0.0107766 0.0341096 0.0365847
   vertex 0.0109101 0.0334786 0.0367849
  endloop
 endfacet
 facet normal 0.469648 -0.175152 -0.865305
  outer loop
   vertex 0.0137121 0.0383426 0.0373212
   vertex 0.0136132 0.0389223 0.0371501
   vertex 0.0141529 0.0388022 0.0374674
  endloop
 endfacet
 facet normal 0.46965 -0.175152 -0.865304
  outer loop
   vertex 0.0122543 0.0372149 0.0367582
   vertex 0.01178 0.0375022 0.0364426
   vertex 0.0123051 0.0378642 0.0366543
  endloop
 endfacet
 facet normal 0.46965 -0.175149 -0.865304
  outer loop
   vertex 0.00782924 0.0421239 0.0333628
   vertex 0.00802726 0.0415807 0.0335803
   vertex 0.00744087 0.041575 0.0332631
  endloop
 endfacet
 facet normal 0.469648 -0.175151 -0.865305
  outer loop
   vertex 0.0137121 0.0383426 0.0373212
   vertex 0.0132677 0.0379425 0.0371609
   vertex 0.0132779 0.0384703 0.0370596
  endloop
 endfacet
 facet normal 0.46965 -0.175148 -0.865304
  outer loop
   vertex 0.0133603 0.0437982 0.0360259
   vertex 0.0127976 0.043278 0.0358258
   vertex 0.0128052 0.0439927 0.0356853
  endloop
 endfacet
 facet normal 0.469649 -0.175148 -0.865305
  outer loop
   vertex 0.0138824 0.0435249 0.0363646
   vertex 0.0133699 0.0432051 0.0361512
   vertex 0.0133603 0.0437982 0.0360259
  endloop
 endfacet
 facet normal 0.46965 -0.175148 -0.865305
  outer loop
   vertex 0.0133603 0.0437982 0.0360259
   vertex 0.0133699 0.0432051 0.0361512
   vertex 0.0127976 0.043278 0.0358258
  endloop
 endfacet
 facet normal 0.469647 -0.17515 -0.865306
  outer loop
   vertex 0.0101695 0.0341476 0.0362475
   vertex 0.00973642 0.0336205 0.0361192
   vertex 0.00961604 0.034267 0.035923
  endloop
 endfacet
 facet normal 0.469648 -0.17515 -0.865305
  outer loop
   vertex 0.0107766 0.0341096 0.0365847
   vertex 0.0103157 0.0335077 0.0364564
   vertex 0.0101695 0.0341476 0.0362475
  endloop
 endfacet
 facet normal 0.469647 -0.175151 -0.865305
  outer loop
   vertex 0.0137121 0.0383426 0.0373212
   vertex 0.0141529 0.0388022 0.0374674
   vertex 0.0142144 0.0381868 0.0376253
  endloop
 endfacet
 facet normal 0.469649 -0.175145 -0.865306
  outer loop
   vertex 0.0147612 0.0417593 0.037199
   vertex 0.0151722 0.0422817 0.0373163
   vertex 0.0154873 0.041748 0.0375954
  endloop
 endfacet
 facet normal 0.469648 -0.175154 -0.865304
  outer loop
   vertex 0.0150748 0.0411821 0.037486
   vertex 0.0147612 0.0417593 0.037199
   vertex 0.0154873 0.041748 0.0375954
  endloop
 endfacet
 facet normal 0.469652 -0.175153 -0.865303
  outer loop
   vertex 0.00942081 0.0348426 0.0357005
   vertex 0.0100733 0.03481 0.0360612
   vertex 0.00961604 0.034267 0.035923
  endloop
 endfacet
 facet normal 0.469645 -0.175147 -0.865308
  outer loop
   vertex 0.0132677 0.0379425 0.0371609
   vertex 0.0137121 0.0383426 0.0373212
   vertex 0.0137566 0.03774 0.0374673
  endloop
 endfacet
 facet normal 0.469643 -0.175152 -0.865308
  outer loop
   vertex 0.0132706 0.037324 0.0372877
   vertex 0.0132677 0.0379425 0.0371609
   vertex 0.0137566 0.03774 0.0374673
  endloop
 endfacet
 facet normal 0.469647 -0.175148 -0.865306
  outer loop
   vertex 0.0121504 0.0430912 0.0355124
   vertex 0.0123717 0.0436096 0.0355275
   vertex 0.0127976 0.043278 0.0358258
  endloop
 endfacet
 facet normal 0.469649 -0.175146 -0.865305
  outer loop
   vertex 0.0137121 0.0383426 0.0373212
   vertex 0.0142144 0.0381868 0.0376253
   vertex 0.0137566 0.03774 0.0374673
  endloop
 endfacet
 facet normal 0.46965 -0.175152 -0.865304
  outer loop
   vertex 0.00724779 0.039813 0.033515
   vertex 0.00665781 0.0397044 0.0332168
   vertex 0.0068505 0.0403556 0.0331895
  endloop
 endfacet
 facet normal 0.469647 -0.175149 -0.865306
  outer loop
   vertex 0.011563 0.0430118 0.0352096
   vertex 0.0118752 0.0435821 0.0352637
   vertex 0.0121504 0.0430912 0.0355124
  endloop
 endfacet
 facet normal 0.469646 -0.175149 -0.865306
  outer loop
   vertex 0.0113157 0.0377998 0.0361304
   vertex 0.01178 0.0375022 0.0364426
   vertex 0.011255 0.0371415 0.0362307
  endloop
 endfacet
 facet normal 0.469649 -0.175151 -0.865305
  outer loop
   vertex 0.012371 0.0385354 0.0365543
   vertex 0.0118768 0.0388185 0.0362287
   vertex 0.0124067 0.0392238 0.0364343
  endloop
 endfacet
 facet normal 0.469647 -0.175148 -0.865306
  outer loop
   vertex 0.0121504 0.0430912 0.0355124
   vertex 0.0118327 0.0424804 0.0354636
   vertex 0.011563 0.0430118 0.0352096
  endloop
 endfacet
 facet normal 0.469647 -0.175151 -0.865306
  outer loop
   vertex 0.0081782 0.0344359 0.0351084
   vertex 0.00876532 0.034789 0.0353556
   vertex 0.00865916 0.0340883 0.0354398
  endloop
 endfacet
 facet normal 0.469649 -0.175151 -0.865304
  outer loop
   vertex 0.00865916 0.0340883 0.0354398
   vertex 0.00876532 0.034789 0.0353556
   vertex 0.00912772 0.0343605 0.035639
  endloop
 endfacet
 facet normal 0.469649 -0.175154 -0.865304
  outer loop
   vertex 0.00961604 0.034267 0.035923
   vertex 0.00912772 0.0343605 0.035639
   vertex 0.00942081 0.0348426 0.0357005
  endloop
 endfacet
 facet normal 0.469647 -0.175153 -0.865305
  outer loop
   vertex 0.00942081 0.0348426 0.0357005
   vertex 0.00912772 0.0343605 0.035639
   vertex 0.00876532 0.034789 0.0353556
  endloop
 endfacet
 facet normal 0.469647 -0.17515 -0.865306
  outer loop
   vertex 0.0121218 0.0419529 0.0357273
   vertex 0.0124503 0.0425864 0.0357773
   vertex 0.0127294 0.0420484 0.0360377
  endloop
 endfacet
 facet normal 0.46965 -0.175148 -0.865305
  outer loop
   vertex 0.0127294 0.0420484 0.0360377
   vertex 0.0124503 0.0425864 0.0357773
   vertex 0.013069 0.0426656 0.0360971
  endloop
 endfacet
 facet normal 0.469646 -0.175149 -0.865307
  outer loop
   vertex 0.0127976 0.043278 0.0358258
   vertex 0.0123717 0.0436096 0.0355275
   vertex 0.0128052 0.0439927 0.0356853
  endloop
 endfacet
 facet normal 0.469648 -0.175151 -0.865305
  outer loop
   vertex 0.0128052 0.0439927 0.0356853
   vertex 0.0123717 0.0436096 0.0355275
   vertex 0.0122259 0.0441055 0.035348
  endloop
 endfacet
 facet normal 0.469648 -0.175149 -0.865306
  outer loop
   vertex 0.00832601 0.0359573 0.0348807
   vertex 0.00892052 0.0359548 0.0352038
   vertex 0.00856771 0.0354153 0.0351216
  endloop
 endfacet
 facet normal 0.469646 -0.175148 -0.865307
  outer loop
   vertex 0.00856771 0.0354153 0.0351216
   vertex 0.00892052 0.0359548 0.0352038
   vertex 0.00916246 0.0353993 0.0354476
  endloop
 endfacet
 facet normal 0.469647 -0.175152 -0.865306
  outer loop
   vertex 0.0141529 0.0388022 0.0374674
   vertex 0.0146599 0.0386371 0.037776
   vertex 0.0142144 0.0381868 0.0376253
  endloop
 endfacet
 facet normal 0.469649 -0.175146 -0.865306
  outer loop
   vertex 0.0071129 0.0409825 0.0332051
   vertex 0.00748257 0.0404267 0.0335182
   vertex 0.0068505 0.0403556 0.0331895
  endloop
 endfacet
 facet normal 0.469649 -0.175145 -0.865306
  outer loop
   vertex 0.011369 0.0390485 0.0359065
   vertex 0.011247 0.0397897 0.0356903
   vertex 0.0118759 0.0394993 0.0360904
  endloop
 endfacet
 facet normal 0.469649 -0.175154 -0.865304
  outer loop
   vertex 0.00724779 0.039813 0.033515
   vertex 0.0068505 0.0403556 0.0331895
   vertex 0.00748257 0.0404267 0.0335182
  endloop
 endfacet
 facet normal 0.469644 -0.175152 -0.865307
  outer loop
   vertex 0.00785249 0.0398957 0.0338265
   vertex 0.00724779 0.039813 0.033515
   vertex 0.00748257 0.0404267 0.0335182
  endloop
 endfacet
 facet normal 0.469648 -0.175149 -0.865305
  outer loop
   vertex 0.00918132 0.033815 0.0357785
   vertex 0.00865916 0.0340883 0.0354398
   vertex 0.00912772 0.0343605 0.035639
  endloop
 endfacet
 facet normal 0.46965 -0.175148 -0.865304
  outer loop
   vertex 0.00961604 0.034267 0.035923
   vertex 0.00918132 0.033815 0.0357785
   vertex 0.00912772 0.0343605 0.035639
  endloop
 endfacet
 facet normal 0.46965 -0.175151 -0.865304
  outer loop
   vertex 0.0127976 0.043278 0.0358258
   vertex 0.013069 0.0426656 0.0360971
   vertex 0.0124503 0.0425864 0.0357773
  endloop
 endfacet
 facet normal 0.469647 -0.17515 -0.865306
  outer loop
   vertex 0.0121504 0.0430912 0.0355124
   vertex 0.0127976 0.043278 0.0358258
   vertex 0.0124503 0.0425864 0.0357773
  endloop
 endfacet
 facet normal 0.469648 -0.175148 -0.865306
  outer loop
   vertex 0.0101695 0.0341476 0.0362475
   vertex 0.00961604 0.034267 0.035923
   vertex 0.0100733 0.03481 0.0360612
  endloop
 endfacet
 facet normal 0.469645 -0.175146 -0.865308
  outer loop
   vertex 0.011369 0.0390485 0.0359065
   vertex 0.0107611 0.0390639 0.0355735
   vertex 0.011247 0.0397897 0.0356903
  endloop
 endfacet
 facet normal 0.469649 -0.175151 -0.865305
  outer loop
   vertex 0.0124503 0.0425864 0.0357773
   vertex 0.0121218 0.0419529 0.0357273
   vertex 0.0118327 0.0424804 0.0354636
  endloop
 endfacet
 facet normal 0.469649 -0.175149 -0.865305
  outer loop
   vertex 0.0121504 0.0430912 0.0355124
   vertex 0.0124503 0.0425864 0.0357773
   vertex 0.0118327 0.0424804 0.0354636
  endloop
 endfacet
 facet normal 0.469648 -0.17515 -0.865306
  outer loop
   vertex 0.00916246 0.0353993 0.0354476
   vertex 0.00942081 0.0348426 0.0357005
   vertex 0.00876532 0.034789 0.0353556
  endloop
 endfacet
 facet normal 0.469645 -0.175148 -0.865307
  outer loop
   vertex 0.00856771 0.0354153 0.0351216
   vertex 0.00916246 0.0353993 0.0354476
   vertex 0.00876532 0.034789 0.0353556
  endloop
 endfacet
 facet normal 0.469651 -0.175148 -0.865304
  outer loop
   vertex 0.00799412 0.0354122 0.0348109
   vertex 0.0073694 0.0353315 0.0344881
   vertex 0.00771155 0.0359319 0.0345523
  endloop
 endfacet
 facet normal 0.469646 -0.175151 -0.865306
  outer loop
   vertex 0.0147256 0.0380363 0.0379332
   vertex 0.0142144 0.0381868 0.0376253
   vertex 0.0146599 0.0386371 0.037776
  endloop
 endfacet
 facet normal 0.469648 -0.17515 -0.865305
  outer loop
   vertex 0.0118752 0.0435821 0.0352637
   vertex 0.0122259 0.0441055 0.035348
   vertex 0.0123717 0.0436096 0.0355275
  endloop
 endfacet
 facet normal 0.469649 -0.175148 -0.865305
  outer loop
   vertex 0.0121504 0.0430912 0.0355124
   vertex 0.0118752 0.0435821 0.0352637
   vertex 0.0123717 0.0436096 0.0355275
  endloop
 endfacet
 facet normal 0.46965 -0.175152 -0.865304
  outer loop
   vertex 0.0100093 0.0396147 0.035054
   vertex 0.0101526 0.0391494 0.0352259
   vertex 0.00959537 0.0392486 0.0349034
  endloop
 endfacet
 facet normal 0.469649 -0.175153 -0.865304
  outer loop
   vertex 0.00947842 0.0375579 0.0351821
   vertex 0.00930767 0.0381432 0.034971
   vertex 0.0098822 0.0380818 0.0352953
  endloop
 endfacet
 facet normal 0.469646 -0.17515 -0.865306
  outer loop
   vertex 0.016049 0.0392434 0.0384072
   vertex 0.0160037 0.0385743 0.0385181
   vertex 0.0155689 0.0388683 0.0382225
  endloop
 endfacet
 facet normal 0.469648 -0.175151 -0.865305
  outer loop
   vertex 0.0142778 0.0375614 0.0377863
   vertex 0.0138006 0.0370986 0.037621
   vertex 0.0137566 0.03774 0.0374673
  endloop
 endfacet
 facet normal 0.469649 -0.175149 -0.865305
  outer loop
   vertex 0.011255 0.0371415 0.0362307
   vertex 0.0107028 0.0374479 0.035869
   vertex 0.0113157 0.0377998 0.0361304
  endloop
 endfacet
 facet normal 0.469648 -0.175151 -0.865305
  outer loop
   vertex 0.00744087 0.041575 0.0332631
   vertex 0.00774302 0.041024 0.0335387
   vertex 0.0071129 0.0409825 0.0332051
  endloop
 endfacet
 facet normal 0.469648 -0.175147 -0.865306
  outer loop
   vertex 0.0071129 0.0409825 0.0332051
   vertex 0.00774302 0.041024 0.0335387
   vertex 0.00748257 0.0404267 0.0335182
  endloop
 endfacet
 facet normal 0.469648 -0.17515 -0.865305
  outer loop
   vertex 0.0107611 0.0390639 0.0355735
   vertex 0.0102773 0.0385863 0.0354076
   vertex 0.0101526 0.0391494 0.0352259
  endloop
 endfacet
 facet normal 0.469651 -0.175147 -0.865304
  outer loop
   vertex 0.0101526 0.0391494 0.0352259
   vertex 0.00972689 0.0386611 0.0350937
   vertex 0.00959537 0.0392486 0.0349034
  endloop
 endfacet
 facet normal 0.469645 -0.175149 -0.865307
  outer loop
   vertex 0.00959537 0.0392486 0.0349034
   vertex 0.00972689 0.0386611 0.0350937
   vertex 0.00913479 0.0387473 0.0347549
  endloop
 endfacet
 facet normal 0.469648 -0.175152 -0.865305
  outer loop
   vertex 0.0101526 0.0391494 0.0352259
   vertex 0.010524 0.0396826 0.0353196
   vertex 0.0107611 0.0390639 0.0355735
  endloop
 endfacet
 facet normal 0.469651 -0.17515 -0.865304
  outer loop
   vertex 0.0107611 0.0390639 0.0355735
   vertex 0.010524 0.0396826 0.0353196
   vertex 0.011247 0.0397897 0.0356903
  endloop
 endfacet
 facet normal 0.469647 -0.175152 -0.865305
  outer loop
   vertex 0.00832601 0.0359573 0.0348807
   vertex 0.00771155 0.0359319 0.0345523
   vertex 0.00808266 0.0365238 0.0346339
  endloop
 endfacet
 facet normal 0.469648 -0.175152 -0.865305
  outer loop
   vertex 0.00808266 0.0365238 0.0346339
   vertex 0.00771155 0.0359319 0.0345523
   vertex 0.00745005 0.036498 0.0342958
  endloop
 endfacet
 facet normal 0.469647 -0.175151 -0.865305
  outer loop
   vertex 0.01178 0.0375022 0.0364426
   vertex 0.0117299 0.0368726 0.0365429
   vertex 0.011255 0.0371415 0.0362307
  endloop
 endfacet
 facet normal 0.469648 -0.175151 -0.865305
  outer loop
   vertex 0.00832601 0.0359573 0.0348807
   vertex 0.00799412 0.0354122 0.0348109
   vertex 0.00771155 0.0359319 0.0345523
  endloop
 endfacet
 facet normal 0.469652 -0.175148 -0.865303
  outer loop
   vertex 0.0122093 0.0365804 0.0368622
   vertex 0.0127342 0.0362933 0.0372052
   vertex 0.0121602 0.0359328 0.0369666
  endloop
 endfacet
 facet normal 0.469651 -0.175152 -0.865303
  outer loop
   vertex 0.0148095 0.0374137 0.0381048
   vertex 0.0142778 0.0375614 0.0377863
   vertex 0.0147256 0.0380363 0.0379332
  endloop
 endfacet
 facet normal 0.46965 -0.17515 -0.865304
  outer loop
   vertex 0.00774302 0.041024 0.0335387
   vertex 0.00744087 0.041575 0.0332631
   vertex 0.00802726 0.0415807 0.0335803
  endloop
 endfacet
 facet normal 0.469648 -0.175152 -0.865305
  outer loop
   vertex 0.0136132 0.0389223 0.0371501
   vertex 0.0137121 0.0383426 0.0373212
   vertex 0.0132779 0.0384703 0.0370596
  endloop
 endfacet
 facet normal 0.469651 -0.175151 -0.865303
  outer loop
   vertex 0.01178 0.0375022 0.0364426
   vertex 0.0122543 0.0372149 0.0367582
   vertex 0.0117299 0.0368726 0.0365429
  endloop
 endfacet
 facet normal 0.46965 -0.175148 -0.865305
  outer loop
   vertex 0.00942081 0.0348426 0.0357005
   vertex 0.00916246 0.0353993 0.0354476
   vertex 0.00979759 0.03543 0.0357861
  endloop
 endfacet
 facet normal 0.469652 -0.17515 -0.865303
  outer loop
   vertex 0.0100733 0.03481 0.0360612
   vertex 0.00942081 0.0348426 0.0357005
   vertex 0.00979759 0.03543 0.0357861
  endloop
 endfacet
 facet normal 0.469651 -0.175148 -0.865304
  outer loop
   vertex 0.00972689 0.0386611 0.0350937
   vertex 0.0101526 0.0391494 0.0352259
   vertex 0.0102773 0.0385863 0.0354076
  endloop
 endfacet
 facet normal 0.469646 -0.175148 -0.865307
  outer loop
   vertex 0.00930767 0.0381432 0.034971
   vertex 0.00913479 0.0387473 0.0347549
   vertex 0.00972689 0.0386611 0.0350937
  endloop
 endfacet
 facet normal 0.469649 -0.175151 -0.865304
  outer loop
   vertex 0.0098822 0.0380818 0.0352953
   vertex 0.00930767 0.0381432 0.034971
   vertex 0.00972689 0.0386611 0.0350937
  endloop
 endfacet
 facet normal 0.469646 -0.175152 -0.865306
  outer loop
   vertex 0.00963714 0.0369834 0.0353846
   vertex 0.00926647 0.0364863 0.035284
   vertex 0.00907626 0.0370382 0.0350691
  endloop
 endfacet
 facet normal 0.469647 -0.175146 -0.865307
  outer loop
   vertex 0.00947842 0.0375579 0.0351821
   vertex 0.00963714 0.0369834 0.0353846
   vertex 0.00907626 0.0370382 0.0350691
  endloop
 endfacet
 facet normal 0.469648 -0.175148 -0.865306
  outer loop
   vertex 0.011563 0.0430118 0.0352096
   vertex 0.0118327 0.0424804 0.0354636
   vertex 0.011228 0.042418 0.035148
  endloop
 endfacet
 facet normal 0.469646 -0.175147 -0.865307
  outer loop
   vertex 0.0109771 0.0429587 0.0349024
   vertex 0.011563 0.0430118 0.0352096
   vertex 0.011228 0.042418 0.035148
  endloop
 endfacet
 facet normal 0.469648 -0.175153 -0.865304
  outer loop
   vertex 0.00947842 0.0375579 0.0351821
   vertex 0.00889832 0.0376146 0.0348558
   vertex 0.00930767 0.0381432 0.034971
  endloop
 endfacet
 facet normal 0.469647 -0.175148 -0.865306
  outer loop
   vertex 0.0132503 0.034187 0.0379117
   vertex 0.0132497 0.0347894 0.0377894
   vertex 0.0137798 0.0345563 0.0381243
  endloop
 endfacet
 facet normal 0.469647 -0.175147 -0.865306
  outer loop
   vertex 0.0142144 0.0381868 0.0376253
   vertex 0.0147256 0.0380363 0.0379332
   vertex 0.0142778 0.0375614 0.0377863
  endloop
 endfacet
 facet normal 0.46965 -0.175147 -0.865305
  outer loop
   vertex 0.0137566 0.03774 0.0374673
   vertex 0.0142144 0.0381868 0.0376253
   vertex 0.0142778 0.0375614 0.0377863
  endloop
 endfacet
 facet normal 0.469648 -0.175146 -0.865306
  outer loop
   vertex 0.00771155 0.0359319 0.0345523
   vertex 0.0073694 0.0353315 0.0344881
   vertex 0.00705432 0.0358652 0.0342091
  endloop
 endfacet
 facet normal 0.469648 -0.175152 -0.865305
  outer loop
   vertex 0.00745005 0.036498 0.0342958
   vertex 0.00771155 0.0359319 0.0345523
   vertex 0.00705432 0.0358652 0.0342091
  endloop
 endfacet
 facet normal 0.469646 -0.175149 -0.865306
  outer loop
   vertex 0.010524 0.0396826 0.0353196
   vertex 0.0101749 0.0401221 0.0350411
   vertex 0.0107881 0.040328 0.0353323
  endloop
 endfacet
 facet normal 0.469651 -0.175151 -0.865303
  outer loop
   vertex 0.011247 0.0397897 0.0356903
   vertex 0.010524 0.0396826 0.0353196
   vertex 0.0107881 0.040328 0.0353323
  endloop
 endfacet
 facet normal 0.469649 -0.175148 -0.865305
  outer loop
   vertex 0.00889832 0.0376146 0.0348558
   vertex 0.00947842 0.0375579 0.0351821
   vertex 0.00907626 0.0370382 0.0350691
  endloop
 endfacet
 facet normal 0.469647 -0.175151 -0.865306
  outer loop
   vertex 0.0115101 0.0335334 0.0370995
   vertex 0.0109101 0.0334786 0.0367849
   vertex 0.0112519 0.0339201 0.0368811
  endloop
 endfacet
 facet normal 0.469649 -0.175149 -0.865305
  outer loop
   vertex 0.0123051 0.0378642 0.0366543
   vertex 0.01178 0.0375022 0.0364426
   vertex 0.01184 0.0381586 0.0363423
  endloop
 endfacet
 facet normal 0.469652 -0.175149 -0.865304
  outer loop
   vertex 0.00869209 0.0365069 0.0349681
   vertex 0.00907626 0.0370382 0.0350691
   vertex 0.00926647 0.0364863 0.035284
  endloop
 endfacet
 facet normal 0.46965 -0.175151 -0.865304
  outer loop
   vertex 0.012371 0.0385354 0.0365543
   vertex 0.0124067 0.0392238 0.0364343
   vertex 0.0129814 0.0389325 0.0368052
  endloop
 endfacet
 facet normal 0.469646 -0.175151 -0.865306
  outer loop
   vertex 0.00745005 0.036498 0.0342958
   vertex 0.00680574 0.0364453 0.0339567
   vertex 0.00721405 0.0370544 0.0340551
  endloop
 endfacet
 facet normal 0.469646 -0.175152 -0.865306
  outer loop
   vertex 0.0123051 0.0378642 0.0366543
   vertex 0.0127771 0.0375802 0.036968
   vertex 0.0122543 0.0372149 0.0367582
  endloop
 endfacet
 facet normal 0.469649 -0.175147 -0.865306
  outer loop
   vertex 0.0123051 0.0378642 0.0366543
   vertex 0.012371 0.0385354 0.0365543
   vertex 0.0128279 0.0382192 0.0368662
  endloop
 endfacet
 facet normal 0.469649 -0.175145 -0.865306
  outer loop
   vertex 0.00892052 0.0359548 0.0352038
   vertex 0.0095159 0.0359759 0.0355227
   vertex 0.00916246 0.0353993 0.0354476
  endloop
 endfacet
 facet normal 0.46965 -0.175146 -0.865305
  outer loop
   vertex 0.00916246 0.0353993 0.0354476
   vertex 0.0095159 0.0359759 0.0355227
   vertex 0.00979759 0.03543 0.0357861
  endloop
 endfacet
 facet normal 0.469646 -0.175152 -0.865306
  outer loop
   vertex 0.011247 0.0397897 0.0356903
   vertex 0.011926 0.0401935 0.0359771
   vertex 0.0118759 0.0394993 0.0360904
  endloop
 endfacet
 facet normal 0.469651 -0.175152 -0.865303
  outer loop
   vertex 0.0118759 0.0394993 0.0360904
   vertex 0.011926 0.0401935 0.0359771
   vertex 0.0124158 0.0398959 0.0363032
  endloop
 endfacet
 facet normal 0.469651 -0.175152 -0.865303
  outer loop
   vertex 0.0147256 0.0380363 0.0379332
   vertex 0.0152437 0.0379207 0.0382379
   vertex 0.0148095 0.0374137 0.0381048
  endloop
 endfacet
 facet normal 0.469648 -0.175148 -0.865306
  outer loop
   vertex 0.00985207 0.0437228 0.0341371
   vertex 0.00978124 0.0429903 0.0342469
   vertex 0.00929134 0.0434262 0.0338928
  endloop
 endfacet
 facet normal 0.469652 -0.17515 -0.865303
  outer loop
   vertex 0.011369 0.0390485 0.0359065
   vertex 0.0118768 0.0388185 0.0362287
   vertex 0.0113955 0.0384366 0.0360448
  endloop
 endfacet
 facet normal 0.469647 -0.175151 -0.865305
  outer loop
   vertex 0.0132677 0.0379425 0.0371609
   vertex 0.0128279 0.0382192 0.0368662
   vertex 0.0132779 0.0384703 0.0370596
  endloop
 endfacet
 facet normal 0.469649 -0.175146 -0.865305
  outer loop
   vertex 0.0122543 0.0372149 0.0367582
   vertex 0.0122093 0.0365804 0.0368622
   vertex 0.0117299 0.0368726 0.0365429
  endloop
 endfacet
 facet normal 0.469646 -0.175149 -0.865306
  outer loop
   vertex 0.0113157 0.0377998 0.0361304
   vertex 0.01184 0.0381586 0.0363423
   vertex 0.01178 0.0375022 0.0364426
  endloop
 endfacet
 facet normal 0.469647 -0.175152 -0.865306
  outer loop
   vertex 0.00808266 0.0365238 0.0346339
   vertex 0.00869209 0.0365069 0.0349681
   vertex 0.00832601 0.0359573 0.0348807
  endloop
 endfacet
 facet normal 0.469649 -0.175147 -0.865305
  outer loop
   vertex 0.0127771 0.0375802 0.036968
   vertex 0.0123051 0.0378642 0.0366543
   vertex 0.0128279 0.0382192 0.0368662
  endloop
 endfacet
 facet normal 0.46965 -0.175147 -0.865305
  outer loop
   vertex 0.0132677 0.0379425 0.0371609
   vertex 0.0127771 0.0375802 0.036968
   vertex 0.0128279 0.0382192 0.0368662
  endloop
 endfacet
 facet normal 0.469652 -0.175151 -0.865303
  outer loop
   vertex 0.0127771 0.0375802 0.036968
   vertex 0.0132677 0.0379425 0.0371609
   vertex 0.0132706 0.037324 0.0372877
  endloop
 endfacet
 facet normal 0.469642 -0.175151 -0.865308
  outer loop
   vertex 0.0110316 0.0386415 0.0358058
   vertex 0.011369 0.0390485 0.0359065
   vertex 0.0113955 0.0384366 0.0360448
  endloop
 endfacet
 facet normal 0.469649 -0.175149 -0.865305
  outer loop
   vertex 0.00892052 0.0359548 0.0352038
   vertex 0.00926647 0.0364863 0.035284
   vertex 0.0095159 0.0359759 0.0355227
  endloop
 endfacet
 facet normal 0.469647 -0.175147 -0.865307
  outer loop
   vertex 0.01146 0.040672 0.0356273
   vertex 0.0121246 0.0408399 0.0359541
   vertex 0.011926 0.0401935 0.0359771
  endloop
 endfacet
 facet normal 0.46965 -0.17515 -0.865304
  outer loop
   vertex 0.0143634 0.0431773 0.0366961
   vertex 0.0143026 0.0425229 0.0367955
   vertex 0.0137438 0.0427601 0.0364442
  endloop
 endfacet
 facet normal 0.469652 -0.175149 -0.865304
  outer loop
   vertex 0.0142778 0.0375614 0.0377863
   vertex 0.0148095 0.0374137 0.0381048
   vertex 0.0143587 0.0369062 0.0379629
  endloop
 endfacet
 facet normal 0.469647 -0.17515 -0.865306
  outer loop
   vertex 0.0138006 0.0370986 0.037621
   vertex 0.0142778 0.0375614 0.0377863
   vertex 0.0143587 0.0369062 0.0379629
  endloop
 endfacet
 facet normal 0.469648 -0.175147 -0.865306
  outer loop
   vertex 0.0124067 0.0392238 0.0364343
   vertex 0.0118759 0.0394993 0.0360904
   vertex 0.0124158 0.0398959 0.0363032
  endloop
 endfacet
 facet normal 0.46965 -0.175148 -0.865304
  outer loop
   vertex 0.01184 0.0381586 0.0363423
   vertex 0.0118768 0.0388185 0.0362287
   vertex 0.012371 0.0385354 0.0365543
  endloop
 endfacet
 facet normal 0.46965 -0.175147 -0.865305
  outer loop
   vertex 0.0123051 0.0378642 0.0366543
   vertex 0.01184 0.0381586 0.0363423
   vertex 0.012371 0.0385354 0.0365543
  endloop
 endfacet
 facet normal 0.469648 -0.175148 -0.865306
  outer loop
   vertex 0.0116438 0.0362582 0.0366205
   vertex 0.0117299 0.0368726 0.0365429
   vertex 0.0122093 0.0365804 0.0368622
  endloop
 endfacet
 facet normal 0.469648 -0.175148 -0.865306
  outer loop
   vertex 0.0121602 0.0359328 0.0369666
   vertex 0.0116438 0.0362582 0.0366205
   vertex 0.0122093 0.0365804 0.0368622
  endloop
 endfacet
 facet normal 0.469647 -0.175151 -0.865306
  outer loop
   vertex 0.0107881 0.040328 0.0353323
   vertex 0.0101749 0.0401221 0.0350411
   vertex 0.0103738 0.040732 0.0350257
  endloop
 endfacet
 facet normal 0.469646 -0.175151 -0.865306
  outer loop
   vertex 0.00721405 0.0370544 0.0340551
   vertex 0.00680574 0.0364453 0.0339567
   vertex 0.00662757 0.0370627 0.0337351
  endloop
 endfacet
 facet normal 0.469646 -0.175153 -0.865306
  outer loop
   vertex 0.00802726 0.0415807 0.0335803
   vertex 0.0085496 0.0416447 0.0338508
   vertex 0.00831044 0.0410998 0.0338313
  endloop
 endfacet
 facet normal 0.469646 -0.17515 -0.865307
  outer loop
   vertex 0.0112519 0.0339201 0.0368811
   vertex 0.0109101 0.0334786 0.0367849
   vertex 0.0107766 0.0341096 0.0365847
  endloop
 endfacet
 facet normal 0.469648 -0.175153 -0.865305
  outer loop
   vertex 0.00892052 0.0359548 0.0352038
   vertex 0.00832601 0.0359573 0.0348807
   vertex 0.00869209 0.0365069 0.0349681
  endloop
 endfacet
 facet normal 0.469651 -0.17515 -0.865303
  outer loop
   vertex 0.00926647 0.0364863 0.035284
   vertex 0.00892052 0.0359548 0.0352038
   vertex 0.00869209 0.0365069 0.0349681
  endloop
 endfacet
 facet normal 0.469646 -0.17515 -0.865307
  outer loop
   vertex 0.00947842 0.0375579 0.0351821
   vertex 0.0098822 0.0380818 0.0352953
   vertex 0.0100532 0.0374938 0.0355071
  endloop
 endfacet
 facet normal 0.469651 -0.175153 -0.865303
  outer loop
   vertex 0.00784467 0.0371589 0.0343762
   vertex 0.00832362 0.0376673 0.0345332
   vertex 0.00848496 0.0370855 0.0347386
  endloop
 endfacet
 facet normal 0.469651 -0.175148 -0.865304
  outer loop
   vertex 0.00808266 0.0365238 0.0346339
   vertex 0.00784467 0.0371589 0.0343762
   vertex 0.00848496 0.0370855 0.0347386
  endloop
 endfacet
 facet normal 0.469647 -0.175145 -0.865307
  outer loop
   vertex 0.00848496 0.0370855 0.0347386
   vertex 0.00907626 0.0370382 0.0350691
   vertex 0.00869209 0.0365069 0.0349681
  endloop
 endfacet
 facet normal 0.469648 -0.175145 -0.865307
  outer loop
   vertex 0.00808266 0.0365238 0.0346339
   vertex 0.00848496 0.0370855 0.0347386
   vertex 0.00869209 0.0365069 0.0349681
  endloop
 endfacet
 facet normal 0.469651 -0.17515 -0.865304
  outer loop
   vertex 0.0098822 0.0380818 0.0352953
   vertex 0.00972689 0.0386611 0.0350937
   vertex 0.0102773 0.0385863 0.0354076
  endloop
 endfacet
 facet normal 0.469648 -0.17515 -0.865305
  outer loop
   vertex 0.00745005 0.036498 0.0342958
   vertex 0.00721405 0.0370544 0.0340551
   vertex 0.00784467 0.0371589 0.0343762
  endloop
 endfacet
 facet normal 0.469648 -0.17515 -0.865305
  outer loop
   vertex 0.00808266 0.0365238 0.0346339
   vertex 0.00745005 0.036498 0.0342958
   vertex 0.00784467 0.0371589 0.0343762
  endloop
 endfacet
 facet normal 0.469651 -0.175146 -0.865305
  outer loop
   vertex 0.00809007 0.0405113 0.0338308
   vertex 0.00785249 0.0398957 0.0338265
   vertex 0.00748257 0.0404267 0.0335182
  endloop
 endfacet
 facet normal 0.469645 -0.175152 -0.865307
  outer loop
   vertex 0.0151448 0.0384835 0.0380703
   vertex 0.015569 0.0383533 0.0383268
   vertex 0.0152437 0.0379207 0.0382379
  endloop
 endfacet
 facet normal 0.46965 -0.175151 -0.865304
  outer loop
   vertex 0.0121064 0.0336714 0.0373952
   vertex 0.0122503 0.0342428 0.0373576
   vertex 0.0126895 0.0338904 0.0376673
  endloop
 endfacet
 facet normal 0.469646 -0.17515 -0.865306
  outer loop
   vertex 0.0133699 0.0432051 0.0361512
   vertex 0.0137438 0.0427601 0.0364442
   vertex 0.013069 0.0426656 0.0360971
  endloop
 endfacet
 facet normal 0.469648 -0.175147 -0.865306
  outer loop
   vertex 0.00930767 0.0381432 0.034971
   vertex 0.00871816 0.0381936 0.0346408
   vertex 0.00913479 0.0387473 0.0347549
  endloop
 endfacet
 facet normal 0.46965 -0.175149 -0.865304
  outer loop
   vertex 0.00913479 0.0387473 0.0347549
   vertex 0.00871816 0.0381936 0.0346408
   vertex 0.00850654 0.0387831 0.0344067
  endloop
 endfacet
 facet normal 0.469651 -0.175152 -0.865303
  outer loop
   vertex 0.011926 0.0401935 0.0359771
   vertex 0.0124203 0.0404452 0.0361944
   vertex 0.0124158 0.0398959 0.0363032
  endloop
 endfacet
 facet normal 0.469647 -0.175152 -0.865305
  outer loop
   vertex 0.0124158 0.0398959 0.0363032
   vertex 0.0124203 0.0404452 0.0361944
   vertex 0.0129425 0.040353 0.0364965
  endloop
 endfacet
 facet normal 0.469644 -0.175152 -0.865307
  outer loop
   vertex 0.00785249 0.0398957 0.0338265
   vertex 0.00759447 0.0392894 0.0338091
   vertex 0.00724779 0.039813 0.033515
  endloop
 endfacet
 facet normal 0.46965 -0.175152 -0.865304
  outer loop
   vertex 0.0115101 0.0335334 0.0370995
   vertex 0.0117228 0.0340659 0.0371071
   vertex 0.0121064 0.0336714 0.0373952
  endloop
 endfacet
 facet normal 0.469651 -0.175153 -0.865303
  outer loop
   vertex 0.00848496 0.0370855 0.0347386
   vertex 0.00832362 0.0376673 0.0345332
   vertex 0.00889832 0.0376146 0.0348558
  endloop
 endfacet
 facet normal 0.469647 -0.175149 -0.865306
  outer loop
   vertex 0.00907626 0.0370382 0.0350691
   vertex 0.00848496 0.0370855 0.0347386
   vertex 0.00889832 0.0376146 0.0348558
  endloop
 endfacet
 facet normal 0.46965 -0.175147 -0.865305
  outer loop
   vertex 0.011926 0.0401935 0.0359771
   vertex 0.0121246 0.0408399 0.0359541
   vertex 0.0124203 0.0404452 0.0361944
  endloop
 endfacet
 facet normal 0.469651 -0.175151 -0.865304
  outer loop
   vertex 0.0122503 0.0342428 0.0373576
   vertex 0.0121064 0.0336714 0.0373952
   vertex 0.0117228 0.0340659 0.0371071
  endloop
 endfacet
 facet normal 0.469646 -0.175146 -0.865307
  outer loop
   vertex 0.00963714 0.0369834 0.0353846
   vertex 0.00947842 0.0375579 0.0351821
   vertex 0.0100532 0.0374938 0.0355071
  endloop
 endfacet
 facet normal 0.469647 -0.175152 -0.865306
  outer loop
   vertex 0.00871816 0.0381936 0.0346408
   vertex 0.00930767 0.0381432 0.034971
   vertex 0.00889832 0.0376146 0.0348558
  endloop
 endfacet
 facet normal 0.469651 -0.175149 -0.865304
  outer loop
   vertex 0.00832362 0.0376673 0.0345332
   vertex 0.00871816 0.0381936 0.0346408
   vertex 0.00889832 0.0376146 0.0348558
  endloop
 endfacet
 facet normal 0.469649 -0.175149 -0.865305
  outer loop
   vertex 0.0147124 0.0354893 0.0384416
   vertex 0.0142697 0.0349928 0.0383019
   vertex 0.0139424 0.0356529 0.0379906
  endloop
 endfacet
 facet normal 0.469649 -0.175149 -0.865305
  outer loop
   vertex 0.0144827 0.0362078 0.0381715
   vertex 0.0147124 0.0354893 0.0384416
   vertex 0.0139424 0.0356529 0.0379906
  endloop
 endfacet
 facet normal 0.469647 -0.175148 -0.865306
  outer loop
   vertex 0.0117299 0.0368726 0.0365429
   vertex 0.0116438 0.0362582 0.0366205
   vertex 0.0112679 0.0365856 0.0363502
  endloop
 endfacet
 facet normal 0.469648 -0.175151 -0.865305
  outer loop
   vertex 0.011255 0.0371415 0.0362307
   vertex 0.0117299 0.0368726 0.0365429
   vertex 0.0112679 0.0365856 0.0363502
  endloop
 endfacet
 facet normal 0.469648 -0.175152 -0.865305
  outer loop
   vertex 0.0101695 0.0341476 0.0362475
   vertex 0.0105091 0.0345552 0.0363494
   vertex 0.0107766 0.0341096 0.0365847
  endloop
 endfacet
 facet normal 0.469651 -0.175148 -0.865304
  outer loop
   vertex 0.00748257 0.0404267 0.0335182
   vertex 0.00774302 0.041024 0.0335387
   vertex 0.00809007 0.0405113 0.0338308
  endloop
 endfacet
 facet normal 0.469649 -0.175146 -0.865306
  outer loop
   vertex 0.0085496 0.0416447 0.0338508
   vertex 0.00909067 0.0416863 0.0341361
   vertex 0.00878251 0.0412096 0.0340653
  endloop
 endfacet
 facet normal 0.469641 -0.175151 -0.865309
  outer loop
   vertex 0.00831044 0.0410998 0.0338313
   vertex 0.0085496 0.0416447 0.0338508
   vertex 0.00878251 0.0412096 0.0340653
  endloop
 endfacet
 facet normal 0.469649 -0.175147 -0.865306
  outer loop
   vertex 0.0138824 0.0435249 0.0363646
   vertex 0.0143634 0.0431773 0.0366961
   vertex 0.0137438 0.0427601 0.0364442
  endloop
 endfacet
 facet normal 0.469649 -0.175147 -0.865305
  outer loop
   vertex 0.0133699 0.0432051 0.0361512
   vertex 0.0138824 0.0435249 0.0363646
   vertex 0.0137438 0.0427601 0.0364442
  endloop
 endfacet
 facet normal 0.469648 -0.175147 -0.865306
  outer loop
   vertex 0.012923 0.0396539 0.0366275
   vertex 0.0124067 0.0392238 0.0364343
   vertex 0.0124158 0.0398959 0.0363032
  endloop
 endfacet
 facet normal 0.469646 -0.175151 -0.865306
  outer loop
   vertex 0.0129425 0.040353 0.0364965
   vertex 0.012923 0.0396539 0.0366275
   vertex 0.0124158 0.0398959 0.0363032
  endloop
 endfacet
 facet normal 0.469646 -0.175149 -0.865307
  outer loop
   vertex 0.0102001 0.0361216 0.0358646
   vertex 0.00979759 0.03543 0.0357861
   vertex 0.0095159 0.0359759 0.0355227
  endloop
 endfacet
 facet normal 0.46965 -0.175145 -0.865305
  outer loop
   vertex 0.00788502 0.0387438 0.0340773
   vertex 0.00821262 0.0393591 0.0341305
   vertex 0.00850654 0.0387831 0.0344067
  endloop
 endfacet
 facet normal 0.469646 -0.17515 -0.865306
  outer loop
   vertex 0.00880222 0.0423055 0.0338542
   vertex 0.00827189 0.0426205 0.0335026
   vertex 0.00876183 0.0430569 0.0336802
  endloop
 endfacet
 facet normal 0.469646 -0.175147 -0.865307
  outer loop
   vertex 0.0133336 0.0421148 0.0363522
   vertex 0.013069 0.0426656 0.0360971
   vertex 0.0137438 0.0427601 0.0364442
  endloop
 endfacet
 facet normal 0.46965 -0.175153 -0.865304
  outer loop
   vertex 0.0147612 0.0417593 0.037199
   vertex 0.0150748 0.0411821 0.037486
   vertex 0.0144423 0.0411469 0.0371499
  endloop
 endfacet
 facet normal 0.469649 -0.175145 -0.865306
  outer loop
   vertex 0.0118764 0.0346104 0.0370803
   vertex 0.0122503 0.0342428 0.0373576
   vertex 0.0117228 0.0340659 0.0371071
  endloop
 endfacet
 facet normal 0.469649 -0.175151 -0.865305
  outer loop
   vertex 0.0118327 0.0424804 0.0354636
   vertex 0.0121218 0.0419529 0.0357273
   vertex 0.0114719 0.0418192 0.0354016
  endloop
 endfacet
 facet normal 0.46965 -0.17515 -0.865304
  outer loop
   vertex 0.012693 0.0409353 0.0362432
   vertex 0.0129982 0.0415221 0.0362901
   vertex 0.0132648 0.0409999 0.0365405
  endloop
 endfacet
 facet normal 0.469648 -0.175148 -0.865306
  outer loop
   vertex 0.00880222 0.0423055 0.0338542
   vertex 0.0085496 0.0416447 0.0338508
   vertex 0.00829594 0.0420527 0.0336306
  endloop
 endfacet
 facet normal 0.46965 -0.175151 -0.865304
  outer loop
   vertex 0.0100391 0.0423434 0.0345178
   vertex 0.0103039 0.0417908 0.0347734
   vertex 0.00969185 0.0417095 0.0344577
  endloop
 endfacet
 facet normal 0.469649 -0.175149 -0.865305
  outer loop
   vertex 0.007746 0.0348525 0.0347895
   vertex 0.00824969 0.0349814 0.0350368
   vertex 0.0081782 0.0344359 0.0351084
  endloop
 endfacet
 facet normal 0.469646 -0.175151 -0.865306
  outer loop
   vertex 0.0121246 0.0408399 0.0359541
   vertex 0.012693 0.0409353 0.0362432
   vertex 0.0124203 0.0404452 0.0361944
  endloop
 endfacet
 facet normal 0.469645 -0.175147 -0.865307
  outer loop
   vertex 0.0108803 0.0418603 0.0350722
   vertex 0.0106374 0.042381 0.0348349
   vertex 0.011228 0.042418 0.035148
  endloop
 endfacet
 facet normal 0.469645 -0.175147 -0.865307
  outer loop
   vertex 0.011228 0.042418 0.035148
   vertex 0.0106374 0.042381 0.0348349
   vertex 0.0109771 0.0429587 0.0349024
  endloop
 endfacet
 facet normal 0.469648 -0.175149 -0.865306
  outer loop
   vertex 0.00959537 0.0392486 0.0349034
   vertex 0.00959986 0.0398625 0.0347816
   vertex 0.0100093 0.0396147 0.035054
  endloop
 endfacet
 facet normal 0.469648 -0.175148 -0.865306
  outer loop
   vertex 0.0118257 0.0413303 0.0356926
   vertex 0.012415 0.0414401 0.0359902
   vertex 0.0121246 0.0408399 0.0359541
  endloop
 endfacet
 facet normal 0.469647 -0.175151 -0.865305
  outer loop
   vertex 0.0132745 0.0353719 0.037685
   vertex 0.0132497 0.0347894 0.0377894
   vertex 0.0127442 0.0350427 0.0374638
  endloop
 endfacet
 facet normal 0.469647 -0.175152 -0.865305
  outer loop
   vertex 0.016049 0.0392434 0.0384072
   vertex 0.0155689 0.0388683 0.0382225
   vertex 0.0155427 0.0394625 0.038088
  endloop
 endfacet
 facet normal 0.469649 -0.175147 -0.865305
  outer loop
   vertex 0.016019 0.0399056 0.0382569
   vertex 0.016049 0.0392434 0.0384072
   vertex 0.0155427 0.0394625 0.038088
  endloop
 endfacet
 facet normal 0.469648 -0.175148 -0.865306
  outer loop
   vertex 0.0128279 0.0382192 0.0368662
   vertex 0.012371 0.0385354 0.0365543
   vertex 0.0129814 0.0389325 0.0368052
  endloop
 endfacet
 facet normal 0.469646 -0.175147 -0.865307
  outer loop
   vertex 0.0132779 0.0384703 0.0370596
   vertex 0.0128279 0.0382192 0.0368662
   vertex 0.0129814 0.0389325 0.0368052
  endloop
 endfacet
 facet normal 0.469646 -0.175147 -0.865307
  outer loop
   vertex 0.012693 0.0409353 0.0362432
   vertex 0.0121246 0.0408399 0.0359541
   vertex 0.012415 0.0414401 0.0359902
  endloop
 endfacet
 facet normal 0.469646 -0.175148 -0.865307
  outer loop
   vertex 0.0129982 0.0415221 0.0362901
   vertex 0.012693 0.0409353 0.0362432
   vertex 0.012415 0.0414401 0.0359902
  endloop
 endfacet
 facet normal 0.46965 -0.17515 -0.865304
  outer loop
   vertex 0.0100391 0.0423434 0.0345178
   vertex 0.0106374 0.042381 0.0348349
   vertex 0.0103039 0.0417908 0.0347734
  endloop
 endfacet
 facet normal 0.469648 -0.175151 -0.865305
  outer loop
   vertex 0.012923 0.0396539 0.0366275
   vertex 0.0134622 0.0395066 0.0369499
   vertex 0.0129814 0.0389325 0.0368052
  endloop
 endfacet
 facet normal 0.469644 -0.175149 -0.865307
  outer loop
   vertex 0.01146 0.040672 0.0356273
   vertex 0.011926 0.0401935 0.0359771
   vertex 0.011247 0.0397897 0.0356903
  endloop
 endfacet
 facet normal 0.469651 -0.175151 -0.865303
  outer loop
   vertex 0.0107881 0.040328 0.0353323
   vertex 0.01146 0.040672 0.0356273
   vertex 0.011247 0.0397897 0.0356903
  endloop
 endfacet
 facet normal 0.469648 -0.17515 -0.865306
  outer loop
   vertex 0.011228 0.042418 0.035148
   vertex 0.0118327 0.0424804 0.0354636
   vertex 0.0114719 0.0418192 0.0354016
  endloop
 endfacet
 facet normal 0.469649 -0.175149 -0.865305
  outer loop
   vertex 0.0108803 0.0418603 0.0350722
   vertex 0.011228 0.042418 0.035148
   vertex 0.0114719 0.0418192 0.0354016
  endloop
 endfacet
 facet normal 0.469652 -0.175145 -0.865304
  outer loop
   vertex 0.0117228 0.0340659 0.0371071
   vertex 0.0113404 0.0344068 0.0368306
   vertex 0.0118764 0.0346104 0.0370803
  endloop
 endfacet
 facet normal 0.469647 -0.175151 -0.865305
  outer loop
   vertex 0.0129425 0.040353 0.0364965
   vertex 0.0124203 0.0404452 0.0361944
   vertex 0.012693 0.0409353 0.0362432
  endloop
 endfacet
 facet normal 0.469647 -0.175151 -0.865306
  outer loop
   vertex 0.012415 0.0414401 0.0359902
   vertex 0.0121218 0.0419529 0.0357273
   vertex 0.0127294 0.0420484 0.0360377
  endloop
 endfacet
 facet normal 0.469646 -0.175151 -0.865306
  outer loop
   vertex 0.0129982 0.0415221 0.0362901
   vertex 0.012415 0.0414401 0.0359902
   vertex 0.0127294 0.0420484 0.0360377
  endloop
 endfacet
 facet normal 0.469648 -0.175151 -0.865305
  outer loop
   vertex 0.00662757 0.0370627 0.0337351
   vertex 0.00652263 0.0377076 0.0335476
   vertex 0.0070617 0.0376146 0.033859
  endloop
 endfacet
 facet normal 0.469646 -0.175149 -0.865307
  outer loop
   vertex 0.00721405 0.0370544 0.0340551
   vertex 0.00662757 0.0370627 0.0337351
   vertex 0.0070617 0.0376146 0.033859
  endloop
 endfacet
 facet normal 0.469649 -0.175154 -0.865304
  outer loop
   vertex 0.00785249 0.0398957 0.0338265
   vertex 0.00821262 0.0393591 0.0341305
   vertex 0.00759447 0.0392894 0.0338091
  endloop
 endfacet
 facet normal 0.469647 -0.175149 -0.865306
  outer loop
   vertex 0.0121246 0.0408399 0.0359541
   vertex 0.01146 0.040672 0.0356273
   vertex 0.0118257 0.0413303 0.0356926
  endloop
 endfacet
 facet normal 0.469649 -0.17515 -0.865304
  outer loop
   vertex 0.0113157 0.0377998 0.0361304
   vertex 0.0107028 0.0374479 0.035869
   vertex 0.0109298 0.0381452 0.035851
  endloop
 endfacet
 facet normal 0.469649 -0.175148 -0.865305
  outer loop
   vertex 0.00880222 0.0423055 0.0338542
   vertex 0.00909067 0.0416863 0.0341361
   vertex 0.0085496 0.0416447 0.0338508
  endloop
 endfacet
 facet normal 0.469649 -0.175146 -0.865306
  outer loop
   vertex 0.00929877 0.0410126 0.0343854
   vertex 0.00878251 0.0412096 0.0340653
   vertex 0.00909067 0.0416863 0.0341361
  endloop
 endfacet
 facet normal 0.46965 -0.175151 -0.865304
  outer loop
   vertex 0.0124067 0.0392238 0.0364343
   vertex 0.012923 0.0396539 0.0366275
   vertex 0.0129814 0.0389325 0.0368052
  endloop
 endfacet
 facet normal 0.469647 -0.175149 -0.865306
  outer loop
   vertex 0.00880222 0.0423055 0.0338542
   vertex 0.00943561 0.0423035 0.0341983
   vertex 0.00909067 0.0416863 0.0341361
  endloop
 endfacet
 facet normal 0.469646 -0.175147 -0.865307
  outer loop
   vertex 0.0157359 0.0411679 0.0378477
   vertex 0.0153068 0.0406243 0.0377249
   vertex 0.0150748 0.0411821 0.037486
  endloop
 endfacet
 facet normal 0.469643 -0.175153 -0.865307
  outer loop
   vertex 0.0139424 0.0356529 0.0379906
   vertex 0.0142697 0.0349928 0.0383019
   vertex 0.0137026 0.0350742 0.0379776
  endloop
 endfacet
 facet normal 0.469646 -0.175149 -0.865307
  outer loop
   vertex 0.0085496 0.0416447 0.0338508
   vertex 0.00802726 0.0415807 0.0335803
   vertex 0.00829594 0.0420527 0.0336306
  endloop
 endfacet
 facet normal 0.469645 -0.175149 -0.865307
  outer loop
   vertex 0.0109734 0.0359968 0.0363095
   vertex 0.0109908 0.0352926 0.0364615
   vertex 0.0104341 0.0354386 0.0361298
  endloop
 endfacet
 facet normal 0.469648 -0.175151 -0.865305
  outer loop
   vertex 0.0100532 0.0374938 0.0355071
   vertex 0.0107028 0.0374479 0.035869
   vertex 0.0101842 0.036865 0.0357055
  endloop
 endfacet
 facet normal 0.46965 -0.175145 -0.865305
  outer loop
   vertex 0.0144423 0.0411469 0.0371499
   vertex 0.0150748 0.0411821 0.037486
   vertex 0.0147121 0.0406334 0.0374002
  endloop
 endfacet
 facet normal 0.469651 -0.175148 -0.865304
  outer loop
   vertex 0.00975952 0.0405178 0.0347356
   vertex 0.00929877 0.0410126 0.0343854
   vertex 0.0100002 0.0411732 0.0347336
  endloop
 endfacet
 facet normal 0.469649 -0.175147 -0.865305
  outer loop
   vertex 0.0138479 0.0410774 0.0368413
   vertex 0.0141438 0.0416222 0.0368916
   vertex 0.0144423 0.0411469 0.0371499
  endloop
 endfacet
 facet normal 0.469648 -0.175147 -0.865306
  outer loop
   vertex 0.0121602 0.0359328 0.0369666
   vertex 0.0115581 0.0356152 0.0367041
   vertex 0.0116438 0.0362582 0.0366205
  endloop
 endfacet
 facet normal 0.469652 -0.175151 -0.865303
  outer loop
   vertex 0.0100391 0.0423434 0.0345178
   vertex 0.00978124 0.0429903 0.0342469
   vertex 0.0104005 0.0429263 0.034596
  endloop
 endfacet
 facet normal 0.46965 -0.17515 -0.865304
  outer loop
   vertex 0.0147956 0.0427607 0.037015
   vertex 0.0143026 0.0425229 0.0367955
   vertex 0.0143634 0.0431773 0.0366961
  endloop
 endfacet
 facet normal 0.469648 -0.175152 -0.865305
  outer loop
   vertex 0.0113157 0.0377998 0.0361304
   vertex 0.0113955 0.0384366 0.0360448
   vertex 0.01184 0.0381586 0.0363423
  endloop
 endfacet
 facet normal 0.46965 -0.175148 -0.865304
  outer loop
   vertex 0.01184 0.0381586 0.0363423
   vertex 0.0113955 0.0384366 0.0360448
   vertex 0.0118768 0.0388185 0.0362287
  endloop
 endfacet
 facet normal 0.46965 -0.175146 -0.865305
  outer loop
   vertex 0.0148095 0.0374137 0.0381048
   vertex 0.0149185 0.0367507 0.0382982
   vertex 0.0143587 0.0369062 0.0379629
  endloop
 endfacet
 facet normal 0.469648 -0.17515 -0.865305
  outer loop
   vertex 0.0143587 0.0369062 0.0379629
   vertex 0.0149185 0.0367507 0.0382982
   vertex 0.0144827 0.0362078 0.0381715
  endloop
 endfacet
 facet normal 0.469646 -0.17515 -0.865306
  outer loop
   vertex 0.0109771 0.0429587 0.0349024
   vertex 0.0113021 0.0435407 0.0349609
   vertex 0.011563 0.0430118 0.0352096
  endloop
 endfacet
 facet normal 0.469647 -0.175149 -0.865306
  outer loop
   vertex 0.011563 0.0430118 0.0352096
   vertex 0.0113021 0.0435407 0.0349609
   vertex 0.0118752 0.0435821 0.0352637
  endloop
 endfacet
 facet normal 0.469649 -0.175151 -0.865305
  outer loop
   vertex 0.0132745 0.0353719 0.037685
   vertex 0.0137026 0.0350742 0.0379776
   vertex 0.0132497 0.0347894 0.0377894
  endloop
 endfacet
 facet normal 0.469651 -0.175149 -0.865304
  outer loop
   vertex 0.0107881 0.040328 0.0353323
   vertex 0.0109372 0.040957 0.0352859
   vertex 0.01146 0.040672 0.0356273
  endloop
 endfacet
 facet normal 0.469649 -0.17515 -0.865305
  outer loop
   vertex 0.0113509 0.0412452 0.0354521
   vertex 0.0110475 0.0414403 0.0352479
   vertex 0.0114719 0.0418192 0.0354016
  endloop
 endfacet
 facet normal 0.469648 -0.175148 -0.865306
  outer loop
   vertex 0.00880222 0.0423055 0.0338542
   vertex 0.00829594 0.0420527 0.0336306
   vertex 0.00827189 0.0426205 0.0335026
  endloop
 endfacet
 facet normal 0.469649 -0.175146 -0.865305
  outer loop
   vertex 0.00909067 0.0416863 0.0341361
   vertex 0.00969185 0.0417095 0.0344577
   vertex 0.00929877 0.0410126 0.0343854
  endloop
 endfacet
 facet normal 0.469647 -0.175147 -0.865307
  outer loop
   vertex 0.013284 0.0366756 0.0374262
   vertex 0.013301 0.0360092 0.0375704
   vertex 0.0127342 0.0362933 0.0372052
  endloop
 endfacet
 facet normal 0.469647 -0.175153 -0.865305
  outer loop
   vertex 0.012923 0.0396539 0.0366275
   vertex 0.0133407 0.040013 0.0367815
   vertex 0.0134622 0.0395066 0.0369499
  endloop
 endfacet
 facet normal 0.469649 -0.175149 -0.865305
  outer loop
   vertex 0.015914 0.0405505 0.0380694
   vertex 0.0153068 0.0406243 0.0377249
   vertex 0.0157359 0.0411679 0.0378477
  endloop
 endfacet
 facet normal 0.469649 -0.17515 -0.865305
  outer loop
   vertex 0.0144423 0.0411469 0.0371499
   vertex 0.0141271 0.0405892 0.0370917
   vertex 0.0138479 0.0410774 0.0368413
  endloop
 endfacet
 facet normal 0.46965 -0.175151 -0.865304
  outer loop
   vertex 0.00979759 0.03543 0.0357861
   vertex 0.0104341 0.0354386 0.0361298
   vertex 0.0100733 0.03481 0.0360612
  endloop
 endfacet
 facet normal 0.469649 -0.175147 -0.865305
  outer loop
   vertex 0.0146182 0.0397187 0.0375344
   vertex 0.0149252 0.0401305 0.0376177
   vertex 0.0150487 0.0396187 0.0377883
  endloop
 endfacet
 facet normal 0.469647 -0.175152 -0.865306
  outer loop
   vertex 0.00880222 0.0423055 0.0338542
   vertex 0.00921434 0.0428146 0.0339748
   vertex 0.00943561 0.0423035 0.0341983
  endloop
 endfacet
 facet normal 0.469647 -0.175147 -0.865307
  outer loop
   vertex 0.0105899 0.0413205 0.0350238
   vertex 0.0100002 0.0411732 0.0347336
   vertex 0.0103039 0.0417908 0.0347734
  endloop
 endfacet
 facet normal 0.469648 -0.175154 -0.865304
  outer loop
   vertex 0.0109446 0.0347248 0.0365514
   vertex 0.0105883 0.0349686 0.0363086
   vertex 0.0109908 0.0352926 0.0364615
  endloop
 endfacet
 facet normal 0.469649 -0.175151 -0.865304
  outer loop
   vertex 0.0109771 0.0429587 0.0349024
   vertex 0.0104005 0.0429263 0.034596
   vertex 0.0107311 0.0434767 0.034664
  endloop
 endfacet
 facet normal 0.469649 -0.17515 -0.865305
  outer loop
   vertex 0.0110315 0.0440798 0.0347049
   vertex 0.0107311 0.0434767 0.034664
   vertex 0.0104352 0.0439418 0.0344093
  endloop
 endfacet
 facet normal 0.469649 -0.17515 -0.865305
  outer loop
   vertex 0.0104352 0.0439418 0.0344093
   vertex 0.0107311 0.0434767 0.034664
   vertex 0.0102399 0.0434115 0.0344106
  endloop
 endfacet
 facet normal 0.469647 -0.175149 -0.865306
  outer loop
   vertex 0.0118759 0.0394993 0.0360904
   vertex 0.0124067 0.0392238 0.0364343
   vertex 0.0118768 0.0388185 0.0362287
  endloop
 endfacet
 facet normal 0.469652 -0.175149 -0.865303
  outer loop
   vertex 0.011369 0.0390485 0.0359065
   vertex 0.0118759 0.0394993 0.0360904
   vertex 0.0118768 0.0388185 0.0362287
  endloop
 endfacet
 facet normal 0.469651 -0.175147 -0.865304
  outer loop
   vertex 0.007746 0.0348525 0.0347895
   vertex 0.0073694 0.0353315 0.0344881
   vertex 0.00799412 0.0354122 0.0348109
  endloop
 endfacet
 facet normal 0.469649 -0.175146 -0.865306
  outer loop
   vertex 0.00824969 0.0349814 0.0350368
   vertex 0.007746 0.0348525 0.0347895
   vertex 0.00799412 0.0354122 0.0348109
  endloop
 endfacet
 facet normal 0.469648 -0.175152 -0.865305
  outer loop
   vertex 0.0113955 0.0384366 0.0360448
   vertex 0.0113157 0.0377998 0.0361304
   vertex 0.0109298 0.0381452 0.035851
  endloop
 endfacet
 facet normal 0.469649 -0.175152 -0.865305
  outer loop
   vertex 0.0149185 0.0367507 0.0382982
   vertex 0.0154287 0.0366307 0.0385994
   vertex 0.0151007 0.0360382 0.0385413
  endloop
 endfacet
 facet normal 0.469649 -0.175151 -0.865304
  outer loop
   vertex 0.0144827 0.0362078 0.0381715
   vertex 0.0149185 0.0367507 0.0382982
   vertex 0.0151007 0.0360382 0.0385413
  endloop
 endfacet
 facet normal 0.469648 -0.175152 -0.865305
  outer loop
   vertex 0.0113021 0.0435407 0.0349609
   vertex 0.0109771 0.0429587 0.0349024
   vertex 0.0107311 0.0434767 0.034664
  endloop
 endfacet
 facet normal 0.469648 -0.175149 -0.865305
  outer loop
   vertex 0.0110315 0.0440798 0.0347049
   vertex 0.0113021 0.0435407 0.0349609
   vertex 0.0107311 0.0434767 0.034664
  endloop
 endfacet
 facet normal 0.469644 -0.175148 -0.865308
  outer loop
   vertex 0.0129814 0.0389325 0.0368052
   vertex 0.0134622 0.0395066 0.0369499
   vertex 0.0136132 0.0389223 0.0371501
  endloop
 endfacet
 facet normal 0.469644 -0.175149 -0.865308
  outer loop
   vertex 0.0132779 0.0384703 0.0370596
   vertex 0.0129814 0.0389325 0.0368052
   vertex 0.0136132 0.0389223 0.0371501
  endloop
 endfacet
 facet normal 0.469647 -0.17515 -0.865306
  outer loop
   vertex 0.0113021 0.0435407 0.0349609
   vertex 0.0110315 0.0440798 0.0347049
   vertex 0.0116315 0.0441346 0.0350195
  endloop
 endfacet
 facet normal 0.469647 -0.17515 -0.865306
  outer loop
   vertex 0.0118752 0.0435821 0.0352637
   vertex 0.0113021 0.0435407 0.0349609
   vertex 0.0116315 0.0441346 0.0350195
  endloop
 endfacet
 facet normal 0.469649 -0.175147 -0.865305
  outer loop
   vertex 0.0140976 0.0394785 0.0373005
   vertex 0.0141529 0.0388022 0.0374674
   vertex 0.0136132 0.0389223 0.0371501
  endloop
 endfacet
 facet normal 0.469648 -0.175146 -0.865306
  outer loop
   vertex 0.0134622 0.0395066 0.0369499
   vertex 0.0140976 0.0394785 0.0373005
   vertex 0.0136132 0.0389223 0.0371501
  endloop
 endfacet
 facet normal 0.46965 -0.175149 -0.865304
  outer loop
   vertex 0.0106374 0.042381 0.0348349
   vertex 0.0100391 0.0423434 0.0345178
   vertex 0.0104005 0.0429263 0.034596
  endloop
 endfacet
 facet normal 0.469649 -0.17515 -0.865305
  outer loop
   vertex 0.0109771 0.0429587 0.0349024
   vertex 0.0106374 0.042381 0.0348349
   vertex 0.0104005 0.0429263 0.034596
  endloop
 endfacet
 facet normal 0.469649 -0.175148 -0.865305
  outer loop
   vertex 0.0109372 0.040957 0.0352859
   vertex 0.0107881 0.040328 0.0353323
   vertex 0.0103738 0.040732 0.0350257
  endloop
 endfacet
 facet normal 0.469649 -0.175149 -0.865305
  outer loop
   vertex 0.0105899 0.0413205 0.0350238
   vertex 0.0109372 0.040957 0.0352859
   vertex 0.0103738 0.040732 0.0350257
  endloop
 endfacet
 facet normal 0.469645 -0.175149 -0.865307
  outer loop
   vertex 0.00721405 0.0370544 0.0340551
   vertex 0.0070617 0.0376146 0.033859
   vertex 0.00750323 0.0375364 0.0341144
  endloop
 endfacet
 facet normal 0.469648 -0.175152 -0.865305
  outer loop
   vertex 0.00784467 0.0371589 0.0343762
   vertex 0.00721405 0.0370544 0.0340551
   vertex 0.00750323 0.0375364 0.0341144
  endloop
 endfacet
 facet normal 0.469651 -0.175151 -0.865304
  outer loop
   vertex 0.00985207 0.0437228 0.0341371
   vertex 0.0104352 0.0439418 0.0344093
   vertex 0.0102399 0.0434115 0.0344106
  endloop
 endfacet
 facet normal 0.469645 -0.175147 -0.865307
  outer loop
   vertex 0.0103039 0.0417908 0.0347734
   vertex 0.0106374 0.042381 0.0348349
   vertex 0.0108803 0.0418603 0.0350722
  endloop
 endfacet
 facet normal 0.469645 -0.175148 -0.865307
  outer loop
   vertex 0.0105899 0.0413205 0.0350238
   vertex 0.0103039 0.0417908 0.0347734
   vertex 0.0108803 0.0418603 0.0350722
  endloop
 endfacet
 facet normal 0.469649 -0.175149 -0.865305
  outer loop
   vertex 0.0114719 0.0418192 0.0354016
   vertex 0.0110475 0.0414403 0.0352479
   vertex 0.0108803 0.0418603 0.0350722
  endloop
 endfacet
 facet normal 0.469647 -0.175147 -0.865306
  outer loop
   vertex 0.0137798 0.0345563 0.0381243
   vertex 0.0132497 0.0347894 0.0377894
   vertex 0.0137026 0.0350742 0.0379776
  endloop
 endfacet
 facet normal 0.469644 -0.175148 -0.865308
  outer loop
   vertex 0.0142697 0.0349928 0.0383019
   vertex 0.0137798 0.0345563 0.0381243
   vertex 0.0137026 0.0350742 0.0379776
  endloop
 endfacet
 facet normal 0.469651 -0.17515 -0.865303
  outer loop
   vertex 0.00963714 0.0369834 0.0353846
   vertex 0.0100532 0.0374938 0.0355071
   vertex 0.0101842 0.036865 0.0357055
  endloop
 endfacet
 facet normal 0.469648 -0.175147 -0.865306
  outer loop
   vertex 0.0102001 0.0361216 0.0358646
   vertex 0.00976005 0.0364834 0.0355525
   vertex 0.0101842 0.036865 0.0357055
  endloop
 endfacet
 facet normal 0.469648 -0.175148 -0.865306
  outer loop
   vertex 0.00782924 0.0421239 0.0333628
   vertex 0.00827189 0.0426205 0.0335026
   vertex 0.00829594 0.0420527 0.0336306
  endloop
 endfacet
 facet normal 0.469648 -0.175151 -0.865305
  outer loop
   vertex 0.00802726 0.0415807 0.0335803
   vertex 0.00782924 0.0421239 0.0333628
   vertex 0.00829594 0.0420527 0.0336306
  endloop
 endfacet
 facet normal 0.469647 -0.175148 -0.865306
  outer loop
   vertex 0.00832362 0.0376673 0.0345332
   vertex 0.00784467 0.0371589 0.0343762
   vertex 0.00786773 0.0377369 0.0342717
  endloop
 endfacet
 facet normal 0.469651 -0.175152 -0.865303
  outer loop
   vertex 0.00788502 0.0387438 0.0340773
   vertex 0.00813889 0.0382062 0.0343239
   vertex 0.0075347 0.03811 0.0340154
  endloop
 endfacet
 facet normal 0.469651 -0.175146 -0.865305
  outer loop
   vertex 0.0070396 0.0392123 0.0335236
   vertex 0.00724779 0.039813 0.033515
   vertex 0.00759447 0.0392894 0.0338091
  endloop
 endfacet
 facet normal 0.469651 -0.175148 -0.865304
  outer loop
   vertex 0.00731872 0.038714 0.0337759
   vertex 0.0070396 0.0392123 0.0335236
   vertex 0.00759447 0.0392894 0.0338091
  endloop
 endfacet
 facet normal 0.469645 -0.175151 -0.865307
  outer loop
   vertex 0.00921434 0.0428146 0.0339748
   vertex 0.00880222 0.0423055 0.0338542
   vertex 0.00876183 0.0430569 0.0336802
  endloop
 endfacet
 facet normal 0.469646 -0.175149 -0.865307
  outer loop
   vertex 0.00929134 0.0434262 0.0338928
   vertex 0.00921434 0.0428146 0.0339748
   vertex 0.00876183 0.0430569 0.0336802
  endloop
 endfacet
 facet normal 0.469645 -0.175149 -0.865307
  outer loop
   vertex 0.00929877 0.0410126 0.0343854
   vertex 0.00912375 0.0402402 0.0344467
   vertex 0.00867877 0.0406691 0.0341184
  endloop
 endfacet
 facet normal 0.469647 -0.175152 -0.865306
  outer loop
   vertex 0.00878251 0.0412096 0.0340653
   vertex 0.00929877 0.0410126 0.0343854
   vertex 0.00867877 0.0406691 0.0341184
  endloop
 endfacet
 facet normal 0.469647 -0.175149 -0.865306
  outer loop
   vertex 0.013556 0.0405134 0.036797
   vertex 0.0132648 0.0409999 0.0365405
   vertex 0.0138479 0.0410774 0.0368413
  endloop
 endfacet
 facet normal 0.469649 -0.17515 -0.865305
  outer loop
   vertex 0.0141271 0.0405892 0.0370917
   vertex 0.013556 0.0405134 0.036797
   vertex 0.0138479 0.0410774 0.0368413
  endloop
 endfacet
 facet normal 0.469651 -0.175147 -0.865304
  outer loop
   vertex 0.0100002 0.0411732 0.0347336
   vertex 0.00929877 0.0410126 0.0343854
   vertex 0.00969185 0.0417095 0.0344577
  endloop
 endfacet
 facet normal 0.46965 -0.175148 -0.865305
  outer loop
   vertex 0.0103039 0.0417908 0.0347734
   vertex 0.0100002 0.0411732 0.0347336
   vertex 0.00969185 0.0417095 0.0344577
  endloop
 endfacet
 facet normal 0.469647 -0.175149 -0.865306
  outer loop
   vertex 0.00929134 0.0434262 0.0338928
   vertex 0.00978124 0.0429903 0.0342469
   vertex 0.00921434 0.0428146 0.0339748
  endloop
 endfacet
 facet normal 0.469647 -0.175148 -0.865306
  outer loop
   vertex 0.0105899 0.0413205 0.0350238
   vertex 0.0103738 0.040732 0.0350257
   vertex 0.0100002 0.0411732 0.0347336
  endloop
 endfacet
 facet normal 0.469649 -0.175145 -0.865306
  outer loop
   vertex 0.00759447 0.0392894 0.0338091
   vertex 0.00821262 0.0393591 0.0341305
   vertex 0.00788502 0.0387438 0.0340773
  endloop
 endfacet
 facet normal 0.469647 -0.175146 -0.865307
  outer loop
   vertex 0.00731872 0.038714 0.0337759
   vertex 0.00759447 0.0392894 0.0338091
   vertex 0.00788502 0.0387438 0.0340773
  endloop
 endfacet
 facet normal 0.469648 -0.175152 -0.865305
  outer loop
   vertex 0.0102001 0.0361216 0.0358646
   vertex 0.0109734 0.0359968 0.0363095
   vertex 0.0104341 0.0354386 0.0361298
  endloop
 endfacet
 facet normal 0.46965 -0.175152 -0.865304
  outer loop
   vertex 0.00979759 0.03543 0.0357861
   vertex 0.0102001 0.0361216 0.0358646
   vertex 0.0104341 0.0354386 0.0361298
  endloop
 endfacet
 facet normal 0.469649 -0.175151 -0.865305
  outer loop
   vertex 0.00969185 0.0417095 0.0344577
   vertex 0.00909067 0.0416863 0.0341361
   vertex 0.00943561 0.0423035 0.0341983
  endloop
 endfacet
 facet normal 0.46965 -0.17515 -0.865304
  outer loop
   vertex 0.0100391 0.0423434 0.0345178
   vertex 0.00969185 0.0417095 0.0344577
   vertex 0.00943561 0.0423035 0.0341983
  endloop
 endfacet
 facet normal 0.469646 -0.175148 -0.865307
  outer loop
   vertex 0.0141271 0.0405892 0.0370917
   vertex 0.0144423 0.0411469 0.0371499
   vertex 0.0147121 0.0406334 0.0374002
  endloop
 endfacet
 facet normal 0.469646 -0.175152 -0.865306
  outer loop
   vertex 0.0143868 0.0401046 0.0373307
   vertex 0.0141271 0.0405892 0.0370917
   vertex 0.0147121 0.0406334 0.0374002
  endloop
 endfacet
 facet normal 0.469646 -0.175149 -0.865307
  outer loop
   vertex 0.00912375 0.0402402 0.0344467
   vertex 0.00848356 0.0400148 0.0341449
   vertex 0.00867877 0.0406691 0.0341184
  endloop
 endfacet
 facet normal 0.46965 -0.175145 -0.865305
  outer loop
   vertex 0.0147121 0.0406334 0.0374002
   vertex 0.0150748 0.0411821 0.037486
   vertex 0.0153068 0.0406243 0.0377249
  endloop
 endfacet
 facet normal 0.469647 -0.175152 -0.865305
  outer loop
   vertex 0.00943561 0.0423035 0.0341983
   vertex 0.00921434 0.0428146 0.0339748
   vertex 0.00978124 0.0429903 0.0342469
  endloop
 endfacet
 facet normal 0.469649 -0.175153 -0.865304
  outer loop
   vertex 0.0100391 0.0423434 0.0345178
   vertex 0.00943561 0.0423035 0.0341983
   vertex 0.00978124 0.0429903 0.0342469
  endloop
 endfacet
 facet normal 0.469644 -0.17515 -0.865307
  outer loop
   vertex 0.013284 0.0366756 0.0374262
   vertex 0.0132706 0.037324 0.0372877
   vertex 0.0138006 0.0370986 0.037621
  endloop
 endfacet
 facet normal 0.469652 -0.175149 -0.865303
  outer loop
   vertex 0.0132648 0.0409999 0.0365405
   vertex 0.0129982 0.0415221 0.0362901
   vertex 0.0135784 0.041576 0.0365941
  endloop
 endfacet
 facet normal 0.469643 -0.175147 -0.865309
  outer loop
   vertex 0.0109446 0.0347248 0.0365514
   vertex 0.0113404 0.0344068 0.0368306
   vertex 0.0107766 0.0341096 0.0365847
  endloop
 endfacet
 facet normal 0.469652 -0.175148 -0.865303
  outer loop
   vertex 0.0151722 0.0422817 0.0373163
   vertex 0.0147612 0.0417593 0.037199
   vertex 0.0146753 0.0422759 0.0370478
  endloop
 endfacet
 facet normal 0.469653 -0.175144 -0.865304
  outer loop
   vertex 0.0147956 0.0427607 0.037015
   vertex 0.0151722 0.0422817 0.0373163
   vertex 0.0146753 0.0422759 0.0370478
  endloop
 endfacet
 facet normal 0.469646 -0.17515 -0.865306
  outer loop
   vertex 0.00976005 0.0364834 0.0355525
   vertex 0.0102001 0.0361216 0.0358646
   vertex 0.0095159 0.0359759 0.0355227
  endloop
 endfacet
 facet normal 0.469651 -0.175149 -0.865304
  outer loop
   vertex 0.013284 0.0366756 0.0374262
   vertex 0.0127528 0.0369407 0.0370843
   vertex 0.0132706 0.037324 0.0372877
  endloop
 endfacet
 facet normal 0.469649 -0.175152 -0.865304
  outer loop
   vertex 0.013284 0.0366756 0.0374262
   vertex 0.0127342 0.0362933 0.0372052
   vertex 0.0127528 0.0369407 0.0370843
  endloop
 endfacet
 facet normal 0.469649 -0.175153 -0.865304
  outer loop
   vertex 0.00813889 0.0382062 0.0343239
   vertex 0.00788502 0.0387438 0.0340773
   vertex 0.00850654 0.0387831 0.0344067
  endloop
 endfacet
 facet normal 0.469646 -0.175155 -0.865305
  outer loop
   vertex 0.0139424 0.0356529 0.0379906
   vertex 0.0137026 0.0350742 0.0379776
   vertex 0.0132745 0.0353719 0.037685
  endloop
 endfacet
 facet normal 0.469652 -0.175149 -0.865303
  outer loop
   vertex 0.0121602 0.0359328 0.0369666
   vertex 0.0127342 0.0362933 0.0372052
   vertex 0.012721 0.0356462 0.037329
  endloop
 endfacet
 facet normal 0.46965 -0.175152 -0.865304
  outer loop
   vertex 0.0121247 0.0352232 0.037091
   vertex 0.0115581 0.0356152 0.0367041
   vertex 0.0121602 0.0359328 0.0369666
  endloop
 endfacet
 facet normal 0.469645 -0.175151 -0.865307
  outer loop
   vertex 0.013284 0.0366756 0.0374262
   vertex 0.0138006 0.0370986 0.037621
   vertex 0.0138612 0.0364227 0.0377907
  endloop
 endfacet
 facet normal 0.469647 -0.17515 -0.865306
  outer loop
   vertex 0.0138006 0.0370986 0.037621
   vertex 0.0143587 0.0369062 0.0379629
   vertex 0.0138612 0.0364227 0.0377907
  endloop
 endfacet
 facet normal 0.469651 -0.17515 -0.865304
  outer loop
   vertex 0.0126895 0.0338904 0.0376673
   vertex 0.0122503 0.0342428 0.0373576
   vertex 0.0127554 0.0344809 0.0375835
  endloop
 endfacet
 facet normal 0.469647 -0.17515 -0.865306
  outer loop
   vertex 0.00696827 0.0382056 0.0336887
   vertex 0.0075347 0.03811 0.0340154
   vertex 0.0070617 0.0376146 0.033859
  endloop
 endfacet
 facet normal 0.469647 -0.175153 -0.865305
  outer loop
   vertex 0.0133407 0.040013 0.0367815
   vertex 0.0138273 0.040036 0.0370409
   vertex 0.0134622 0.0395066 0.0369499
  endloop
 endfacet
 facet normal 0.469652 -0.175149 -0.865303
  outer loop
   vertex 0.0109446 0.0347248 0.0365514
   vertex 0.0107766 0.0341096 0.0365847
   vertex 0.0105091 0.0345552 0.0363494
  endloop
 endfacet
 facet normal 0.469645 -0.175152 -0.865307
  outer loop
   vertex 0.0113404 0.0344068 0.0368306
   vertex 0.0112519 0.0339201 0.0368811
   vertex 0.0107766 0.0341096 0.0365847
  endloop
 endfacet
 facet normal 0.469648 -0.175149 -0.865306
  outer loop
   vertex 0.0107611 0.0390639 0.0355735
   vertex 0.0106893 0.0384989 0.0356489
   vertex 0.0102773 0.0385863 0.0354076
  endloop
 endfacet
 facet normal 0.469644 -0.175154 -0.865306
  outer loop
   vertex 0.011369 0.0390485 0.0359065
   vertex 0.0110316 0.0386415 0.0358058
   vertex 0.0107611 0.0390639 0.0355735
  endloop
 endfacet
 facet normal 0.46965 -0.175149 -0.865304
  outer loop
   vertex 0.0107611 0.0390639 0.0355735
   vertex 0.0110316 0.0386415 0.0358058
   vertex 0.0106893 0.0384989 0.0356489
  endloop
 endfacet
 facet normal 0.469651 -0.175149 -0.865304
  outer loop
   vertex 0.0146599 0.0386371 0.037776
   vertex 0.0151448 0.0384835 0.0380703
   vertex 0.0147256 0.0380363 0.0379332
  endloop
 endfacet
 facet normal 0.469652 -0.17515 -0.865303
  outer loop
   vertex 0.0147256 0.0380363 0.0379332
   vertex 0.0151448 0.0384835 0.0380703
   vertex 0.0152437 0.0379207 0.0382379
  endloop
 endfacet
 facet normal 0.469648 -0.175147 -0.865306
  outer loop
   vertex 0.0160037 0.0385743 0.0385181
   vertex 0.015569 0.0383533 0.0383268
   vertex 0.0155689 0.0388683 0.0382225
  endloop
 endfacet
 facet normal 0.469646 -0.175147 -0.865307
  outer loop
   vertex 0.0155689 0.0388683 0.0382225
   vertex 0.015569 0.0383533 0.0383268
   vertex 0.0151448 0.0384835 0.0380703
  endloop
 endfacet
 facet normal 0.469643 -0.175147 -0.865309
  outer loop
   vertex 0.0109446 0.0347248 0.0365514
   vertex 0.0114716 0.0349819 0.0367853
   vertex 0.0113404 0.0344068 0.0368306
  endloop
 endfacet
 facet normal 0.469653 -0.175149 -0.865303
  outer loop
   vertex 0.0113404 0.0344068 0.0368306
   vertex 0.0114716 0.0349819 0.0367853
   vertex 0.0118764 0.0346104 0.0370803
  endloop
 endfacet
 facet normal 0.469652 -0.175152 -0.865303
  outer loop
   vertex 0.0129982 0.0415221 0.0362901
   vertex 0.0133336 0.0421148 0.0363522
   vertex 0.0135784 0.041576 0.0365941
  endloop
 endfacet
 facet normal 0.469651 -0.17515 -0.865304
  outer loop
   vertex 0.016019 0.0399056 0.0382569
   vertex 0.0154622 0.040054 0.0379246
   vertex 0.015914 0.0405505 0.0380694
  endloop
 endfacet
 facet normal 0.469649 -0.175149 -0.865305
  outer loop
   vertex 0.015914 0.0405505 0.0380694
   vertex 0.0154622 0.040054 0.0379246
   vertex 0.0153068 0.0406243 0.0377249
  endloop
 endfacet
 facet normal 0.46965 -0.17515 -0.865304
  outer loop
   vertex 0.0114719 0.0418192 0.0354016
   vertex 0.0118257 0.0413303 0.0356926
   vertex 0.0113509 0.0412452 0.0354521
  endloop
 endfacet
 facet normal 0.469647 -0.175148 -0.865306
  outer loop
   vertex 0.0118764 0.0346104 0.0370803
   vertex 0.0123497 0.0347228 0.0373144
   vertex 0.0122503 0.0342428 0.0373576
  endloop
 endfacet
 facet normal 0.469651 -0.175148 -0.865304
  outer loop
   vertex 0.0122503 0.0342428 0.0373576
   vertex 0.0123497 0.0347228 0.0373144
   vertex 0.0127554 0.0344809 0.0375835
  endloop
 endfacet
 facet normal 0.469647 -0.175147 -0.865306
  outer loop
   vertex 0.0109734 0.0359968 0.0363095
   vertex 0.0107609 0.0366888 0.0360542
   vertex 0.0112679 0.0365856 0.0363502
  endloop
 endfacet
 facet normal 0.469646 -0.175151 -0.865306
  outer loop
   vertex 0.0112679 0.0365856 0.0363502
   vertex 0.0107609 0.0366888 0.0360542
   vertex 0.011255 0.0371415 0.0362307
  endloop
 endfacet
 facet normal 0.469649 -0.175151 -0.865304
  outer loop
   vertex 0.0109372 0.040957 0.0352859
   vertex 0.0113509 0.0412452 0.0354521
   vertex 0.01146 0.040672 0.0356273
  endloop
 endfacet
 facet normal 0.46965 -0.175151 -0.865304
  outer loop
   vertex 0.01146 0.040672 0.0356273
   vertex 0.0113509 0.0412452 0.0354521
   vertex 0.0118257 0.0413303 0.0356926
  endloop
 endfacet
 facet normal 0.46965 -0.17515 -0.865304
  outer loop
   vertex 0.0152437 0.0379207 0.0382379
   vertex 0.0153293 0.0373137 0.0384072
   vertex 0.0148095 0.0374137 0.0381048
  endloop
 endfacet
 facet normal 0.469651 -0.175146 -0.865305
  outer loop
   vertex 0.0148095 0.0374137 0.0381048
   vertex 0.0153293 0.0373137 0.0384072
   vertex 0.0149185 0.0367507 0.0382982
  endloop
 endfacet
 facet normal 0.469645 -0.175152 -0.865306
  outer loop
   vertex 0.0132745 0.0353719 0.037685
   vertex 0.013301 0.0360092 0.0375704
   vertex 0.0139424 0.0356529 0.0379906
  endloop
 endfacet
 facet normal 0.469646 -0.175149 -0.865307
  outer loop
   vertex 0.0143868 0.0401046 0.0373307
   vertex 0.0146182 0.0397187 0.0375344
   vertex 0.0140976 0.0394785 0.0373005
  endloop
 endfacet
 facet normal 0.469645 -0.175149 -0.865307
  outer loop
   vertex 0.0109908 0.0352926 0.0364615
   vertex 0.0105883 0.0349686 0.0363086
   vertex 0.0104341 0.0354386 0.0361298
  endloop
 endfacet
 facet normal 0.469646 -0.175148 -0.865307
  outer loop
   vertex 0.0104341 0.0354386 0.0361298
   vertex 0.0105883 0.0349686 0.0363086
   vertex 0.0100733 0.03481 0.0360612
  endloop
 endfacet
 facet normal 0.469649 -0.17515 -0.865305
  outer loop
   vertex 0.00653787 0.0390389 0.0332864
   vertex 0.00687331 0.0387098 0.0335351
   vertex 0.00649257 0.0383698 0.0333972
  endloop
 endfacet
 facet normal 0.469652 -0.175148 -0.865304
  outer loop
   vertex 0.00784467 0.0371589 0.0343762
   vertex 0.00750323 0.0375364 0.0341144
   vertex 0.00786773 0.0377369 0.0342717
  endloop
 endfacet
 facet normal 0.469645 -0.175147 -0.865307
  outer loop
   vertex 0.0075347 0.03811 0.0340154
   vertex 0.00750323 0.0375364 0.0341144
   vertex 0.0070617 0.0376146 0.033859
  endloop
 endfacet
 facet normal 0.469649 -0.17515 -0.865305
  outer loop
   vertex 0.0104005 0.0429263 0.034596
   vertex 0.0102399 0.0434115 0.0344106
   vertex 0.0107311 0.0434767 0.034664
  endloop
 endfacet
 facet normal 0.469649 -0.17515 -0.865305
  outer loop
   vertex 0.0109372 0.040957 0.0352859
   vertex 0.0110475 0.0414403 0.0352479
   vertex 0.0113509 0.0412452 0.0354521
  endloop
 endfacet
 facet normal 0.469651 -0.175151 -0.865303
  outer loop
   vertex 0.0101842 0.036865 0.0357055
   vertex 0.00976005 0.0364834 0.0355525
   vertex 0.00963714 0.0369834 0.0353846
  endloop
 endfacet
 facet normal 0.469651 -0.175147 -0.865304
  outer loop
   vertex 0.0075347 0.03811 0.0340154
   vertex 0.00786773 0.0377369 0.0342717
   vertex 0.00750323 0.0375364 0.0341144
  endloop
 endfacet
 facet normal 0.46965 -0.175149 -0.865304
  outer loop
   vertex 0.0102773 0.0385863 0.0354076
   vertex 0.0104247 0.0380422 0.0355978
   vertex 0.0098822 0.0380818 0.0352953
  endloop
 endfacet
 facet normal 0.46965 -0.175148 -0.865305
  outer loop
   vertex 0.0098822 0.0380818 0.0352953
   vertex 0.0104247 0.0380422 0.0355978
   vertex 0.0100532 0.0374938 0.0355071
  endloop
 endfacet
 facet normal 0.469646 -0.175152 -0.865306
  outer loop
   vertex 0.0150487 0.0396187 0.0377883
   vertex 0.0150984 0.0390551 0.0379294
   vertex 0.0146145 0.0392233 0.0376327
  endloop
 endfacet
 facet normal 0.469649 -0.175154 -0.865304
  outer loop
   vertex 0.0153068 0.0406243 0.0377249
   vertex 0.0149252 0.0401305 0.0376177
   vertex 0.0147121 0.0406334 0.0374002
  endloop
 endfacet
 facet normal 0.469647 -0.17515 -0.865306
  outer loop
   vertex 0.014353 0.0420576 0.036917
   vertex 0.0146753 0.0422759 0.0370478
   vertex 0.0147612 0.0417593 0.037199
  endloop
 endfacet
 facet normal 0.469646 -0.175149 -0.865306
  outer loop
   vertex 0.00959537 0.0392486 0.0349034
   vertex 0.00895012 0.0394609 0.0345102
   vertex 0.00959986 0.0398625 0.0347816
  endloop
 endfacet
 facet normal 0.469648 -0.175153 -0.865305
  outer loop
   vertex 0.00959986 0.0398625 0.0347816
   vertex 0.00895012 0.0394609 0.0345102
   vertex 0.00912375 0.0402402 0.0344467
  endloop
 endfacet
 facet normal 0.469651 -0.175146 -0.865305
  outer loop
   vertex 0.0140976 0.0394785 0.0373005
   vertex 0.0146145 0.0392233 0.0376327
   vertex 0.0141529 0.0388022 0.0374674
  endloop
 endfacet
 facet normal 0.469647 -0.175151 -0.865306
  outer loop
   vertex 0.0127442 0.0350427 0.0374638
   vertex 0.012721 0.0356462 0.037329
   vertex 0.0132745 0.0353719 0.037685
  endloop
 endfacet
 facet normal 0.469646 -0.175148 -0.865307
  outer loop
   vertex 0.00731872 0.038714 0.0337759
   vertex 0.00696827 0.0382056 0.0336887
   vertex 0.00687331 0.0387098 0.0335351
  endloop
 endfacet
 facet normal 0.46965 -0.175148 -0.865304
  outer loop
   vertex 0.0143868 0.0401046 0.0373307
   vertex 0.0138273 0.040036 0.0370409
   vertex 0.0141271 0.0405892 0.0370917
  endloop
 endfacet
 facet normal 0.469646 -0.175151 -0.865306
  outer loop
   vertex 0.0129425 0.040353 0.0364965
   vertex 0.0133407 0.040013 0.0367815
   vertex 0.012923 0.0396539 0.0366275
  endloop
 endfacet
 facet normal 0.469645 -0.175149 -0.865307
  outer loop
   vertex 0.0100733 0.03481 0.0360612
   vertex 0.0105091 0.0345552 0.0363494
   vertex 0.0101695 0.0341476 0.0362475
  endloop
 endfacet
 facet normal 0.469652 -0.175151 -0.865303
  outer loop
   vertex 0.0137438 0.0427601 0.0364442
   vertex 0.0139059 0.0421093 0.0366639
   vertex 0.0133336 0.0421148 0.0363522
  endloop
 endfacet
 facet normal 0.469652 -0.175152 -0.865303
  outer loop
   vertex 0.0133336 0.0421148 0.0363522
   vertex 0.0139059 0.0421093 0.0366639
   vertex 0.0135784 0.041576 0.0365941
  endloop
 endfacet
 facet normal 0.469648 -0.175152 -0.865305
  outer loop
   vertex 0.010524 0.0396826 0.0353196
   vertex 0.0101526 0.0391494 0.0352259
   vertex 0.0100093 0.0396147 0.035054
  endloop
 endfacet
 facet normal 0.469648 -0.175147 -0.865306
  outer loop
   vertex 0.0101749 0.0401221 0.0350411
   vertex 0.010524 0.0396826 0.0353196
   vertex 0.0100093 0.0396147 0.035054
  endloop
 endfacet
 facet normal 0.46965 -0.17515 -0.865304
  outer loop
   vertex 0.00774302 0.041024 0.0335387
   vertex 0.00802726 0.0415807 0.0335803
   vertex 0.00831044 0.0410998 0.0338313
  endloop
 endfacet
 facet normal 0.46965 -0.175148 -0.865304
  outer loop
   vertex 0.00809007 0.0405113 0.0338308
   vertex 0.00774302 0.041024 0.0335387
   vertex 0.00831044 0.0410998 0.0338313
  endloop
 endfacet
 facet normal 0.469646 -0.175153 -0.865306
  outer loop
   vertex 0.0158838 0.0379088 0.0385877
   vertex 0.0152437 0.0379207 0.0382379
   vertex 0.015569 0.0383533 0.0383268
  endloop
 endfacet
 facet normal 0.469649 -0.17515 -0.865305
  outer loop
   vertex 0.0160037 0.0385743 0.0385181
   vertex 0.0158838 0.0379088 0.0385877
   vertex 0.015569 0.0383533 0.0383268
  endloop
 endfacet
 facet normal 0.469652 -0.175148 -0.865304
  outer loop
   vertex 0.0151448 0.0384835 0.0380703
   vertex 0.0146599 0.0386371 0.037776
   vertex 0.0150984 0.0390551 0.0379294
  endloop
 endfacet
 facet normal 0.469648 -0.175149 -0.865306
  outer loop
   vertex 0.0155689 0.0388683 0.0382225
   vertex 0.0151448 0.0384835 0.0380703
   vertex 0.0150984 0.0390551 0.0379294
  endloop
 endfacet
 facet normal 0.469645 -0.175154 -0.865306
  outer loop
   vertex 0.0114716 0.0349819 0.0367853
   vertex 0.0109446 0.0347248 0.0365514
   vertex 0.0109908 0.0352926 0.0364615
  endloop
 endfacet
 facet normal 0.469647 -0.175149 -0.865306
  outer loop
   vertex 0.0115581 0.0356152 0.0367041
   vertex 0.0114716 0.0349819 0.0367853
   vertex 0.0109908 0.0352926 0.0364615
  endloop
 endfacet
 facet normal 0.469648 -0.175151 -0.865305
  outer loop
   vertex 0.0121218 0.0419529 0.0357273
   vertex 0.012415 0.0414401 0.0359902
   vertex 0.0118257 0.0413303 0.0356926
  endloop
 endfacet
 facet normal 0.469649 -0.175151 -0.865305
  outer loop
   vertex 0.0114719 0.0418192 0.0354016
   vertex 0.0121218 0.0419529 0.0357273
   vertex 0.0118257 0.0413303 0.0356926
  endloop
 endfacet
 facet normal 0.469651 -0.17515 -0.865304
  outer loop
   vertex 0.0154622 0.040054 0.0379246
   vertex 0.016019 0.0399056 0.0382569
   vertex 0.0155427 0.0394625 0.038088
  endloop
 endfacet
 facet normal 0.469648 -0.17515 -0.865305
  outer loop
   vertex 0.0150487 0.0396187 0.0377883
   vertex 0.0154622 0.040054 0.0379246
   vertex 0.0155427 0.0394625 0.038088
  endloop
 endfacet
 facet normal 0.46965 -0.17515 -0.865304
  outer loop
   vertex 0.00912375 0.0402402 0.0344467
   vertex 0.00929877 0.0410126 0.0343854
   vertex 0.00975952 0.0405178 0.0347356
  endloop
 endfacet
 facet normal 0.46965 -0.175151 -0.865304
  outer loop
   vertex 0.00959986 0.0398625 0.0347816
   vertex 0.00912375 0.0402402 0.0344467
   vertex 0.00975952 0.0405178 0.0347356
  endloop
 endfacet
 facet normal 0.469646 -0.175149 -0.865307
  outer loop
   vertex 0.00876532 0.034789 0.0353556
   vertex 0.0081782 0.0344359 0.0351084
   vertex 0.00824969 0.0349814 0.0350368
  endloop
 endfacet
 facet normal 0.469646 -0.175148 -0.865307
  outer loop
   vertex 0.00856771 0.0354153 0.0351216
   vertex 0.00876532 0.034789 0.0353556
   vertex 0.00824969 0.0349814 0.0350368
  endloop
 endfacet
 facet normal 0.469647 -0.175149 -0.865306
  outer loop
   vertex 0.0123497 0.0347228 0.0373144
   vertex 0.0118764 0.0346104 0.0370803
   vertex 0.0121247 0.0352232 0.037091
  endloop
 endfacet
 facet normal 0.469651 -0.175146 -0.865304
  outer loop
   vertex 0.0127442 0.0350427 0.0374638
   vertex 0.0123497 0.0347228 0.0373144
   vertex 0.0121247 0.0352232 0.037091
  endloop
 endfacet
 facet normal 0.469651 -0.175149 -0.865304
  outer loop
   vertex 0.0114716 0.0349819 0.0367853
   vertex 0.0115581 0.0356152 0.0367041
   vertex 0.0121247 0.0352232 0.037091
  endloop
 endfacet
 facet normal 0.469652 -0.175151 -0.865303
  outer loop
   vertex 0.0118764 0.0346104 0.0370803
   vertex 0.0114716 0.0349819 0.0367853
   vertex 0.0121247 0.0352232 0.037091
  endloop
 endfacet
 facet normal 0.469647 -0.175146 -0.865306
  outer loop
   vertex 0.0127294 0.0420484 0.0360377
   vertex 0.013069 0.0426656 0.0360971
   vertex 0.0133336 0.0421148 0.0363522
  endloop
 endfacet
 facet normal 0.469647 -0.175149 -0.865306
  outer loop
   vertex 0.0129982 0.0415221 0.0362901
   vertex 0.0127294 0.0420484 0.0360377
   vertex 0.0133336 0.0421148 0.0363522
  endloop
 endfacet
 facet normal 0.46965 -0.175146 -0.865305
  outer loop
   vertex 0.0107609 0.0366888 0.0360542
   vertex 0.0109734 0.0359968 0.0363095
   vertex 0.0102001 0.0361216 0.0358646
  endloop
 endfacet
 facet normal 0.469651 -0.175146 -0.865305
  outer loop
   vertex 0.0101842 0.036865 0.0357055
   vertex 0.0107609 0.0366888 0.0360542
   vertex 0.0102001 0.0361216 0.0358646
  endloop
 endfacet
 facet normal 0.469649 -0.175147 -0.865305
  outer loop
   vertex 0.0107028 0.0374479 0.035869
   vertex 0.0100532 0.0374938 0.0355071
   vertex 0.0104247 0.0380422 0.0355978
  endloop
 endfacet
 facet normal 0.469646 -0.175149 -0.865307
  outer loop
   vertex 0.0109298 0.0381452 0.035851
   vertex 0.0107028 0.0374479 0.035869
   vertex 0.0104247 0.0380422 0.0355978
  endloop
 endfacet
 facet normal 0.469646 -0.175151 -0.865306
  outer loop
   vertex 0.0153293 0.0373137 0.0384072
   vertex 0.0152437 0.0379207 0.0382379
   vertex 0.0158838 0.0379088 0.0385877
  endloop
 endfacet
 facet normal 0.469646 -0.175152 -0.865306
  outer loop
   vertex 0.0156911 0.0372576 0.0386149
   vertex 0.0153293 0.0373137 0.0384072
   vertex 0.0158838 0.0379088 0.0385877
  endloop
 endfacet
 facet normal 0.469646 -0.175148 -0.865307
  outer loop
   vertex 0.0154622 0.040054 0.0379246
   vertex 0.0150487 0.0396187 0.0377883
   vertex 0.0149252 0.0401305 0.0376177
  endloop
 endfacet
 facet normal 0.469645 -0.17515 -0.865307
  outer loop
   vertex 0.0153068 0.0406243 0.0377249
   vertex 0.0154622 0.040054 0.0379246
   vertex 0.0149252 0.0401305 0.0376177
  endloop
 endfacet
 facet normal 0.46965 -0.175146 -0.865305
  outer loop
   vertex 0.00665781 0.0397044 0.0332168
   vertex 0.00724779 0.039813 0.033515
   vertex 0.0070396 0.0392123 0.0335236
  endloop
 endfacet
 facet normal 0.469647 -0.175149 -0.865306
  outer loop
   vertex 0.00653787 0.0390389 0.0332864
   vertex 0.00665781 0.0397044 0.0332168
   vertex 0.0070396 0.0392123 0.0335236
  endloop
 endfacet
 facet normal 0.469646 -0.175146 -0.865307
  outer loop
   vertex 0.00867877 0.0406691 0.0341184
   vertex 0.00809007 0.0405113 0.0338308
   vertex 0.00831044 0.0410998 0.0338313
  endloop
 endfacet
 facet normal 0.469641 -0.175151 -0.865309
  outer loop
   vertex 0.00878251 0.0412096 0.0340653
   vertex 0.00867877 0.0406691 0.0341184
   vertex 0.00831044 0.0410998 0.0338313
  endloop
 endfacet
 facet normal 0.469648 -0.175143 -0.865307
  outer loop
   vertex 0.0143026 0.0425229 0.0367955
   vertex 0.0147956 0.0427607 0.037015
   vertex 0.0146753 0.0422759 0.0370478
  endloop
 endfacet
 facet normal 0.469645 -0.175147 -0.865307
  outer loop
   vertex 0.014353 0.0420576 0.036917
   vertex 0.0143026 0.0425229 0.0367955
   vertex 0.0146753 0.0422759 0.0370478
  endloop
 endfacet
 facet normal 0.469647 -0.175146 -0.865307
  outer loop
   vertex 0.0153293 0.0373137 0.0384072
   vertex 0.0156911 0.0372576 0.0386149
   vertex 0.0154287 0.0366307 0.0385994
  endloop
 endfacet
 facet normal 0.46965 -0.175145 -0.865305
  outer loop
   vertex 0.0149185 0.0367507 0.0382982
   vertex 0.0153293 0.0373137 0.0384072
   vertex 0.0154287 0.0366307 0.0385994
  endloop
 endfacet
 facet normal 0.469647 -0.175153 -0.865305
  outer loop
   vertex 0.00687331 0.0387098 0.0335351
   vertex 0.00653787 0.0390389 0.0332864
   vertex 0.0070396 0.0392123 0.0335236
  endloop
 endfacet
 facet normal 0.469645 -0.175152 -0.865306
  outer loop
   vertex 0.00731872 0.038714 0.0337759
   vertex 0.00687331 0.0387098 0.0335351
   vertex 0.0070396 0.0392123 0.0335236
  endloop
 endfacet
 facet normal 0.469647 -0.175151 -0.865306
  outer loop
   vertex 0.0117228 0.0340659 0.0371071
   vertex 0.0115101 0.0335334 0.0370995
   vertex 0.0112519 0.0339201 0.0368811
  endloop
 endfacet
 facet normal 0.469647 -0.175152 -0.865305
  outer loop
   vertex 0.0113404 0.0344068 0.0368306
   vertex 0.0117228 0.0340659 0.0371071
   vertex 0.0112519 0.0339201 0.0368811
  endloop
 endfacet
 facet normal 0.469648 -0.17515 -0.865305
  outer loop
   vertex 0.0105899 0.0413205 0.0350238
   vertex 0.0108803 0.0418603 0.0350722
   vertex 0.0110475 0.0414403 0.0352479
  endloop
 endfacet
 facet normal 0.469648 -0.17515 -0.865305
  outer loop
   vertex 0.0109372 0.040957 0.0352859
   vertex 0.0105899 0.0413205 0.0350238
   vertex 0.0110475 0.0414403 0.0352479
  endloop
 endfacet
 facet normal 0.469646 -0.17515 -0.865306
  outer loop
   vertex 0.0147612 0.0417593 0.037199
   vertex 0.0144423 0.0411469 0.0371499
   vertex 0.0141438 0.0416222 0.0368916
  endloop
 endfacet
 facet normal 0.469646 -0.175151 -0.865306
  outer loop
   vertex 0.014353 0.0420576 0.036917
   vertex 0.0147612 0.0417593 0.037199
   vertex 0.0141438 0.0416222 0.0368916
  endloop
 endfacet
 facet normal 0.469649 -0.175152 -0.865304
  outer loop
   vertex 0.0107609 0.0366888 0.0360542
   vertex 0.0101842 0.036865 0.0357055
   vertex 0.0107028 0.0374479 0.035869
  endloop
 endfacet
 facet normal 0.469647 -0.175152 -0.865305
  outer loop
   vertex 0.011255 0.0371415 0.0362307
   vertex 0.0107609 0.0366888 0.0360542
   vertex 0.0107028 0.0374479 0.035869
  endloop
 endfacet
 facet normal 0.469647 -0.17515 -0.865306
  outer loop
   vertex 0.0104247 0.0380422 0.0355978
   vertex 0.0102773 0.0385863 0.0354076
   vertex 0.0106893 0.0384989 0.0356489
  endloop
 endfacet
 facet normal 0.469646 -0.175149 -0.865307
  outer loop
   vertex 0.0109298 0.0381452 0.035851
   vertex 0.0104247 0.0380422 0.0355978
   vertex 0.0106893 0.0384989 0.0356489
  endloop
 endfacet
 facet normal 0.46965 -0.175153 -0.865304
  outer loop
   vertex 0.00821262 0.0393591 0.0341305
   vertex 0.00785249 0.0398957 0.0338265
   vertex 0.00848356 0.0400148 0.0341449
  endloop
 endfacet
 facet normal 0.46965 -0.175149 -0.865304
  outer loop
   vertex 0.00913479 0.0387473 0.0347549
   vertex 0.00850654 0.0387831 0.0344067
   vertex 0.00895012 0.0394609 0.0345102
  endloop
 endfacet
 facet normal 0.469646 -0.17515 -0.865306
  outer loop
   vertex 0.00959537 0.0392486 0.0349034
   vertex 0.00913479 0.0387473 0.0347549
   vertex 0.00895012 0.0394609 0.0345102
  endloop
 endfacet
 facet normal 0.469646 -0.175153 -0.865306
  outer loop
   vertex 0.00926647 0.0364863 0.035284
   vertex 0.00963714 0.0369834 0.0353846
   vertex 0.00976005 0.0364834 0.0355525
  endloop
 endfacet
 facet normal 0.469646 -0.17515 -0.865306
  outer loop
   vertex 0.0095159 0.0359759 0.0355227
   vertex 0.00926647 0.0364863 0.035284
   vertex 0.00976005 0.0364834 0.0355525
  endloop
 endfacet
 facet normal 0.469652 -0.17515 -0.865303
  outer loop
   vertex 0.0127771 0.0375802 0.036968
   vertex 0.0132706 0.037324 0.0372877
   vertex 0.0127528 0.0369407 0.0370843
  endloop
 endfacet
 facet normal 0.469645 -0.17515 -0.865307
  outer loop
   vertex 0.0122543 0.0372149 0.0367582
   vertex 0.0127771 0.0375802 0.036968
   vertex 0.0127528 0.0369407 0.0370843
  endloop
 endfacet
 facet normal 0.469647 -0.175146 -0.865306
  outer loop
   vertex 0.0122093 0.0365804 0.0368622
   vertex 0.0122543 0.0372149 0.0367582
   vertex 0.0127528 0.0369407 0.0370843
  endloop
 endfacet
 facet normal 0.46965 -0.175152 -0.865304
  outer loop
   vertex 0.0127342 0.0362933 0.0372052
   vertex 0.0122093 0.0365804 0.0368622
   vertex 0.0127528 0.0369407 0.0370843
  endloop
 endfacet
 facet normal 0.469647 -0.175146 -0.865307
  outer loop
   vertex 0.00871816 0.0381936 0.0346408
   vertex 0.00832362 0.0376673 0.0345332
   vertex 0.00813889 0.0382062 0.0343239
  endloop
 endfacet
 facet normal 0.469647 -0.175151 -0.865306
  outer loop
   vertex 0.00850654 0.0387831 0.0344067
   vertex 0.00871816 0.0381936 0.0346408
   vertex 0.00813889 0.0382062 0.0343239
  endloop
 endfacet
 facet normal 0.469647 -0.175154 -0.865305
  outer loop
   vertex 0.0146182 0.0397187 0.0375344
   vertex 0.0150487 0.0396187 0.0377883
   vertex 0.0146145 0.0392233 0.0376327
  endloop
 endfacet
 facet normal 0.469647 -0.175154 -0.865305
  outer loop
   vertex 0.0140976 0.0394785 0.0373005
   vertex 0.0146182 0.0397187 0.0375344
   vertex 0.0146145 0.0392233 0.0376327
  endloop
 endfacet
 facet normal 0.469646 -0.175153 -0.865306
  outer loop
   vertex 0.00848356 0.0400148 0.0341449
   vertex 0.00912375 0.0402402 0.0344467
   vertex 0.00895012 0.0394609 0.0345102
  endloop
 endfacet
 facet normal 0.469648 -0.175147 -0.865306
  outer loop
   vertex 0.00975952 0.0405178 0.0347356
   vertex 0.0100002 0.0411732 0.0347336
   vertex 0.0103738 0.040732 0.0350257
  endloop
 endfacet
 facet normal 0.469649 -0.175152 -0.865304
  outer loop
   vertex 0.0101749 0.0401221 0.0350411
   vertex 0.00975952 0.0405178 0.0347356
   vertex 0.0103738 0.040732 0.0350257
  endloop
 endfacet
 facet normal 0.469649 -0.175144 -0.865306
  outer loop
   vertex 0.0146599 0.0386371 0.037776
   vertex 0.0141529 0.0388022 0.0374674
   vertex 0.0146145 0.0392233 0.0376327
  endloop
 endfacet
 facet normal 0.469649 -0.175145 -0.865306
  outer loop
   vertex 0.0150984 0.0390551 0.0379294
   vertex 0.0146599 0.0386371 0.037776
   vertex 0.0146145 0.0392233 0.0376327
  endloop
 endfacet
 facet normal 0.469645 -0.175149 -0.865307
  outer loop
   vertex 0.012721 0.0356462 0.037329
   vertex 0.0127342 0.0362933 0.0372052
   vertex 0.013301 0.0360092 0.0375704
  endloop
 endfacet
 facet normal 0.469647 -0.175152 -0.865306
  outer loop
   vertex 0.0132745 0.0353719 0.037685
   vertex 0.012721 0.0356462 0.037329
   vertex 0.013301 0.0360092 0.0375704
  endloop
 endfacet
 facet normal 0.469648 -0.175153 -0.865305
  outer loop
   vertex 0.0140976 0.0394785 0.0373005
   vertex 0.0134622 0.0395066 0.0369499
   vertex 0.0138273 0.040036 0.0370409
  endloop
 endfacet
 facet normal 0.46965 -0.175151 -0.865304
  outer loop
   vertex 0.0143868 0.0401046 0.0373307
   vertex 0.0140976 0.0394785 0.0373005
   vertex 0.0138273 0.040036 0.0370409
  endloop
 endfacet
 facet normal 0.469651 -0.175152 -0.865303
  outer loop
   vertex 0.0121247 0.0352232 0.037091
   vertex 0.0121602 0.0359328 0.0369666
   vertex 0.012721 0.0356462 0.037329
  endloop
 endfacet
 facet normal 0.46965 -0.17515 -0.865304
  outer loop
   vertex 0.0127442 0.0350427 0.0374638
   vertex 0.0121247 0.0352232 0.037091
   vertex 0.012721 0.0356462 0.037329
  endloop
 endfacet
 facet normal 0.469649 -0.17515 -0.865305
  outer loop
   vertex 0.0132503 0.034187 0.0379117
   vertex 0.0126895 0.0338904 0.0376673
   vertex 0.0127554 0.0344809 0.0375835
  endloop
 endfacet
 facet normal 0.469649 -0.175148 -0.865305
  outer loop
   vertex 0.0132497 0.0347894 0.0377894
   vertex 0.0132503 0.034187 0.0379117
   vertex 0.0127554 0.0344809 0.0375835
  endloop
 endfacet
 facet normal 0.469647 -0.175147 -0.865307
  outer loop
   vertex 0.013301 0.0360092 0.0375704
   vertex 0.013284 0.0366756 0.0374262
   vertex 0.0138612 0.0364227 0.0377907
  endloop
 endfacet
 facet normal 0.469648 -0.175148 -0.865306
  outer loop
   vertex 0.0139424 0.0356529 0.0379906
   vertex 0.013301 0.0360092 0.0375704
   vertex 0.0138612 0.0364227 0.0377907
  endloop
 endfacet
 facet normal 0.469648 -0.175148 -0.865306
  outer loop
   vertex 0.0144827 0.0362078 0.0381715
   vertex 0.0139424 0.0356529 0.0379906
   vertex 0.0138612 0.0364227 0.0377907
  endloop
 endfacet
 facet normal 0.469647 -0.175151 -0.865306
  outer loop
   vertex 0.0143587 0.0369062 0.0379629
   vertex 0.0144827 0.0362078 0.0381715
   vertex 0.0138612 0.0364227 0.0377907
  endloop
 endfacet
 facet normal 0.469649 -0.175147 -0.865305
  outer loop
   vertex 0.0127442 0.0350427 0.0374638
   vertex 0.0132497 0.0347894 0.0377894
   vertex 0.0127554 0.0344809 0.0375835
  endloop
 endfacet
 facet normal 0.469651 -0.175147 -0.865304
  outer loop
   vertex 0.0123497 0.0347228 0.0373144
   vertex 0.0127442 0.0350427 0.0374638
   vertex 0.0127554 0.0344809 0.0375835
  endloop
 endfacet
 facet normal 0.469647 -0.175147 -0.865306
  outer loop
   vertex 0.00687331 0.0387098 0.0335351
   vertex 0.00696827 0.0382056 0.0336887
   vertex 0.00649257 0.0383698 0.0333972
  endloop
 endfacet
 facet normal 0.469652 -0.175148 -0.865304
  outer loop
   vertex 0.0105883 0.0349686 0.0363086
   vertex 0.0109446 0.0347248 0.0365514
   vertex 0.0105091 0.0345552 0.0363494
  endloop
 endfacet
 facet normal 0.469646 -0.175147 -0.865307
  outer loop
   vertex 0.0100733 0.03481 0.0360612
   vertex 0.0105883 0.0349686 0.0363086
   vertex 0.0105091 0.0345552 0.0363494
  endloop
 endfacet
 facet normal 0.469645 -0.175147 -0.865308
  outer loop
   vertex 0.0143026 0.0425229 0.0367955
   vertex 0.014353 0.0420576 0.036917
   vertex 0.0139059 0.0421093 0.0366639
  endloop
 endfacet
 facet normal 0.469649 -0.175152 -0.865304
  outer loop
   vertex 0.0137438 0.0427601 0.0364442
   vertex 0.0143026 0.0425229 0.0367955
   vertex 0.0139059 0.0421093 0.0366639
  endloop
 endfacet
 facet normal 0.469647 -0.175152 -0.865306
  outer loop
   vertex 0.0155427 0.0394625 0.038088
   vertex 0.0155689 0.0388683 0.0382225
   vertex 0.0150984 0.0390551 0.0379294
  endloop
 endfacet
 facet normal 0.469647 -0.175152 -0.865305
  outer loop
   vertex 0.0150487 0.0396187 0.0377883
   vertex 0.0155427 0.0394625 0.038088
   vertex 0.0150984 0.0390551 0.0379294
  endloop
 endfacet
 facet normal 0.469651 -0.175148 -0.865304
  outer loop
   vertex 0.00786773 0.0377369 0.0342717
   vertex 0.0075347 0.03811 0.0340154
   vertex 0.00813889 0.0382062 0.0343239
  endloop
 endfacet
 facet normal 0.469647 -0.175146 -0.865307
  outer loop
   vertex 0.00832362 0.0376673 0.0345332
   vertex 0.00786773 0.0377369 0.0342717
   vertex 0.00813889 0.0382062 0.0343239
  endloop
 endfacet
 facet normal 0.469649 -0.175148 -0.865305
  outer loop
   vertex 0.013556 0.0405134 0.036797
   vertex 0.0141271 0.0405892 0.0370917
   vertex 0.0138273 0.040036 0.0370409
  endloop
 endfacet
 facet normal 0.469648 -0.175152 -0.865305
  outer loop
   vertex 0.00821262 0.0393591 0.0341305
   vertex 0.00848356 0.0400148 0.0341449
   vertex 0.00895012 0.0394609 0.0345102
  endloop
 endfacet
 facet normal 0.469647 -0.175147 -0.865306
  outer loop
   vertex 0.00850654 0.0387831 0.0344067
   vertex 0.00821262 0.0393591 0.0341305
   vertex 0.00895012 0.0394609 0.0345102
  endloop
 endfacet
 facet normal 0.469644 -0.17515 -0.865307
  outer loop
   vertex 0.0139059 0.0421093 0.0366639
   vertex 0.014353 0.0420576 0.036917
   vertex 0.0141438 0.0416222 0.0368916
  endloop
 endfacet
 facet normal 0.469647 -0.175149 -0.865306
  outer loop
   vertex 0.0135784 0.041576 0.0365941
   vertex 0.0139059 0.0421093 0.0366639
   vertex 0.0141438 0.0416222 0.0368916
  endloop
 endfacet
 facet normal 0.469648 -0.175149 -0.865306
  outer loop
   vertex 0.0133407 0.040013 0.0367815
   vertex 0.0129425 0.040353 0.0364965
   vertex 0.013556 0.0405134 0.036797
  endloop
 endfacet
 facet normal 0.469648 -0.175148 -0.865306
  outer loop
   vertex 0.0138273 0.040036 0.0370409
   vertex 0.0133407 0.040013 0.0367815
   vertex 0.013556 0.0405134 0.036797
  endloop
 endfacet
 facet normal 0.469653 -0.175148 -0.865303
  outer loop
   vertex 0.00978124 0.0429903 0.0342469
   vertex 0.00985207 0.0437228 0.0341371
   vertex 0.0102399 0.0434115 0.0344106
  endloop
 endfacet
 facet normal 0.469653 -0.175148 -0.865303
  outer loop
   vertex 0.0104005 0.0429263 0.034596
   vertex 0.00978124 0.0429903 0.0342469
   vertex 0.0102399 0.0434115 0.0344106
  endloop
 endfacet
 facet normal 0.469645 -0.175145 -0.865308
  outer loop
   vertex 0.0110316 0.0386415 0.0358058
   vertex 0.0113955 0.0384366 0.0360448
   vertex 0.0109298 0.0381452 0.035851
  endloop
 endfacet
 facet normal 0.469649 -0.175146 -0.865305
  outer loop
   vertex 0.0106893 0.0384989 0.0356489
   vertex 0.0110316 0.0386415 0.0358058
   vertex 0.0109298 0.0381452 0.035851
  endloop
 endfacet
 facet normal 0.469648 -0.175147 -0.865306
  outer loop
   vertex 0.0109734 0.0359968 0.0363095
   vertex 0.0112679 0.0365856 0.0363502
   vertex 0.0116438 0.0362582 0.0366205
  endloop
 endfacet
 facet normal 0.469647 -0.175148 -0.865306
  outer loop
   vertex 0.00652263 0.0377076 0.0335476
   vertex 0.00649257 0.0383698 0.0333972
   vertex 0.00696827 0.0382056 0.0336887
  endloop
 endfacet
 facet normal 0.469649 -0.175149 -0.865305
  outer loop
   vertex 0.0070617 0.0376146 0.033859
   vertex 0.00652263 0.0377076 0.0335476
   vertex 0.00696827 0.0382056 0.0336887
  endloop
 endfacet
 facet normal 0.469646 -0.175149 -0.865306
  outer loop
   vertex 0.00809007 0.0405113 0.0338308
   vertex 0.00867877 0.0406691 0.0341184
   vertex 0.00848356 0.0400148 0.0341449
  endloop
 endfacet
 facet normal 0.469649 -0.175146 -0.865305
  outer loop
   vertex 0.00785249 0.0398957 0.0338265
   vertex 0.00809007 0.0405113 0.0338308
   vertex 0.00848356 0.0400148 0.0341449
  endloop
 endfacet
 facet normal 0.469647 -0.175146 -0.865307
  outer loop
   vertex 0.0138479 0.0410774 0.0368413
   vertex 0.0132648 0.0409999 0.0365405
   vertex 0.0135784 0.041576 0.0365941
  endloop
 endfacet
 facet normal 0.469647 -0.175146 -0.865307
  outer loop
   vertex 0.0141438 0.0416222 0.0368916
   vertex 0.0138479 0.0410774 0.0368413
   vertex 0.0135784 0.041576 0.0365941
  endloop
 endfacet
 facet normal 0.469647 -0.175148 -0.865306
  outer loop
   vertex 0.0115581 0.0356152 0.0367041
   vertex 0.0109908 0.0352926 0.0364615
   vertex 0.0109734 0.0359968 0.0363095
  endloop
 endfacet
 facet normal 0.469648 -0.175147 -0.865306
  outer loop
   vertex 0.0116438 0.0362582 0.0366205
   vertex 0.0115581 0.0356152 0.0367041
   vertex 0.0109734 0.0359968 0.0363095
  endloop
 endfacet
 facet normal 0.469649 -0.175154 -0.865304
  outer loop
   vertex 0.0143868 0.0401046 0.0373307
   vertex 0.0147121 0.0406334 0.0374002
   vertex 0.0149252 0.0401305 0.0376177
  endloop
 endfacet
 facet normal 0.469649 -0.175146 -0.865305
  outer loop
   vertex 0.0146182 0.0397187 0.0375344
   vertex 0.0143868 0.0401046 0.0373307
   vertex 0.0149252 0.0401305 0.0376177
  endloop
 endfacet
 facet normal 0.469648 -0.175148 -0.865306
  outer loop
   vertex 0.0132648 0.0409999 0.0365405
   vertex 0.013556 0.0405134 0.036797
   vertex 0.0129425 0.040353 0.0364965
  endloop
 endfacet
 facet normal 0.46965 -0.17515 -0.865304
  outer loop
   vertex 0.012693 0.0409353 0.0362432
   vertex 0.0132648 0.0409999 0.0365405
   vertex 0.0129425 0.040353 0.0364965
  endloop
 endfacet
 facet normal 0.469647 -0.175148 -0.865307
  outer loop
   vertex 0.00856771 0.0354153 0.0351216
   vertex 0.00824969 0.0349814 0.0350368
   vertex 0.00799412 0.0354122 0.0348109
  endloop
 endfacet
 facet normal 0.469646 -0.17515 -0.865306
  outer loop
   vertex 0.00832601 0.0359573 0.0348807
   vertex 0.00856771 0.0354153 0.0351216
   vertex 0.00799412 0.0354122 0.0348109
  endloop
 endfacet
 facet normal 0.469647 -0.175149 -0.865306
  outer loop
   vertex 0.0075347 0.03811 0.0340154
   vertex 0.00696827 0.0382056 0.0336887
   vertex 0.00731872 0.038714 0.0337759
  endloop
 endfacet
 facet normal 0.469647 -0.175149 -0.865306
  outer loop
   vertex 0.00788502 0.0387438 0.0340773
   vertex 0.0075347 0.03811 0.0340154
   vertex 0.00731872 0.038714 0.0337759
  endloop
 endfacet
 facet normal 0.46965 -0.175151 -0.865304
  outer loop
   vertex 0.00959986 0.0398625 0.0347816
   vertex 0.00975952 0.0405178 0.0347356
   vertex 0.0101749 0.0401221 0.0350411
  endloop
 endfacet
 facet normal 0.469649 -0.175147 -0.865305
  outer loop
   vertex 0.0100093 0.0396147 0.035054
   vertex 0.00959986 0.0398625 0.0347816
   vertex 0.0101749 0.0401221 0.0350411
  endloop
 endfacet
endsolid
