solid ascii
 facet normal -0.0579708 0.100695 -0.993227
  outer loop
   vertex 0.0274908 0.0706542 0.020142
   vertex 0.0280736 0.0701975 0.0200617
   vertex 0.0273999 0.0697926 0.02006
  endloop
 endfacet
 facet normal -0.0579736 0.100695 -0.993227
  outer loop
   vertex 0.0274908 0.0706542 0.020142
   vertex 0.0273999 0.0697926 0.02006
   vertex 0.0267931 0.0703691 0.0201539
  endloop
 endfacet
 facet normal -0.057973 0.100694 -0.993227
  outer loop
   vertex 0.0291565 0.0706463 0.020044
   vertex 0.0291105 0.0701256 0.0199939
   vertex 0.028646 0.0704739 0.0200563
  endloop
 endfacet
 facet normal -0.0579723 0.100695 -0.993227
  outer loop
   vertex 0.0263373 0.0714633 0.0202914
   vertex 0.0269388 0.071831 0.0202936
   vertex 0.0269043 0.0711066 0.0202221
  endloop
 endfacet
 facet normal -0.0579751 0.100699 -0.993226
  outer loop
   vertex 0.0269032 0.0725198 0.0203655
   vertex 0.0274648 0.0729778 0.0203791
   vertex 0.0275322 0.0722957 0.020306
  endloop
 endfacet
 facet normal -0.0579726 0.100696 -0.993227
  outer loop
   vertex 0.0263373 0.0714633 0.0202914
   vertex 0.0263412 0.0721093 0.0203567
   vertex 0.0269388 0.071831 0.0202936
  endloop
 endfacet
 facet normal -0.057972 0.100699 -0.993227
  outer loop
   vertex 0.0276662 0.0715101 0.0202186
   vertex 0.0281743 0.0709228 0.0201294
   vertex 0.0274908 0.0706542 0.020142
  endloop
 endfacet
 facet normal -0.0579721 0.100697 -0.993227
  outer loop
   vertex 0.0281364 0.0694678 0.0199841
   vertex 0.0273999 0.0697926 0.02006
   vertex 0.0280736 0.0701975 0.0200617
  endloop
 endfacet
 facet normal -0.0579743 0.100697 -0.993227
  outer loop
   vertex 0.0286295 0.069836 0.0199926
   vertex 0.0281364 0.0694678 0.0199841
   vertex 0.0280736 0.0701975 0.0200617
  endloop
 endfacet
 facet normal -0.0579713 0.100694 -0.993227
  outer loop
   vertex 0.0274648 0.0729778 0.0203791
   vertex 0.0269032 0.0725198 0.0203655
   vertex 0.0268509 0.0731703 0.0204345
  endloop
 endfacet
 facet normal -0.0579733 0.100696 -0.993227
  outer loop
   vertex 0.0281743 0.0709228 0.0201294
   vertex 0.028646 0.0704739 0.0200563
   vertex 0.0280736 0.0701975 0.0200617
  endloop
 endfacet
 facet normal -0.0579707 0.100695 -0.993227
  outer loop
   vertex 0.0274908 0.0706542 0.020142
   vertex 0.0281743 0.0709228 0.0201294
   vertex 0.0280736 0.0701975 0.0200617
  endloop
 endfacet
 facet normal -0.0579714 0.100699 -0.993227
  outer loop
   vertex 0.0269388 0.071831 0.0202936
   vertex 0.0263412 0.0721093 0.0203567
   vertex 0.0269032 0.0725198 0.0203655
  endloop
 endfacet
 facet normal -0.05797 0.100698 -0.993227
  outer loop
   vertex 0.027373 0.0735922 0.0204468
   vertex 0.0274648 0.0729778 0.0203791
   vertex 0.0268509 0.0731703 0.0204345
  endloop
 endfacet
 facet normal -0.0579739 0.100696 -0.993227
  outer loop
   vertex 0.0274908 0.0706542 0.020142
   vertex 0.0267931 0.0703691 0.0201539
   vertex 0.0269043 0.0711066 0.0202221
  endloop
 endfacet
 facet normal -0.0579713 0.100697 -0.993227
  outer loop
   vertex 0.026247 0.0708186 0.0202313
   vertex 0.0263373 0.0714633 0.0202914
   vertex 0.0269043 0.0711066 0.0202221
  endloop
 endfacet
 facet normal -0.0579722 0.100698 -0.993227
  outer loop
   vertex 0.0266648 0.0669286 0.0198125
   vertex 0.0264985 0.0673512 0.0198651
   vertex 0.0271305 0.0671714 0.01981
  endloop
 endfacet
 facet normal -0.0579736 0.100697 -0.993227
  outer loop
   vertex 0.0270458 0.0691001 0.0200104
   vertex 0.0273999 0.0697926 0.02006
   vertex 0.0276809 0.0690018 0.0199634
  endloop
 endfacet
 facet normal -0.0579707 0.100696 -0.993227
  outer loop
   vertex 0.026247 0.0708186 0.0202313
   vertex 0.0269043 0.0711066 0.0202221
   vertex 0.0267931 0.0703691 0.0201539
  endloop
 endfacet
 facet normal -0.0579731 0.100695 -0.993227
  outer loop
   vertex 0.0263728 0.0746581 0.0206132
   vertex 0.0268552 0.0744564 0.0205646
   vertex 0.0261734 0.0741066 0.0205689
  endloop
 endfacet
 facet normal -0.0579712 0.100695 -0.993227
  outer loop
   vertex 0.0267931 0.0703691 0.0201539
   vertex 0.0261261 0.0701375 0.0201693
   vertex 0.026247 0.0708186 0.0202313
  endloop
 endfacet
 facet normal -0.0579726 0.100696 -0.993227
  outer loop
   vertex 0.0263373 0.0714633 0.0202914
   vertex 0.0258077 0.0717423 0.0203506
   vertex 0.0263412 0.0721093 0.0203567
  endloop
 endfacet
 facet normal -0.0579708 0.100696 -0.993227
  outer loop
   vertex 0.02138 0.071193 0.0205533
   vertex 0.0208095 0.0708071 0.0205475
   vertex 0.0208556 0.0713279 0.0205976
  endloop
 endfacet
 facet normal -0.0579751 0.100697 -0.993227
  outer loop
   vertex 0.022474 0.0702561 0.0203945
   vertex 0.0222843 0.0695917 0.0203382
   vertex 0.021837 0.0700531 0.0204111
  endloop
 endfacet
 facet normal -0.0579736 0.100693 -0.993227
  outer loop
   vertex 0.021837 0.0700531 0.0204111
   vertex 0.0219609 0.0707069 0.0204701
   vertex 0.022474 0.0702561 0.0203945
  endloop
 endfacet
 facet normal -0.0579722 0.100693 -0.993227
  outer loop
   vertex 0.0273081 0.0741959 0.0205118
   vertex 0.026802 0.0738157 0.0205028
   vertex 0.0268552 0.0744564 0.0205646
  endloop
 endfacet
 facet normal -0.0579724 0.100693 -0.993227
  outer loop
   vertex 0.0268552 0.0744564 0.0205646
   vertex 0.026802 0.0738157 0.0205028
   vertex 0.0261734 0.0741066 0.0205689
  endloop
 endfacet
 facet normal -0.0579715 0.100697 -0.993227
  outer loop
   vertex 0.0210639 0.0692701 0.0203768
   vertex 0.0216333 0.0694116 0.0203579
   vertex 0.0212751 0.0687932 0.0203162
  endloop
 endfacet
 facet normal -0.0579703 0.100699 -0.993227
  outer loop
   vertex 0.0268509 0.0731703 0.0204345
   vertex 0.026802 0.0738157 0.0205028
   vertex 0.027373 0.0735922 0.0204468
  endloop
 endfacet
 facet normal -0.0579738 0.100698 -0.993227
  outer loop
   vertex 0.026802 0.0738157 0.0205028
   vertex 0.0268509 0.0731703 0.0204345
   vertex 0.0262648 0.0733755 0.0204895
  endloop
 endfacet
 facet normal -0.0579715 0.100695 -0.993227
  outer loop
   vertex 0.0261734 0.0741066 0.0205689
   vertex 0.026802 0.0738157 0.0205028
   vertex 0.0262648 0.0733755 0.0204895
  endloop
 endfacet
 facet normal -0.0579733 0.100699 -0.993226
  outer loop
   vertex 0.021837 0.0700531 0.0204111
   vertex 0.0222843 0.0695917 0.0203382
   vertex 0.0216333 0.0694116 0.0203579
  endloop
 endfacet
 facet normal -0.0579726 0.100697 -0.993227
  outer loop
   vertex 0.0265118 0.0691364 0.0200453
   vertex 0.0270458 0.0691001 0.0200104
   vertex 0.0266952 0.0685605 0.0199762
  endloop
 endfacet
 facet normal -0.0579717 0.100696 -0.993227
  outer loop
   vertex 0.0284561 0.0715931 0.0201809
   vertex 0.0287674 0.071083 0.020111
   vertex 0.0281743 0.0709228 0.0201294
  endloop
 endfacet
 facet normal -0.0579725 0.100697 -0.993227
  outer loop
   vertex 0.0263268 0.072748 0.0204223
   vertex 0.0258359 0.0729423 0.0204706
   vertex 0.0262648 0.0733755 0.0204895
  endloop
 endfacet
 facet normal -0.0579688 0.100692 -0.993227
  outer loop
   vertex 0.0219609 0.0707069 0.0204701
   vertex 0.021837 0.0700531 0.0204111
   vertex 0.0213509 0.0704849 0.0204832
  endloop
 endfacet
 facet normal -0.0579753 0.1007 -0.993226
  outer loop
   vertex 0.0208095 0.0708071 0.0205475
   vertex 0.0213509 0.0704849 0.0204832
   vertex 0.0208293 0.0702851 0.0204934
  endloop
 endfacet
 facet normal -0.0579714 0.100695 -0.993227
  outer loop
   vertex 0.0242381 0.0691613 0.0201805
   vertex 0.0236967 0.0694734 0.0202438
   vertex 0.0242757 0.0698242 0.0202455
  endloop
 endfacet
 facet normal -0.0579706 0.100697 -0.993227
  outer loop
   vertex 0.0263412 0.0721093 0.0203567
   vertex 0.0263268 0.072748 0.0204223
   vertex 0.0269032 0.0725198 0.0203655
  endloop
 endfacet
 facet normal -0.0579715 0.100698 -0.993227
  outer loop
   vertex 0.0252513 0.0719867 0.0204078
   vertex 0.0257895 0.0723773 0.020416
   vertex 0.0258077 0.0717423 0.0203506
  endloop
 endfacet
 facet normal -0.057974 0.100698 -0.993227
  outer loop
   vertex 0.0258077 0.0717423 0.0203506
   vertex 0.0257895 0.0723773 0.020416
   vertex 0.0263412 0.0721093 0.0203567
  endloop
 endfacet
 facet normal -0.0579697 0.100698 -0.993227
  outer loop
   vertex 0.0237569 0.0688349 0.0201755
   vertex 0.0236967 0.0694734 0.0202438
   vertex 0.0242381 0.0691613 0.0201805
  endloop
 endfacet
 facet normal -0.0579706 0.100697 -0.993227
  outer loop
   vertex 0.0236827 0.0719705 0.0204978
   vertex 0.0237265 0.072555 0.0205545
   vertex 0.0241388 0.072241 0.0204986
  endloop
 endfacet
 facet normal -0.0579725 0.100696 -0.993227
  outer loop
   vertex 0.0291368 0.0711683 0.0200981
   vertex 0.0287674 0.071083 0.020111
   vertex 0.0290516 0.0716834 0.0201553
  endloop
 endfacet
 facet normal -0.0579743 0.100701 -0.993226
  outer loop
   vertex 0.0213509 0.0704849 0.0204832
   vertex 0.0208095 0.0708071 0.0205475
   vertex 0.02138 0.071193 0.0205533
  endloop
 endfacet
 facet normal -0.0579723 0.100701 -0.993226
  outer loop
   vertex 0.0219609 0.0707069 0.0204701
   vertex 0.0213509 0.0704849 0.0204832
   vertex 0.02138 0.071193 0.0205533
  endloop
 endfacet
 facet normal -0.0579743 0.100697 -0.993227
  outer loop
   vertex 0.0263268 0.072748 0.0204223
   vertex 0.0263412 0.0721093 0.0203567
   vertex 0.0257895 0.0723773 0.020416
  endloop
 endfacet
 facet normal -0.0579731 0.100696 -0.993227
  outer loop
   vertex 0.0258359 0.0729423 0.0204706
   vertex 0.0263268 0.072748 0.0204223
   vertex 0.0257895 0.0723773 0.020416
  endloop
 endfacet
 facet normal -0.0579688 0.100695 -0.993227
  outer loop
   vertex 0.0251965 0.0727412 0.0204875
   vertex 0.0258359 0.0729423 0.0204706
   vertex 0.0257895 0.0723773 0.020416
  endloop
 endfacet
 facet normal -0.057971 0.100698 -0.993227
  outer loop
   vertex 0.0230209 0.0697525 0.0203115
   vertex 0.022474 0.0702561 0.0203945
   vertex 0.0231142 0.0705115 0.020383
  endloop
 endfacet
 facet normal -0.057972 0.100697 -0.993227
  outer loop
   vertex 0.028646 0.0704739 0.0200563
   vertex 0.0281743 0.0709228 0.0201294
   vertex 0.0287674 0.071083 0.020111
  endloop
 endfacet
 facet normal -0.057972 0.100694 -0.993227
  outer loop
   vertex 0.0268509 0.0731703 0.0204345
   vertex 0.0269032 0.0725198 0.0203655
   vertex 0.0263268 0.072748 0.0204223
  endloop
 endfacet
 facet normal -0.0579744 0.100697 -0.993227
  outer loop
   vertex 0.0262648 0.0733755 0.0204895
   vertex 0.0268509 0.0731703 0.0204345
   vertex 0.0263268 0.072748 0.0204223
  endloop
 endfacet
 facet normal -0.0579725 0.100695 -0.993227
  outer loop
   vertex 0.0216684 0.0732369 0.0207437
   vertex 0.0220127 0.0736329 0.0207638
   vertex 0.0223082 0.0731334 0.0206959
  endloop
 endfacet
 facet normal -0.0579752 0.100698 -0.993226
  outer loop
   vertex 0.0269388 0.071831 0.0202936
   vertex 0.0269032 0.0725198 0.0203655
   vertex 0.0275322 0.0722957 0.020306
  endloop
 endfacet
 facet normal -0.0579749 0.100697 -0.993227
  outer loop
   vertex 0.0261267 0.0688242 0.0200361
   vertex 0.0265118 0.0691364 0.0200453
   vertex 0.0266952 0.0685605 0.0199762
  endloop
 endfacet
 facet normal -0.0579721 0.100697 -0.993227
  outer loop
   vertex 0.0252513 0.0719867 0.0204078
   vertex 0.0258077 0.0717423 0.0203506
   vertex 0.0253275 0.0713357 0.0203374
  endloop
 endfacet
 facet normal -0.0579722 0.100697 -0.993227
  outer loop
   vertex 0.0248144 0.0742921 0.0206671
   vertex 0.024826 0.0748834 0.0207263
   vertex 0.0253501 0.0748733 0.0206947
  endloop
 endfacet
 facet normal -0.0579718 0.100696 -0.993227
  outer loop
   vertex 0.0290516 0.0716834 0.0201553
   vertex 0.0287674 0.071083 0.020111
   vertex 0.0284561 0.0715931 0.0201809
  endloop
 endfacet
 facet normal -0.0579716 0.100692 -0.993227
  outer loop
   vertex 0.0226 0.070918 0.0204543
   vertex 0.0231933 0.0711453 0.0204427
   vertex 0.0231142 0.0705115 0.020383
  endloop
 endfacet
 facet normal -0.0579713 0.100693 -0.993227
  outer loop
   vertex 0.0275322 0.0722957 0.020306
   vertex 0.0276662 0.0715101 0.0202186
   vertex 0.0269388 0.071831 0.0202936
  endloop
 endfacet
 facet normal -0.0579722 0.100695 -0.993227
  outer loop
   vertex 0.0222843 0.0695917 0.0203382
   vertex 0.0220416 0.0688797 0.0202802
   vertex 0.0216333 0.0694116 0.0203579
  endloop
 endfacet
 facet normal -0.057974 0.100697 -0.993227
  outer loop
   vertex 0.0248777 0.0701887 0.0202474
   vertex 0.0255279 0.0706335 0.0202545
   vertex 0.0255079 0.0698264 0.0201738
  endloop
 endfacet
 facet normal -0.0579711 0.100694 -0.993227
  outer loop
   vertex 0.0213765 0.0728012 0.0207166
   vertex 0.0217899 0.072391 0.0206509
   vertex 0.0211413 0.0723328 0.0206828
  endloop
 endfacet
 facet normal -0.0579717 0.1007 -0.993226
  outer loop
   vertex 0.0223082 0.0731334 0.0206959
   vertex 0.0219118 0.0728265 0.0206879
   vertex 0.0216684 0.0732369 0.0207437
  endloop
 endfacet
 facet normal -0.0579718 0.100697 -0.993227
  outer loop
   vertex 0.0255279 0.0706335 0.0202545
   vertex 0.0253275 0.0713357 0.0203374
   vertex 0.0258442 0.0711973 0.0202932
  endloop
 endfacet
 facet normal -0.0579735 0.100697 -0.993227
  outer loop
   vertex 0.0226869 0.0685993 0.0202141
   vertex 0.022184 0.0682133 0.0202043
   vertex 0.0220416 0.0688797 0.0202802
  endloop
 endfacet
 facet normal -0.0579695 0.100697 -0.993227
  outer loop
   vertex 0.0235006 0.0672835 0.0200332
   vertex 0.023679 0.0677598 0.0200711
   vertex 0.0239508 0.0672486 0.0200034
  endloop
 endfacet
 facet normal -0.0579708 0.100697 -0.993227
  outer loop
   vertex 0.0240977 0.0666556 0.0199347
   vertex 0.0235933 0.0667953 0.0199783
   vertex 0.0239508 0.0672486 0.0200034
  endloop
 endfacet
 facet normal -0.0579741 0.100697 -0.993227
  outer loop
   vertex 0.0284561 0.0715931 0.0201809
   vertex 0.0281743 0.0709228 0.0201294
   vertex 0.0276662 0.0715101 0.0202186
  endloop
 endfacet
 facet normal -0.0579732 0.100695 -0.993227
  outer loop
   vertex 0.0230209 0.0697525 0.0203115
   vertex 0.0236967 0.0694734 0.0202438
   vertex 0.0231907 0.0690322 0.0202286
  endloop
 endfacet
 facet normal -0.0579723 0.100697 -0.993227
  outer loop
   vertex 0.0222843 0.0695917 0.0203382
   vertex 0.0230209 0.0697525 0.0203115
   vertex 0.0226501 0.0691764 0.0202747
  endloop
 endfacet
 facet normal -0.0579757 0.100695 -0.993227
  outer loop
   vertex 0.0251401 0.0665701 0.0198652
   vertex 0.024616 0.0665802 0.0198968
   vertex 0.0245938 0.0671631 0.0199572
  endloop
 endfacet
 facet normal -0.0579718 0.100698 -0.993227
  outer loop
   vertex 0.0276809 0.0690018 0.0199634
   vertex 0.0273999 0.0697926 0.02006
   vertex 0.0281364 0.0694678 0.0199841
  endloop
 endfacet
 facet normal -0.0579757 0.100697 -0.993226
  outer loop
   vertex 0.0237147 0.0714207 0.0204402
   vertex 0.0241966 0.0717574 0.0204461
   vertex 0.0242396 0.0711653 0.0203836
  endloop
 endfacet
 facet normal -0.0579704 0.100695 -0.993227
  outer loop
   vertex 0.0269043 0.0711066 0.0202221
   vertex 0.0269388 0.071831 0.0202936
   vertex 0.0276662 0.0715101 0.0202186
  endloop
 endfacet
 facet normal -0.0579721 0.100699 -0.993227
  outer loop
   vertex 0.0274908 0.0706542 0.020142
   vertex 0.0269043 0.0711066 0.0202221
   vertex 0.0276662 0.0715101 0.0202186
  endloop
 endfacet
 facet normal -0.0579708 0.100696 -0.993227
  outer loop
   vertex 0.0212751 0.0687932 0.0203162
   vertex 0.0216333 0.0694116 0.0203579
   vertex 0.0220416 0.0688797 0.0202802
  endloop
 endfacet
 facet normal -0.0579707 0.100695 -0.993227
  outer loop
   vertex 0.0215448 0.0683467 0.0202552
   vertex 0.0212751 0.0687932 0.0203162
   vertex 0.0220416 0.0688797 0.0202802
  endloop
 endfacet
 facet normal -0.0579715 0.100695 -0.993227
  outer loop
   vertex 0.022474 0.0702561 0.0203945
   vertex 0.0219609 0.0707069 0.0204701
   vertex 0.0226 0.070918 0.0204543
  endloop
 endfacet
 facet normal -0.0579697 0.100695 -0.993227
  outer loop
   vertex 0.0231142 0.0705115 0.020383
   vertex 0.022474 0.0702561 0.0203945
   vertex 0.0226 0.070918 0.0204543
  endloop
 endfacet
 facet normal -0.0579747 0.100696 -0.993227
  outer loop
   vertex 0.0261727 0.0667457 0.0198227
   vertex 0.0256617 0.0666255 0.0198404
   vertex 0.0258936 0.0673439 0.0198997
  endloop
 endfacet
 facet normal -0.0579717 0.100695 -0.993227
  outer loop
   vertex 0.0290516 0.0716834 0.0201553
   vertex 0.0284561 0.0715931 0.0201809
   vertex 0.0289022 0.0721833 0.0202147
  endloop
 endfacet
 facet normal -0.0579723 0.100696 -0.993227
  outer loop
   vertex 0.022474 0.0702561 0.0203945
   vertex 0.0230209 0.0697525 0.0203115
   vertex 0.0222843 0.0695917 0.0203382
  endloop
 endfacet
 facet normal -0.0579761 0.100696 -0.993227
  outer loop
   vertex 0.0263728 0.0746581 0.0206132
   vertex 0.0261734 0.0741066 0.0205689
   vertex 0.0258684 0.0747978 0.0206568
  endloop
 endfacet
 facet normal -0.0579717 0.100696 -0.993227
  outer loop
   vertex 0.0223082 0.0731334 0.0206959
   vertex 0.0230948 0.0729775 0.0206342
   vertex 0.0224061 0.0725791 0.020634
  endloop
 endfacet
 facet normal -0.0579726 0.100695 -0.993227
  outer loop
   vertex 0.0245938 0.0671631 0.0199572
   vertex 0.024616 0.0665802 0.0198968
   vertex 0.0240977 0.0666556 0.0199347
  endloop
 endfacet
 facet normal -0.0579741 0.100696 -0.993227
  outer loop
   vertex 0.0239508 0.0672486 0.0200034
   vertex 0.0245938 0.0671631 0.0199572
   vertex 0.0240977 0.0666556 0.0199347
  endloop
 endfacet
 facet normal -0.0579696 0.100696 -0.993227
  outer loop
   vertex 0.0289993 0.0696144 0.0199486
   vertex 0.0286295 0.069836 0.0199926
   vertex 0.0291105 0.0701256 0.0199939
  endloop
 endfacet
 facet normal -0.0579744 0.100699 -0.993226
  outer loop
   vertex 0.02138 0.071193 0.0205533
   vertex 0.0220982 0.0713605 0.0205284
   vertex 0.0219609 0.0707069 0.0204701
  endloop
 endfacet
 facet normal -0.0579725 0.100698 -0.993227
  outer loop
   vertex 0.0219609 0.0707069 0.0204701
   vertex 0.0220982 0.0713605 0.0205284
   vertex 0.0226 0.070918 0.0204543
  endloop
 endfacet
 facet normal -0.0579688 0.100698 -0.993227
  outer loop
   vertex 0.0232754 0.0716525 0.0204893
   vertex 0.0237147 0.0714207 0.0204402
   vertex 0.0231933 0.0711453 0.0204427
  endloop
 endfacet
 facet normal -0.0579722 0.100697 -0.993227
  outer loop
   vertex 0.0248144 0.0742921 0.0206671
   vertex 0.0254395 0.0741728 0.0206185
   vertex 0.0248067 0.0734993 0.0205871
  endloop
 endfacet
 facet normal -0.0579722 0.100696 -0.993227
  outer loop
   vertex 0.0236967 0.0694734 0.0202438
   vertex 0.0236802 0.0701564 0.020314
   vertex 0.0242757 0.0698242 0.0202455
  endloop
 endfacet
 facet normal -0.0579744 0.1007 -0.993226
  outer loop
   vertex 0.0226 0.070918 0.0204543
   vertex 0.0227481 0.071538 0.0205085
   vertex 0.0231933 0.0711453 0.0204427
  endloop
 endfacet
 facet normal -0.0579748 0.100699 -0.993226
  outer loop
   vertex 0.0231933 0.0711453 0.0204427
   vertex 0.0227481 0.071538 0.0205085
   vertex 0.0232754 0.0716525 0.0204893
  endloop
 endfacet
 facet normal -0.0579739 0.100696 -0.993227
  outer loop
   vertex 0.02138 0.071193 0.0205533
   vertex 0.0216105 0.0718462 0.0206061
   vertex 0.0220982 0.0713605 0.0205284
  endloop
 endfacet
 facet normal -0.0579734 0.100697 -0.993227
  outer loop
   vertex 0.023033 0.0721787 0.0205568
   vertex 0.0237265 0.072555 0.0205545
   vertex 0.0236827 0.0719705 0.0204978
  endloop
 endfacet
 facet normal -0.0579734 0.100697 -0.993227
  outer loop
   vertex 0.0232754 0.0716525 0.0204893
   vertex 0.023033 0.0721787 0.0205568
   vertex 0.0236827 0.0719705 0.0204978
  endloop
 endfacet
 facet normal -0.0579732 0.100697 -0.993227
  outer loop
   vertex 0.0258684 0.0747978 0.0206568
   vertex 0.0261734 0.0741066 0.0205689
   vertex 0.0254395 0.0741728 0.0206185
  endloop
 endfacet
 facet normal -0.0579691 0.100695 -0.993227
  outer loop
   vertex 0.0251965 0.0727412 0.0204875
   vertex 0.0257895 0.0723773 0.020416
   vertex 0.0252513 0.0719867 0.0204078
  endloop
 endfacet
 facet normal -0.0579743 0.100694 -0.993227
  outer loop
   vertex 0.0246581 0.0721716 0.0204612
   vertex 0.0251965 0.0727412 0.0204875
   vertex 0.0252513 0.0719867 0.0204078
  endloop
 endfacet
 facet normal -0.0579711 0.100694 -0.993227
  outer loop
   vertex 0.0237147 0.0714207 0.0204402
   vertex 0.0232754 0.0716525 0.0204893
   vertex 0.0236827 0.0719705 0.0204978
  endloop
 endfacet
 facet normal -0.0579732 0.100694 -0.993227
  outer loop
   vertex 0.0241966 0.0717574 0.0204461
   vertex 0.0237147 0.0714207 0.0204402
   vertex 0.0236827 0.0719705 0.0204978
  endloop
 endfacet
 facet normal -0.0579717 0.100694 -0.993227
  outer loop
   vertex 0.0228356 0.0742821 0.0207816
   vertex 0.0233012 0.0745249 0.020779
   vertex 0.023072 0.07403 0.0207422
  endloop
 endfacet
 facet normal -0.0579726 0.100699 -0.993226
  outer loop
   vertex 0.0213765 0.0728012 0.0207166
   vertex 0.0216684 0.0732369 0.0207437
   vertex 0.0219118 0.0728265 0.0206879
  endloop
 endfacet
 facet normal -0.0579724 0.100693 -0.993227
  outer loop
   vertex 0.0217899 0.072391 0.0206509
   vertex 0.0213765 0.0728012 0.0207166
   vertex 0.0219118 0.0728265 0.0206879
  endloop
 endfacet
 facet normal -0.057972 0.100699 -0.993227
  outer loop
   vertex 0.0226 0.070918 0.0204543
   vertex 0.0220982 0.0713605 0.0205284
   vertex 0.0227481 0.071538 0.0205085
  endloop
 endfacet
 facet normal -0.0579736 0.100696 -0.993227
  outer loop
   vertex 0.0288247 0.0691206 0.0199087
   vertex 0.0281364 0.0694678 0.0199841
   vertex 0.0286295 0.069836 0.0199926
  endloop
 endfacet
 facet normal -0.0579682 0.100698 -0.993227
  outer loop
   vertex 0.0289993 0.0696144 0.0199486
   vertex 0.0288247 0.0691206 0.0199087
   vertex 0.0286295 0.069836 0.0199926
  endloop
 endfacet
 facet normal -0.0579723 0.100697 -0.993227
  outer loop
   vertex 0.0253501 0.0748733 0.0206947
   vertex 0.0258684 0.0747978 0.0206568
   vertex 0.0254395 0.0741728 0.0206185
  endloop
 endfacet
 facet normal -0.0579722 0.100697 -0.993227
  outer loop
   vertex 0.0248144 0.0742921 0.0206671
   vertex 0.0253501 0.0748733 0.0206947
   vertex 0.0254395 0.0741728 0.0206185
  endloop
 endfacet
 facet normal -0.0579731 0.100695 -0.993227
  outer loop
   vertex 0.0237934 0.0747078 0.0207688
   vertex 0.0243043 0.0748279 0.0207512
   vertex 0.0242671 0.0744639 0.0207164
  endloop
 endfacet
 facet normal -0.0579741 0.100697 -0.993227
  outer loop
   vertex 0.0286295 0.069836 0.0199926
   vertex 0.0280736 0.0701975 0.0200617
   vertex 0.028646 0.0704739 0.0200563
  endloop
 endfacet
 facet normal -0.0579707 0.100697 -0.993227
  outer loop
   vertex 0.0291105 0.0701256 0.0199939
   vertex 0.0286295 0.069836 0.0199926
   vertex 0.028646 0.0704739 0.0200563
  endloop
 endfacet
 facet normal -0.0579728 0.100696 -0.993227
  outer loop
   vertex 0.0236802 0.0701564 0.020314
   vertex 0.0236967 0.0694734 0.0202438
   vertex 0.0230209 0.0697525 0.0203115
  endloop
 endfacet
 facet normal -0.057974 0.100698 -0.993227
  outer loop
   vertex 0.0231142 0.0705115 0.020383
   vertex 0.0236802 0.0701564 0.020314
   vertex 0.0230209 0.0697525 0.0203115
  endloop
 endfacet
 facet normal -0.0579724 0.100695 -0.993227
  outer loop
   vertex 0.0226579 0.0672575 0.0200798
   vertex 0.0222417 0.0675728 0.020136
   vertex 0.0227077 0.0679267 0.0201447
  endloop
 endfacet
 facet normal -0.0579682 0.100697 -0.993227
  outer loop
   vertex 0.0237013 0.0708215 0.0203802
   vertex 0.0231933 0.0711453 0.0204427
   vertex 0.0237147 0.0714207 0.0204402
  endloop
 endfacet
 facet normal -0.0579758 0.100697 -0.993227
  outer loop
   vertex 0.0242396 0.0711653 0.0203836
   vertex 0.0237013 0.0708215 0.0203802
   vertex 0.0237147 0.0714207 0.0204402
  endloop
 endfacet
 facet normal -0.0579693 0.100697 -0.993227
  outer loop
   vertex 0.0219118 0.0728265 0.0206879
   vertex 0.0223082 0.0731334 0.0206959
   vertex 0.0224061 0.0725791 0.020634
  endloop
 endfacet
 facet normal -0.0579714 0.100697 -0.993227
  outer loop
   vertex 0.0255079 0.0698264 0.0201738
   vertex 0.0260739 0.0694662 0.0201043
   vertex 0.0255855 0.0691135 0.020097
  endloop
 endfacet
 facet normal -0.05797 0.100697 -0.993227
  outer loop
   vertex 0.0253275 0.0713357 0.0203374
   vertex 0.0247478 0.0715539 0.0203933
   vertex 0.0252513 0.0719867 0.0204078
  endloop
 endfacet
 facet normal -0.0579712 0.100693 -0.993227
  outer loop
   vertex 0.0217899 0.072391 0.0206509
   vertex 0.0219118 0.0728265 0.0206879
   vertex 0.0224061 0.0725791 0.020634
  endloop
 endfacet
 facet normal -0.0579728 0.100697 -0.993227
  outer loop
   vertex 0.0248144 0.0742921 0.0206671
   vertex 0.0248067 0.0734993 0.0205871
   vertex 0.0241711 0.0738801 0.0206629
  endloop
 endfacet
 facet normal -0.057971 0.100697 -0.993227
  outer loop
   vertex 0.0258936 0.0673439 0.0198997
   vertex 0.0261993 0.0680648 0.0199549
   vertex 0.0264985 0.0673512 0.0198651
  endloop
 endfacet
 facet normal -0.0579699 0.100694 -0.993227
  outer loop
   vertex 0.0260739 0.0694662 0.0201043
   vertex 0.0261267 0.0688242 0.0200361
   vertex 0.0255855 0.0691135 0.020097
  endloop
 endfacet
 facet normal -0.057969 0.100694 -0.993227
  outer loop
   vertex 0.028215 0.0721707 0.0202535
   vertex 0.0276662 0.0715101 0.0202186
   vertex 0.0275322 0.0722957 0.020306
  endloop
 endfacet
 facet normal -0.0579712 0.100697 -0.993227
  outer loop
   vertex 0.0260739 0.0694662 0.0201043
   vertex 0.0261261 0.0701375 0.0201693
   vertex 0.0266518 0.0696749 0.0200917
  endloop
 endfacet
 facet normal -0.0579726 0.100695 -0.993227
  outer loop
   vertex 0.0242381 0.0691613 0.0201805
   vertex 0.0242757 0.0698242 0.0202455
   vertex 0.0248986 0.069356 0.0201617
  endloop
 endfacet
 facet normal -0.0579718 0.100697 -0.993227
  outer loop
   vertex 0.025524 0.067974 0.0199851
   vertex 0.0248323 0.0679859 0.0200267
   vertex 0.0251986 0.0686193 0.0200695
  endloop
 endfacet
 facet normal -0.0579732 0.100698 -0.993227
  outer loop
   vertex 0.0256193 0.0734726 0.020537
   vertex 0.0248067 0.0734993 0.0205871
   vertex 0.0254395 0.0741728 0.0206185
  endloop
 endfacet
 facet normal -0.0579723 0.100696 -0.993227
  outer loop
   vertex 0.0217899 0.072391 0.0206509
   vertex 0.0224061 0.0725791 0.020634
   vertex 0.0222821 0.0719802 0.0205805
  endloop
 endfacet
 facet normal -0.0579748 0.100696 -0.993227
  outer loop
   vertex 0.0285896 0.0686523 0.0198749
   vertex 0.0282976 0.0682166 0.0198478
   vertex 0.0282373 0.0688207 0.0199126
  endloop
 endfacet
 facet normal -0.0579719 0.100699 -0.993227
  outer loop
   vertex 0.0275322 0.0722957 0.020306
   vertex 0.0274648 0.0729778 0.0203791
   vertex 0.0280667 0.0727865 0.0203246
  endloop
 endfacet
 facet normal -0.0579728 0.100697 -0.993227
  outer loop
   vertex 0.0279534 0.0678205 0.0198277
   vertex 0.0273923 0.0683243 0.0199116
   vertex 0.0279102 0.0684408 0.0198932
  endloop
 endfacet
 facet normal -0.0579714 0.100697 -0.993227
  outer loop
   vertex 0.0282976 0.0682166 0.0198478
   vertex 0.0279534 0.0678205 0.0198277
   vertex 0.0279102 0.0684408 0.0198932
  endloop
 endfacet
 facet normal -0.0579726 0.100699 -0.993227
  outer loop
   vertex 0.0248067 0.0734993 0.0205871
   vertex 0.0251965 0.0727412 0.0204875
   vertex 0.024417 0.0727375 0.0205327
  endloop
 endfacet
 facet normal -0.0579712 0.100695 -0.993227
  outer loop
   vertex 0.0211413 0.0723328 0.0206828
   vertex 0.0217899 0.072391 0.0206509
   vertex 0.0216105 0.0718462 0.0206061
  endloop
 endfacet
 facet normal -0.0579714 0.100695 -0.993227
  outer loop
   vertex 0.0209668 0.0718391 0.020643
   vertex 0.0211413 0.0723328 0.0206828
   vertex 0.0216105 0.0718462 0.0206061
  endloop
 endfacet
 facet normal -0.057971 0.100697 -0.993227
  outer loop
   vertex 0.0237934 0.0747078 0.0207688
   vertex 0.0236809 0.0742045 0.0207244
   vertex 0.0233012 0.0745249 0.020779
  endloop
 endfacet
 facet normal -0.0579727 0.100695 -0.993227
  outer loop
   vertex 0.0233012 0.0745249 0.020779
   vertex 0.0236809 0.0742045 0.0207244
   vertex 0.023072 0.07403 0.0207422
  endloop
 endfacet
 facet normal -0.0579725 0.100696 -0.993227
  outer loop
   vertex 0.0231109 0.066997 0.0200269
   vertex 0.0235006 0.0672835 0.0200332
   vertex 0.0235933 0.0667953 0.0199783
  endloop
 endfacet
 facet normal -0.0579695 0.100696 -0.993227
  outer loop
   vertex 0.0235933 0.0667953 0.0199783
   vertex 0.0235006 0.0672835 0.0200332
   vertex 0.0239508 0.0672486 0.0200034
  endloop
 endfacet
 facet normal -0.0579714 0.100697 -0.993227
  outer loop
   vertex 0.0255079 0.0698264 0.0201738
   vertex 0.0261261 0.0701375 0.0201693
   vertex 0.0260739 0.0694662 0.0201043
  endloop
 endfacet
 facet normal -0.0579724 0.100696 -0.993227
  outer loop
   vertex 0.0263373 0.0714633 0.0202914
   vertex 0.0258442 0.0711973 0.0202932
   vertex 0.0258077 0.0717423 0.0203506
  endloop
 endfacet
 facet normal -0.0579719 0.100696 -0.993227
  outer loop
   vertex 0.0258077 0.0717423 0.0203506
   vertex 0.0258442 0.0711973 0.0202932
   vertex 0.0253275 0.0713357 0.0203374
  endloop
 endfacet
 facet normal -0.0579708 0.100695 -0.993227
  outer loop
   vertex 0.0258359 0.0729423 0.0204706
   vertex 0.0256193 0.0734726 0.020537
   vertex 0.0262648 0.0733755 0.0204895
  endloop
 endfacet
 facet normal -0.057973 0.100694 -0.993227
  outer loop
   vertex 0.0260739 0.0694662 0.0201043
   vertex 0.0265118 0.0691364 0.0200453
   vertex 0.0261267 0.0688242 0.0200361
  endloop
 endfacet
 facet normal -0.0579751 0.100697 -0.993227
  outer loop
   vertex 0.0236967 0.0694734 0.0202438
   vertex 0.0237569 0.0688349 0.0201755
   vertex 0.0231907 0.0690322 0.0202286
  endloop
 endfacet
 facet normal -0.0579711 0.100694 -0.993227
  outer loop
   vertex 0.0253275 0.0713357 0.0203374
   vertex 0.0248271 0.070902 0.0203226
   vertex 0.0247478 0.0715539 0.0203933
  endloop
 endfacet
 facet normal -0.0579747 0.100697 -0.993227
  outer loop
   vertex 0.0266952 0.0685605 0.0199762
   vertex 0.0261993 0.0680648 0.0199549
   vertex 0.0261267 0.0688242 0.0200361
  endloop
 endfacet
 facet normal -0.0579724 0.100697 -0.993227
  outer loop
   vertex 0.0248323 0.0679859 0.0200267
   vertex 0.0252772 0.0672793 0.0199291
   vertex 0.0245938 0.0671631 0.0199572
  endloop
 endfacet
 facet normal -0.0579725 0.100698 -0.993227
  outer loop
   vertex 0.0245938 0.0671631 0.0199572
   vertex 0.0252772 0.0672793 0.0199291
   vertex 0.0251401 0.0665701 0.0198652
  endloop
 endfacet
 facet normal -0.0579718 0.100698 -0.993227
  outer loop
   vertex 0.0218687 0.0679377 0.0201948
   vertex 0.022184 0.0682133 0.0202043
   vertex 0.0222417 0.0675728 0.020136
  endloop
 endfacet
 facet normal -0.0579712 0.100696 -0.993227
  outer loop
   vertex 0.0230209 0.0697525 0.0203115
   vertex 0.0231907 0.0690322 0.0202286
   vertex 0.0226501 0.0691764 0.0202747
  endloop
 endfacet
 facet normal -0.057971 0.100696 -0.993227
  outer loop
   vertex 0.0226869 0.0685993 0.0202141
   vertex 0.0226501 0.0691764 0.0202747
   vertex 0.0231907 0.0690322 0.0202286
  endloop
 endfacet
 facet normal -0.0579693 0.100696 -0.993227
  outer loop
   vertex 0.0281364 0.0694678 0.0199841
   vertex 0.0282373 0.0688207 0.0199126
   vertex 0.0276809 0.0690018 0.0199634
  endloop
 endfacet
 facet normal -0.0579719 0.100699 -0.993227
  outer loop
   vertex 0.028691 0.0726603 0.0202754
   vertex 0.0280667 0.0727865 0.0203246
   vertex 0.0284213 0.0731068 0.0203364
  endloop
 endfacet
 facet normal -0.0579706 0.100698 -0.993227
  outer loop
   vertex 0.0216333 0.0694116 0.0203579
   vertex 0.0212734 0.0698784 0.0204263
   vertex 0.021837 0.0700531 0.0204111
  endloop
 endfacet
 facet normal -0.0579687 0.100692 -0.993227
  outer loop
   vertex 0.021837 0.0700531 0.0204111
   vertex 0.0212734 0.0698784 0.0204263
   vertex 0.0213509 0.0704849 0.0204832
  endloop
 endfacet
 facet normal -0.0579725 0.100696 -0.993227
  outer loop
   vertex 0.0236802 0.0701564 0.020314
   vertex 0.0242657 0.0705148 0.0203161
   vertex 0.0242757 0.0698242 0.0202455
  endloop
 endfacet
 facet normal -0.0579706 0.100696 -0.993227
  outer loop
   vertex 0.0242757 0.0698242 0.0202455
   vertex 0.0242657 0.0705148 0.0203161
   vertex 0.0248777 0.0701887 0.0202474
  endloop
 endfacet
 facet normal -0.0579714 0.100697 -0.993227
  outer loop
   vertex 0.0220982 0.0713605 0.0205284
   vertex 0.0222821 0.0719802 0.0205805
   vertex 0.0227481 0.071538 0.0205085
  endloop
 endfacet
 facet normal -0.0579727 0.100695 -0.993227
  outer loop
   vertex 0.0226579 0.0672575 0.0200798
   vertex 0.0231617 0.067593 0.0200844
   vertex 0.0231109 0.066997 0.0200269
  endloop
 endfacet
 facet normal -0.0579723 0.100695 -0.993227
  outer loop
   vertex 0.0231109 0.066997 0.0200269
   vertex 0.0231617 0.067593 0.0200844
   vertex 0.0235006 0.0672835 0.0200332
  endloop
 endfacet
 facet normal -0.0579716 0.100695 -0.993227
  outer loop
   vertex 0.0241711 0.0738801 0.0206629
   vertex 0.0242671 0.0744639 0.0207164
   vertex 0.0248144 0.0742921 0.0206671
  endloop
 endfacet
 facet normal -0.0579708 0.100698 -0.993227
  outer loop
   vertex 0.0233041 0.0683039 0.0201481
   vertex 0.0227077 0.0679267 0.0201447
   vertex 0.0226869 0.0685993 0.0202141
  endloop
 endfacet
 facet normal -0.0579736 0.100695 -0.993227
  outer loop
   vertex 0.0239195 0.0682922 0.020111
   vertex 0.023679 0.0677598 0.0200711
   vertex 0.0233041 0.0683039 0.0201481
  endloop
 endfacet
 facet normal -0.0579742 0.100698 -0.993227
  outer loop
   vertex 0.0276662 0.0715101 0.0202186
   vertex 0.028215 0.0721707 0.0202535
   vertex 0.0284561 0.0715931 0.0201809
  endloop
 endfacet
 facet normal -0.0579715 0.100696 -0.993227
  outer loop
   vertex 0.0267931 0.0703691 0.0201539
   vertex 0.0266518 0.0696749 0.0200917
   vertex 0.0261261 0.0701375 0.0201693
  endloop
 endfacet
 facet normal -0.0579736 0.100696 -0.993227
  outer loop
   vertex 0.0255855 0.0691135 0.020097
   vertex 0.0248986 0.069356 0.0201617
   vertex 0.0255079 0.0698264 0.0201738
  endloop
 endfacet
 facet normal -0.0579753 0.100695 -0.993227
  outer loop
   vertex 0.0251986 0.0686193 0.0200695
   vertex 0.0257268 0.0685245 0.0200291
   vertex 0.025524 0.067974 0.0199851
  endloop
 endfacet
 facet normal -0.0579722 0.100694 -0.993227
  outer loop
   vertex 0.0223082 0.0731334 0.0206959
   vertex 0.0227282 0.0735641 0.020715
   vertex 0.0230948 0.0729775 0.0206342
  endloop
 endfacet
 facet normal -0.0579679 0.100695 -0.993227
  outer loop
   vertex 0.0242381 0.0691613 0.0201805
   vertex 0.024179 0.0686681 0.020134
   vertex 0.0237569 0.0688349 0.0201755
  endloop
 endfacet
 facet normal -0.0579709 0.100696 -0.993227
  outer loop
   vertex 0.0266952 0.0685605 0.0199762
   vertex 0.0273923 0.0683243 0.0199116
   vertex 0.0269136 0.0678293 0.0198893
  endloop
 endfacet
 facet normal -0.0579722 0.100694 -0.993227
  outer loop
   vertex 0.0276809 0.0690018 0.0199634
   vertex 0.0279102 0.0684408 0.0198932
   vertex 0.0273923 0.0683243 0.0199116
  endloop
 endfacet
 facet normal -0.0579718 0.100698 -0.993227
  outer loop
   vertex 0.0248067 0.0734993 0.0205871
   vertex 0.024417 0.0727375 0.0205327
   vertex 0.0239511 0.0732133 0.0206081
  endloop
 endfacet
 facet normal -0.0579731 0.100693 -0.993227
  outer loop
   vertex 0.0237265 0.072555 0.0205545
   vertex 0.024417 0.0727375 0.0205327
   vertex 0.0241388 0.072241 0.0204986
  endloop
 endfacet
 facet normal -0.0579738 0.100696 -0.993227
  outer loop
   vertex 0.0237265 0.072555 0.0205545
   vertex 0.0239511 0.0732133 0.0206081
   vertex 0.024417 0.0727375 0.0205327
  endloop
 endfacet
 facet normal -0.0579723 0.100697 -0.993227
  outer loop
   vertex 0.0236809 0.0742045 0.0207244
   vertex 0.0237934 0.0747078 0.0207688
   vertex 0.0242671 0.0744639 0.0207164
  endloop
 endfacet
 facet normal -0.0579714 0.100695 -0.993227
  outer loop
   vertex 0.0241711 0.0738801 0.0206629
   vertex 0.0236809 0.0742045 0.0207244
   vertex 0.0242671 0.0744639 0.0207164
  endloop
 endfacet
 facet normal -0.057973 0.100697 -0.993227
  outer loop
   vertex 0.026247 0.0708186 0.0202313
   vertex 0.0255279 0.0706335 0.0202545
   vertex 0.0258442 0.0711973 0.0202932
  endloop
 endfacet
 facet normal -0.0579729 0.100697 -0.993227
  outer loop
   vertex 0.0263373 0.0714633 0.0202914
   vertex 0.026247 0.0708186 0.0202313
   vertex 0.0258442 0.0711973 0.0202932
  endloop
 endfacet
 facet normal -0.0579732 0.100698 -0.993227
  outer loop
   vertex 0.0251965 0.0727412 0.0204875
   vertex 0.0248067 0.0734993 0.0205871
   vertex 0.0256193 0.0734726 0.020537
  endloop
 endfacet
 facet normal -0.0579691 0.100696 -0.993227
  outer loop
   vertex 0.0258359 0.0729423 0.0204706
   vertex 0.0251965 0.0727412 0.0204875
   vertex 0.0256193 0.0734726 0.020537
  endloop
 endfacet
 facet normal -0.0579703 0.100697 -0.993227
  outer loop
   vertex 0.0256617 0.0666255 0.0198404
   vertex 0.0251401 0.0665701 0.0198652
   vertex 0.0252772 0.0672793 0.0199291
  endloop
 endfacet
 facet normal -0.0579728 0.100696 -0.993227
  outer loop
   vertex 0.0258936 0.0673439 0.0198997
   vertex 0.0256617 0.0666255 0.0198404
   vertex 0.0252772 0.0672793 0.0199291
  endloop
 endfacet
 facet normal -0.0579713 0.100698 -0.993227
  outer loop
   vertex 0.0241966 0.0717574 0.0204461
   vertex 0.0236827 0.0719705 0.0204978
   vertex 0.0241388 0.072241 0.0204986
  endloop
 endfacet
 facet normal -0.0579716 0.100698 -0.993227
  outer loop
   vertex 0.0246581 0.0721716 0.0204612
   vertex 0.0241966 0.0717574 0.0204461
   vertex 0.0241388 0.072241 0.0204986
  endloop
 endfacet
 facet normal -0.0579727 0.100697 -0.993227
  outer loop
   vertex 0.0215448 0.0683467 0.0202552
   vertex 0.0220416 0.0688797 0.0202802
   vertex 0.022184 0.0682133 0.0202043
  endloop
 endfacet
 facet normal -0.0579723 0.100698 -0.993227
  outer loop
   vertex 0.0218687 0.0679377 0.0201948
   vertex 0.0215448 0.0683467 0.0202552
   vertex 0.022184 0.0682133 0.0202043
  endloop
 endfacet
 facet normal -0.0579741 0.100697 -0.993227
  outer loop
   vertex 0.0242396 0.0711653 0.0203836
   vertex 0.0241966 0.0717574 0.0204461
   vertex 0.0247478 0.0715539 0.0203933
  endloop
 endfacet
 facet normal -0.0579715 0.100694 -0.993227
  outer loop
   vertex 0.0248271 0.070902 0.0203226
   vertex 0.0242396 0.0711653 0.0203836
   vertex 0.0247478 0.0715539 0.0203933
  endloop
 endfacet
 facet normal -0.0579732 0.100696 -0.993227
  outer loop
   vertex 0.0261993 0.0680648 0.0199549
   vertex 0.0266952 0.0685605 0.0199762
   vertex 0.0269136 0.0678293 0.0198893
  endloop
 endfacet
 facet normal -0.0579732 0.100696 -0.993227
  outer loop
   vertex 0.0264985 0.0673512 0.0198651
   vertex 0.0261993 0.0680648 0.0199549
   vertex 0.0269136 0.0678293 0.0198893
  endloop
 endfacet
 facet normal -0.0579718 0.100698 -0.993227
  outer loop
   vertex 0.0252772 0.0672793 0.0199291
   vertex 0.0248323 0.0679859 0.0200267
   vertex 0.025524 0.067974 0.0199851
  endloop
 endfacet
 facet normal -0.0579731 0.100698 -0.993227
  outer loop
   vertex 0.0258936 0.0673439 0.0198997
   vertex 0.0252772 0.0672793 0.0199291
   vertex 0.025524 0.067974 0.0199851
  endloop
 endfacet
 facet normal -0.0579726 0.1007 -0.993226
  outer loop
   vertex 0.0246581 0.0721716 0.0204612
   vertex 0.0252513 0.0719867 0.0204078
   vertex 0.0247478 0.0715539 0.0203933
  endloop
 endfacet
 facet normal -0.0579732 0.1007 -0.993226
  outer loop
   vertex 0.0241966 0.0717574 0.0204461
   vertex 0.0246581 0.0721716 0.0204612
   vertex 0.0247478 0.0715539 0.0203933
  endloop
 endfacet
 facet normal -0.0579743 0.100695 -0.993227
  outer loop
   vertex 0.0282373 0.0688207 0.0199126
   vertex 0.0281364 0.0694678 0.0199841
   vertex 0.0288247 0.0691206 0.0199087
  endloop
 endfacet
 facet normal -0.057975 0.100696 -0.993227
  outer loop
   vertex 0.0285896 0.0686523 0.0198749
   vertex 0.0282373 0.0688207 0.0199126
   vertex 0.0288247 0.0691206 0.0199087
  endloop
 endfacet
 facet normal -0.057973 0.100697 -0.993227
  outer loop
   vertex 0.0220127 0.0736329 0.0207638
   vertex 0.0224038 0.0739832 0.0207765
   vertex 0.0227282 0.0735641 0.020715
  endloop
 endfacet
 facet normal -0.0579732 0.100695 -0.993227
  outer loop
   vertex 0.0223082 0.0731334 0.0206959
   vertex 0.0220127 0.0736329 0.0207638
   vertex 0.0227282 0.0735641 0.020715
  endloop
 endfacet
 facet normal -0.0579728 0.100694 -0.993227
  outer loop
   vertex 0.0280667 0.0727865 0.0203246
   vertex 0.028691 0.0726603 0.0202754
   vertex 0.028215 0.0721707 0.0202535
  endloop
 endfacet
 facet normal -0.0579687 0.100695 -0.993227
  outer loop
   vertex 0.0275322 0.0722957 0.020306
   vertex 0.0280667 0.0727865 0.0203246
   vertex 0.028215 0.0721707 0.0202535
  endloop
 endfacet
 facet normal -0.0579734 0.100697 -0.993227
  outer loop
   vertex 0.0230948 0.0729775 0.0206342
   vertex 0.0237265 0.072555 0.0205545
   vertex 0.023033 0.0721787 0.0205568
  endloop
 endfacet
 facet normal -0.0579722 0.100697 -0.993227
  outer loop
   vertex 0.0224061 0.0725791 0.020634
   vertex 0.0230948 0.0729775 0.0206342
   vertex 0.023033 0.0721787 0.0205568
  endloop
 endfacet
 facet normal -0.0579717 0.100697 -0.993227
  outer loop
   vertex 0.0212734 0.0698784 0.0204263
   vertex 0.0216333 0.0694116 0.0203579
   vertex 0.0210639 0.0692701 0.0203768
  endloop
 endfacet
 facet normal -0.0579739 0.100698 -0.993227
  outer loop
   vertex 0.0209145 0.0697701 0.0204362
   vertex 0.0212734 0.0698784 0.0204263
   vertex 0.0210639 0.0692701 0.0203768
  endloop
 endfacet
 facet normal -0.0579723 0.100693 -0.993227
  outer loop
   vertex 0.0212734 0.0698784 0.0204263
   vertex 0.0209145 0.0697701 0.0204362
   vertex 0.0208293 0.0702851 0.0204934
  endloop
 endfacet
 facet normal -0.0579725 0.100692 -0.993227
  outer loop
   vertex 0.0213509 0.0704849 0.0204832
   vertex 0.0212734 0.0698784 0.0204263
   vertex 0.0208293 0.0702851 0.0204934
  endloop
 endfacet
 facet normal -0.0579736 0.100698 -0.993227
  outer loop
   vertex 0.0242657 0.0705148 0.0203161
   vertex 0.0236802 0.0701564 0.020314
   vertex 0.0237013 0.0708215 0.0203802
  endloop
 endfacet
 facet normal -0.0579748 0.100696 -0.993227
  outer loop
   vertex 0.0242396 0.0711653 0.0203836
   vertex 0.0242657 0.0705148 0.0203161
   vertex 0.0237013 0.0708215 0.0203802
  endloop
 endfacet
 facet normal -0.0579713 0.100692 -0.993227
  outer loop
   vertex 0.0231142 0.0705115 0.020383
   vertex 0.0231933 0.0711453 0.0204427
   vertex 0.0237013 0.0708215 0.0203802
  endloop
 endfacet
 facet normal -0.0579743 0.100698 -0.993227
  outer loop
   vertex 0.0236802 0.0701564 0.020314
   vertex 0.0231142 0.0705115 0.020383
   vertex 0.0237013 0.0708215 0.0203802
  endloop
 endfacet
 facet normal -0.0579718 0.100698 -0.993227
  outer loop
   vertex 0.0241711 0.0738801 0.0206629
   vertex 0.0248067 0.0734993 0.0205871
   vertex 0.0239511 0.0732133 0.0206081
  endloop
 endfacet
 facet normal -0.0579714 0.100698 -0.993227
  outer loop
   vertex 0.0234581 0.0736398 0.0206801
   vertex 0.0241711 0.0738801 0.0206629
   vertex 0.0239511 0.0732133 0.0206081
  endloop
 endfacet
 facet normal -0.0579727 0.100696 -0.993227
  outer loop
   vertex 0.0216105 0.0718462 0.0206061
   vertex 0.0217899 0.072391 0.0206509
   vertex 0.0222821 0.0719802 0.0205805
  endloop
 endfacet
 facet normal -0.0579729 0.100697 -0.993227
  outer loop
   vertex 0.0220982 0.0713605 0.0205284
   vertex 0.0216105 0.0718462 0.0206061
   vertex 0.0222821 0.0719802 0.0205805
  endloop
 endfacet
 facet normal -0.057973 0.100696 -0.993227
  outer loop
   vertex 0.0271305 0.0671714 0.01981
   vertex 0.0264985 0.0673512 0.0198651
   vertex 0.0269136 0.0678293 0.0198893
  endloop
 endfacet
 facet normal -0.0579722 0.100696 -0.993227
  outer loop
   vertex 0.0275623 0.0674703 0.0198151
   vertex 0.0271305 0.0671714 0.01981
   vertex 0.0269136 0.0678293 0.0198893
  endloop
 endfacet
 facet normal -0.0579706 0.100696 -0.993227
  outer loop
   vertex 0.0236809 0.0742045 0.0207244
   vertex 0.0241711 0.0738801 0.0206629
   vertex 0.0234581 0.0736398 0.0206801
  endloop
 endfacet
 facet normal -0.0579734 0.100697 -0.993227
  outer loop
   vertex 0.023072 0.07403 0.0207422
   vertex 0.0236809 0.0742045 0.0207244
   vertex 0.0234581 0.0736398 0.0206801
  endloop
 endfacet
 facet normal -0.0579715 0.100694 -0.993227
  outer loop
   vertex 0.0234581 0.0736398 0.0206801
   vertex 0.0230948 0.0729775 0.0206342
   vertex 0.0227282 0.0735641 0.020715
  endloop
 endfacet
 facet normal -0.057972 0.100698 -0.993227
  outer loop
   vertex 0.023072 0.07403 0.0207422
   vertex 0.0234581 0.0736398 0.0206801
   vertex 0.0227282 0.0735641 0.020715
  endloop
 endfacet
 facet normal -0.0579723 0.100695 -0.993227
  outer loop
   vertex 0.0231617 0.067593 0.0200844
   vertex 0.0226579 0.0672575 0.0200798
   vertex 0.0227077 0.0679267 0.0201447
  endloop
 endfacet
 facet normal -0.0579705 0.100697 -0.993227
  outer loop
   vertex 0.0233041 0.0683039 0.0201481
   vertex 0.0231617 0.067593 0.0200844
   vertex 0.0227077 0.0679267 0.0201447
  endloop
 endfacet
 facet normal -0.0579734 0.100693 -0.993227
  outer loop
   vertex 0.0273081 0.0741959 0.0205118
   vertex 0.0277244 0.0738807 0.0204555
   vertex 0.027373 0.0735922 0.0204468
  endloop
 endfacet
 facet normal -0.0579723 0.100694 -0.993227
  outer loop
   vertex 0.026802 0.0738157 0.0205028
   vertex 0.0273081 0.0741959 0.0205118
   vertex 0.027373 0.0735922 0.0204468
  endloop
 endfacet
 facet normal -0.0579752 0.100697 -0.993227
  outer loop
   vertex 0.0280974 0.0735157 0.0203967
   vertex 0.0274648 0.0729778 0.0203791
   vertex 0.027373 0.0735922 0.0204468
  endloop
 endfacet
 facet normal -0.0579754 0.100696 -0.993227
  outer loop
   vertex 0.0277244 0.0738807 0.0204555
   vertex 0.0280974 0.0735157 0.0203967
   vertex 0.027373 0.0735922 0.0204468
  endloop
 endfacet
 facet normal -0.0579734 0.100695 -0.993227
  outer loop
   vertex 0.023679 0.0677598 0.0200711
   vertex 0.0239195 0.0682922 0.020111
   vertex 0.0242246 0.0677983 0.0200431
  endloop
 endfacet
 facet normal -0.0579734 0.100695 -0.993227
  outer loop
   vertex 0.0239508 0.0672486 0.0200034
   vertex 0.023679 0.0677598 0.0200711
   vertex 0.0242246 0.0677983 0.0200431
  endloop
 endfacet
 facet normal -0.0579726 0.100695 -0.993227
  outer loop
   vertex 0.0255279 0.0706335 0.0202545
   vertex 0.026247 0.0708186 0.0202313
   vertex 0.0261261 0.0701375 0.0201693
  endloop
 endfacet
 facet normal -0.0579715 0.100697 -0.993227
  outer loop
   vertex 0.0255079 0.0698264 0.0201738
   vertex 0.0255279 0.0706335 0.0202545
   vertex 0.0261261 0.0701375 0.0201693
  endloop
 endfacet
 facet normal -0.0579727 0.100697 -0.993227
  outer loop
   vertex 0.0266518 0.0696749 0.0200917
   vertex 0.0270458 0.0691001 0.0200104
   vertex 0.0265118 0.0691364 0.0200453
  endloop
 endfacet
 facet normal -0.0579711 0.100697 -0.993227
  outer loop
   vertex 0.0260739 0.0694662 0.0201043
   vertex 0.0266518 0.0696749 0.0200917
   vertex 0.0265118 0.0691364 0.0200453
  endloop
 endfacet
 facet normal -0.0579743 0.100695 -0.993227
  outer loop
   vertex 0.0245938 0.0671631 0.0199572
   vertex 0.0239508 0.0672486 0.0200034
   vertex 0.0242246 0.0677983 0.0200431
  endloop
 endfacet
 facet normal -0.0579716 0.100697 -0.993227
  outer loop
   vertex 0.0248323 0.0679859 0.0200267
   vertex 0.0245938 0.0671631 0.0199572
   vertex 0.0242246 0.0677983 0.0200431
  endloop
 endfacet
 facet normal -0.0579708 0.100695 -0.993227
  outer loop
   vertex 0.0261734 0.0741066 0.0205689
   vertex 0.0262648 0.0733755 0.0204895
   vertex 0.0256193 0.0734726 0.020537
  endloop
 endfacet
 facet normal -0.0579732 0.100698 -0.993227
  outer loop
   vertex 0.0254395 0.0741728 0.0206185
   vertex 0.0261734 0.0741066 0.0205689
   vertex 0.0256193 0.0734726 0.020537
  endloop
 endfacet
 facet normal -0.057971 0.100698 -0.993227
  outer loop
   vertex 0.0243583 0.0683048 0.0200867
   vertex 0.0239195 0.0682922 0.020111
   vertex 0.024179 0.0686681 0.020134
  endloop
 endfacet
 facet normal -0.0579742 0.100696 -0.993227
  outer loop
   vertex 0.0232754 0.0716525 0.0204893
   vertex 0.0227481 0.071538 0.0205085
   vertex 0.023033 0.0721787 0.0205568
  endloop
 endfacet
 facet normal -0.0579742 0.100698 -0.993227
  outer loop
   vertex 0.022184 0.0682133 0.0202043
   vertex 0.0226869 0.0685993 0.0202141
   vertex 0.0227077 0.0679267 0.0201447
  endloop
 endfacet
 facet normal -0.0579743 0.100697 -0.993227
  outer loop
   vertex 0.0222417 0.0675728 0.020136
   vertex 0.022184 0.0682133 0.0202043
   vertex 0.0227077 0.0679267 0.0201447
  endloop
 endfacet
 facet normal -0.0579684 0.100695 -0.993227
  outer loop
   vertex 0.0280974 0.0735157 0.0203967
   vertex 0.0284213 0.0731068 0.0203364
   vertex 0.0280667 0.0727865 0.0203246
  endloop
 endfacet
 facet normal -0.0579732 0.100695 -0.993227
  outer loop
   vertex 0.0274648 0.0729778 0.0203791
   vertex 0.0280974 0.0735157 0.0203967
   vertex 0.0280667 0.0727865 0.0203246
  endloop
 endfacet
 facet normal -0.0579726 0.100693 -0.993227
  outer loop
   vertex 0.024417 0.0727375 0.0205327
   vertex 0.0251965 0.0727412 0.0204875
   vertex 0.0246581 0.0721716 0.0204612
  endloop
 endfacet
 facet normal -0.0579723 0.100693 -0.993227
  outer loop
   vertex 0.0241388 0.072241 0.0204986
   vertex 0.024417 0.0727375 0.0205327
   vertex 0.0246581 0.0721716 0.0204612
  endloop
 endfacet
 facet normal -0.0579712 0.100697 -0.993227
  outer loop
   vertex 0.0248986 0.069356 0.0201617
   vertex 0.0242757 0.0698242 0.0202455
   vertex 0.0248777 0.0701887 0.0202474
  endloop
 endfacet
 facet normal -0.057974 0.100697 -0.993227
  outer loop
   vertex 0.0255079 0.0698264 0.0201738
   vertex 0.0248986 0.069356 0.0201617
   vertex 0.0248777 0.0701887 0.0202474
  endloop
 endfacet
 facet normal -0.0579712 0.100697 -0.993227
  outer loop
   vertex 0.0233041 0.0683039 0.0201481
   vertex 0.0226869 0.0685993 0.0202141
   vertex 0.0231907 0.0690322 0.0202286
  endloop
 endfacet
 facet normal -0.0579756 0.100696 -0.993227
  outer loop
   vertex 0.0237569 0.0688349 0.0201755
   vertex 0.0233041 0.0683039 0.0201481
   vertex 0.0231907 0.0690322 0.0202286
  endloop
 endfacet
 facet normal -0.0579699 0.100698 -0.993227
  outer loop
   vertex 0.0261267 0.0688242 0.0200361
   vertex 0.0261993 0.0680648 0.0199549
   vertex 0.0257268 0.0685245 0.0200291
  endloop
 endfacet
 facet normal -0.0579713 0.100697 -0.993227
  outer loop
   vertex 0.0282373 0.0688207 0.0199126
   vertex 0.0282976 0.0682166 0.0198478
   vertex 0.0279102 0.0684408 0.0198932
  endloop
 endfacet
 facet normal -0.0579695 0.100695 -0.993227
  outer loop
   vertex 0.0276809 0.0690018 0.0199634
   vertex 0.0282373 0.0688207 0.0199126
   vertex 0.0279102 0.0684408 0.0198932
  endloop
 endfacet
 facet normal -0.0579726 0.100696 -0.993227
  outer loop
   vertex 0.0222821 0.0719802 0.0205805
   vertex 0.0224061 0.0725791 0.020634
   vertex 0.023033 0.0721787 0.0205568
  endloop
 endfacet
 facet normal -0.0579725 0.100696 -0.993227
  outer loop
   vertex 0.0227481 0.071538 0.0205085
   vertex 0.0222821 0.0719802 0.0205805
   vertex 0.023033 0.0721787 0.0205568
  endloop
 endfacet
 facet normal -0.0579736 0.100698 -0.993227
  outer loop
   vertex 0.0246181 0.0686954 0.0201111
   vertex 0.0242381 0.0691613 0.0201805
   vertex 0.0248986 0.069356 0.0201617
  endloop
 endfacet
 facet normal -0.0579732 0.100694 -0.993227
  outer loop
   vertex 0.025524 0.067974 0.0199851
   vertex 0.0257268 0.0685245 0.0200291
   vertex 0.0261993 0.0680648 0.0199549
  endloop
 endfacet
 facet normal -0.0579736 0.100698 -0.993227
  outer loop
   vertex 0.0258936 0.0673439 0.0198997
   vertex 0.025524 0.067974 0.0199851
   vertex 0.0261993 0.0680648 0.0199549
  endloop
 endfacet
 facet normal -0.0579751 0.100698 -0.993226
  outer loop
   vertex 0.0289022 0.0721833 0.0202147
   vertex 0.0284561 0.0715931 0.0201809
   vertex 0.028215 0.0721707 0.0202535
  endloop
 endfacet
 facet normal -0.0579751 0.100697 -0.993227
  outer loop
   vertex 0.028691 0.0726603 0.0202754
   vertex 0.0289022 0.0721833 0.0202147
   vertex 0.028215 0.0721707 0.0202535
  endloop
 endfacet
 facet normal -0.0579714 0.100696 -0.993227
  outer loop
   vertex 0.0243583 0.0683048 0.0200867
   vertex 0.0248323 0.0679859 0.0200267
   vertex 0.0242246 0.0677983 0.0200431
  endloop
 endfacet
 facet normal -0.0579709 0.100696 -0.993227
  outer loop
   vertex 0.0239195 0.0682922 0.020111
   vertex 0.0243583 0.0683048 0.0200867
   vertex 0.0242246 0.0677983 0.0200431
  endloop
 endfacet
 facet normal -0.0579702 0.100697 -0.993227
  outer loop
   vertex 0.0231617 0.067593 0.0200844
   vertex 0.0233041 0.0683039 0.0201481
   vertex 0.023679 0.0677598 0.0200711
  endloop
 endfacet
 facet normal -0.0579703 0.100697 -0.993227
  outer loop
   vertex 0.0235006 0.0672835 0.0200332
   vertex 0.0231617 0.067593 0.0200844
   vertex 0.023679 0.0677598 0.0200711
  endloop
 endfacet
 facet normal -0.057974 0.100695 -0.993227
  outer loop
   vertex 0.0270458 0.0691001 0.0200104
   vertex 0.0276809 0.0690018 0.0199634
   vertex 0.0273923 0.0683243 0.0199116
  endloop
 endfacet
 facet normal -0.057971 0.100696 -0.993227
  outer loop
   vertex 0.0266952 0.0685605 0.0199762
   vertex 0.0270458 0.0691001 0.0200104
   vertex 0.0273923 0.0683243 0.0199116
  endloop
 endfacet
 facet normal -0.0579706 0.100696 -0.993227
  outer loop
   vertex 0.0248271 0.070902 0.0203226
   vertex 0.0248777 0.0701887 0.0202474
   vertex 0.0242657 0.0705148 0.0203161
  endloop
 endfacet
 facet normal -0.0579707 0.100696 -0.993227
  outer loop
   vertex 0.0242396 0.0711653 0.0203836
   vertex 0.0248271 0.070902 0.0203226
   vertex 0.0242657 0.0705148 0.0203161
  endloop
 endfacet
 facet normal -0.0579734 0.100696 -0.993227
  outer loop
   vertex 0.0220416 0.0688797 0.0202802
   vertex 0.0222843 0.0695917 0.0203382
   vertex 0.0226501 0.0691764 0.0202747
  endloop
 endfacet
 facet normal -0.0579737 0.100696 -0.993227
  outer loop
   vertex 0.0226869 0.0685993 0.0202141
   vertex 0.0220416 0.0688797 0.0202802
   vertex 0.0226501 0.0691764 0.0202747
  endloop
 endfacet
 facet normal -0.057971 0.100698 -0.993227
  outer loop
   vertex 0.0261727 0.0667457 0.0198227
   vertex 0.0258936 0.0673439 0.0198997
   vertex 0.0264985 0.0673512 0.0198651
  endloop
 endfacet
 facet normal -0.0579716 0.100698 -0.993227
  outer loop
   vertex 0.0266648 0.0669286 0.0198125
   vertex 0.0261727 0.0667457 0.0198227
   vertex 0.0264985 0.0673512 0.0198651
  endloop
 endfacet
 facet normal -0.0579688 0.100695 -0.993227
  outer loop
   vertex 0.0246181 0.0686954 0.0201111
   vertex 0.0251986 0.0686193 0.0200695
   vertex 0.0248323 0.0679859 0.0200267
  endloop
 endfacet
 facet normal -0.0579732 0.100694 -0.993227
  outer loop
   vertex 0.0243583 0.0683048 0.0200867
   vertex 0.0246181 0.0686954 0.0201111
   vertex 0.0248323 0.0679859 0.0200267
  endloop
 endfacet
 facet normal -0.0579701 0.100695 -0.993227
  outer loop
   vertex 0.0242671 0.0744639 0.0207164
   vertex 0.0243043 0.0748279 0.0207512
   vertex 0.024826 0.0748834 0.0207263
  endloop
 endfacet
 facet normal -0.057971 0.100696 -0.993227
  outer loop
   vertex 0.0248144 0.0742921 0.0206671
   vertex 0.0242671 0.0744639 0.0207164
   vertex 0.024826 0.0748834 0.0207263
  endloop
 endfacet
 facet normal -0.0579737 0.100695 -0.993227
  outer loop
   vertex 0.0230948 0.0729775 0.0206342
   vertex 0.0234581 0.0736398 0.0206801
   vertex 0.0239511 0.0732133 0.0206081
  endloop
 endfacet
 facet normal -0.057974 0.100696 -0.993227
  outer loop
   vertex 0.0237265 0.072555 0.0205545
   vertex 0.0230948 0.0729775 0.0206342
   vertex 0.0239511 0.0732133 0.0206081
  endloop
 endfacet
 facet normal -0.0579714 0.100695 -0.993227
  outer loop
   vertex 0.0209668 0.0718391 0.020643
   vertex 0.0216105 0.0718462 0.0206061
   vertex 0.02138 0.071193 0.0205533
  endloop
 endfacet
 facet normal -0.0579709 0.100696 -0.993227
  outer loop
   vertex 0.0208556 0.0713279 0.0205976
   vertex 0.0209668 0.0718391 0.020643
   vertex 0.02138 0.071193 0.0205533
  endloop
 endfacet
 facet normal -0.0579689 0.100696 -0.993227
  outer loop
   vertex 0.0255855 0.0691135 0.020097
   vertex 0.0261267 0.0688242 0.0200361
   vertex 0.0257268 0.0685245 0.0200291
  endloop
 endfacet
 facet normal -0.0579753 0.100695 -0.993227
  outer loop
   vertex 0.0251986 0.0686193 0.0200695
   vertex 0.0255855 0.0691135 0.020097
   vertex 0.0257268 0.0685245 0.0200291
  endloop
 endfacet
 facet normal -0.0579726 0.100697 -0.993227
  outer loop
   vertex 0.0273923 0.0683243 0.0199116
   vertex 0.0279534 0.0678205 0.0198277
   vertex 0.0275623 0.0674703 0.0198151
  endloop
 endfacet
 facet normal -0.0579715 0.100697 -0.993227
  outer loop
   vertex 0.0269136 0.0678293 0.0198893
   vertex 0.0273923 0.0683243 0.0199116
   vertex 0.0275623 0.0674703 0.0198151
  endloop
 endfacet
 facet normal -0.0579731 0.100696 -0.993227
  outer loop
   vertex 0.0255279 0.0706335 0.0202545
   vertex 0.0248777 0.0701887 0.0202474
   vertex 0.0248271 0.070902 0.0203226
  endloop
 endfacet
 facet normal -0.0579729 0.100696 -0.993227
  outer loop
   vertex 0.0253275 0.0713357 0.0203374
   vertex 0.0255279 0.0706335 0.0202545
   vertex 0.0248271 0.070902 0.0203226
  endloop
 endfacet
 facet normal -0.0579676 0.100696 -0.993227
  outer loop
   vertex 0.0237569 0.0688349 0.0201755
   vertex 0.024179 0.0686681 0.020134
   vertex 0.0239195 0.0682922 0.020111
  endloop
 endfacet
 facet normal -0.0579736 0.100694 -0.993227
  outer loop
   vertex 0.0233041 0.0683039 0.0201481
   vertex 0.0237569 0.0688349 0.0201755
   vertex 0.0239195 0.0682922 0.020111
  endloop
 endfacet
 facet normal -0.0579741 0.100697 -0.993227
  outer loop
   vertex 0.0291565 0.0706463 0.020044
   vertex 0.028646 0.0704739 0.0200563
   vertex 0.0287674 0.071083 0.020111
  endloop
 endfacet
 facet normal -0.057973 0.100698 -0.993227
  outer loop
   vertex 0.0291368 0.0711683 0.0200981
   vertex 0.0291565 0.0706463 0.020044
   vertex 0.0287674 0.071083 0.020111
  endloop
 endfacet
 facet normal -0.0579763 0.100696 -0.993227
  outer loop
   vertex 0.0246181 0.0686954 0.0201111
   vertex 0.0243583 0.0683048 0.0200867
   vertex 0.024179 0.0686681 0.020134
  endloop
 endfacet
 facet normal -0.0579763 0.100696 -0.993227
  outer loop
   vertex 0.0242381 0.0691613 0.0201805
   vertex 0.0246181 0.0686954 0.0201111
   vertex 0.024179 0.0686681 0.020134
  endloop
 endfacet
 facet normal -0.0579726 0.100696 -0.993227
  outer loop
   vertex 0.0266518 0.0696749 0.0200917
   vertex 0.0267931 0.0703691 0.0201539
   vertex 0.0273999 0.0697926 0.02006
  endloop
 endfacet
 facet normal -0.0579727 0.100697 -0.993227
  outer loop
   vertex 0.0270458 0.0691001 0.0200104
   vertex 0.0266518 0.0696749 0.0200917
   vertex 0.0273999 0.0697926 0.02006
  endloop
 endfacet
 facet normal -0.0579715 0.100698 -0.993227
  outer loop
   vertex 0.023072 0.07403 0.0207422
   vertex 0.0227282 0.0735641 0.020715
   vertex 0.0224038 0.0739832 0.0207765
  endloop
 endfacet
 facet normal -0.0579713 0.100694 -0.993227
  outer loop
   vertex 0.0228356 0.0742821 0.0207816
   vertex 0.023072 0.07403 0.0207422
   vertex 0.0224038 0.0739832 0.0207765
  endloop
 endfacet
 facet normal -0.0579744 0.100694 -0.993227
  outer loop
   vertex 0.0248986 0.069356 0.0201617
   vertex 0.0255855 0.0691135 0.020097
   vertex 0.0251986 0.0686193 0.0200695
  endloop
 endfacet
 facet normal -0.0579687 0.100696 -0.993227
  outer loop
   vertex 0.0246181 0.0686954 0.0201111
   vertex 0.0248986 0.069356 0.0201617
   vertex 0.0251986 0.0686193 0.0200695
  endloop
 endfacet
endsolid
