solid ascii
 facet normal -0.62243 -0.202013 0.756156
  outer loop
   vertex 0.00178188 0.0361846 0.0756532
   vertex 0.00154246 0.0368519 0.0756345
   vertex 0.00115152 0.0364602 0.075208
  endloop
 endfacet
 facet normal -0.622427 -0.202004 0.75616
  outer loop
   vertex 0.00184949 0.0372817 0.076002
   vertex 0.00236242 0.0371583 0.0763912
   vertex 0.00215103 0.0377004 0.0763621
  endloop
 endfacet
 facet normal -0.622423 -0.202003 0.756164
  outer loop
   vertex 0.0023875 0.0429463 0.0779582
   vertex 0.00181542 0.0430902 0.0775257
   vertex 0.00204734 0.0423883 0.0775291
  endloop
 endfacet
 facet normal -0.622428 -0.202008 0.756159
  outer loop
   vertex 0.00178188 0.0361846 0.0756532
   vertex 0.0024155 0.0360853 0.0761483
   vertex 0.00210028 0.0366995 0.0760529
  endloop
 endfacet
 facet normal -0.622419 -0.202021 0.756163
  outer loop
   vertex 0.00115152 0.0364602 0.075208
   vertex 0.00106165 0.0370497 0.0752915
   vertex 0.000586494 0.0368842 0.0748562
  endloop
 endfacet
 facet normal -0.622427 -0.202008 0.756159
  outer loop
   vertex 0.00184949 0.0372817 0.076002
   vertex 0.00210028 0.0366995 0.0760529
   vertex 0.00236242 0.0371583 0.0763912
  endloop
 endfacet
 facet normal -0.622426 -0.202006 0.756161
  outer loop
   vertex 0.000123294 0.0373921 0.0746106
   vertex 0.000237388 0.0381137 0.0748973
   vertex -0.000265957 0.0379983 0.0744521
  endloop
 endfacet
 facet normal -0.622421 -0.202005 0.756166
  outer loop
   vertex 0.00467424 0.040056 0.0790683
   vertex 0.00438402 0.0397315 0.0787427
   vertex 0.00477848 0.0394126 0.0789822
  endloop
 endfacet
 facet normal -0.622424 -0.202021 0.756159
  outer loop
   vertex 0.00106165 0.0370497 0.0752915
   vertex 0.00115152 0.0364602 0.075208
   vertex 0.00154246 0.0368519 0.0756345
  endloop
 endfacet
 facet normal -0.622425 -0.202007 0.756162
  outer loop
   vertex 0.00210028 0.0366995 0.0760529
   vertex 0.00184949 0.0372817 0.076002
   vertex 0.00154246 0.0368519 0.0756345
  endloop
 endfacet
 facet normal -0.622425 -0.202011 0.75616
  outer loop
   vertex 0.00178188 0.0361846 0.0756532
   vertex 0.00210028 0.0366995 0.0760529
   vertex 0.00154246 0.0368519 0.0756345
  endloop
 endfacet
 facet normal -0.622427 -0.202006 0.756161
  outer loop
   vertex 0.00381153 0.0381443 0.0778475
   vertex 0.00330282 0.0383407 0.0774812
   vertex 0.00345157 0.0377346 0.0774417
  endloop
 endfacet
 facet normal -0.622422 -0.202011 0.756163
  outer loop
   vertex 0.00162815 0.0378861 0.0759813
   vertex 0.00184949 0.0372817 0.076002
   vertex 0.00215103 0.0377004 0.0763621
  endloop
 endfacet
 facet normal -0.622426 -0.202005 0.756162
  outer loop
   vertex 5.12238e-05 0.0391708 0.0750264
   vertex 0.000329501 0.0387354 0.0751392
   vertex 0.00038188 0.0393442 0.0753449
  endloop
 endfacet
 facet normal -0.622428 -0.202005 0.75616
  outer loop
   vertex 0.00038188 0.0393442 0.0753449
   vertex 0.000835403 0.0388228 0.075579
   vertex 0.000786354 0.0395767 0.07574
  endloop
 endfacet
 facet normal -0.622425 -0.202013 0.75616
  outer loop
   vertex 0.000835403 0.0388228 0.075579
   vertex 0.000329501 0.0387354 0.0751392
   vertex 0.000638444 0.0382729 0.0752699
  endloop
 endfacet
 facet normal -0.622422 -0.202004 0.756165
  outer loop
   vertex 0.0023875 0.0429463 0.0779582
   vertex 0.00204734 0.0423883 0.0775291
   vertex 0.00254181 0.042215 0.0778898
  endloop
 endfacet
 facet normal -0.62242 -0.202004 0.756166
  outer loop
   vertex 0.00289574 0.0426905 0.0783082
   vertex 0.0023875 0.0429463 0.0779582
   vertex 0.00254181 0.042215 0.0778898
  endloop
 endfacet
 facet normal -0.622427 -0.202005 0.756161
  outer loop
   vertex 0.000329501 0.0387354 0.0751392
   vertex 0.000835403 0.0388228 0.075579
   vertex 0.00038188 0.0393442 0.0753449
  endloop
 endfacet
 facet normal -0.622422 -0.202012 0.756163
  outer loop
   vertex 0.00195188 0.0383016 0.0763588
   vertex 0.00162815 0.0378861 0.0759813
   vertex 0.00215103 0.0377004 0.0763621
  endloop
 endfacet
 facet normal -0.622429 -0.202009 0.756158
  outer loop
   vertex 0.00215103 0.0377004 0.0763621
   vertex 0.00263881 0.0375464 0.0767224
   vertex 0.00246421 0.0381046 0.0767278
  endloop
 endfacet
 facet normal -0.622421 -0.20201 0.756164
  outer loop
   vertex 0.00126192 0.0430938 0.077071
   vertex 0.00154093 0.0425127 0.0771455
   vertex 0.00181542 0.0430902 0.0775257
  endloop
 endfacet
 facet normal -0.622426 -0.202002 0.756162
  outer loop
   vertex 0.00468303 0.0380705 0.0785451
   vertex 0.00423019 0.0379417 0.078138
   vertex 0.00446601 0.0374633 0.0782043
  endloop
 endfacet
 facet normal -0.622425 -0.202008 0.756161
  outer loop
   vertex 0.00162815 0.0378861 0.0759813
   vertex 0.00141986 0.0385367 0.0759836
   vertex 0.00108928 0.0380931 0.075593
  endloop
 endfacet
 facet normal -0.622424 -0.202009 0.756162
  outer loop
   vertex 0.00108928 0.0380931 0.075593
   vertex 0.00141986 0.0385367 0.0759836
   vertex 0.000835403 0.0388228 0.075579
  endloop
 endfacet
 facet normal -0.622429 -0.202001 0.75616
  outer loop
   vertex 0.00227937 0.0387024 0.0767354
   vertex 0.00246421 0.0381046 0.0767278
   vertex 0.00278957 0.0385061 0.0771029
  endloop
 endfacet
 facet normal -0.622422 -0.202006 0.756164
  outer loop
   vertex 0.000835403 0.0388228 0.075579
   vertex 0.00126123 0.0392112 0.0760332
   vertex 0.000786354 0.0395767 0.07574
  endloop
 endfacet
 facet normal -0.622424 -0.202013 0.756161
  outer loop
   vertex 0.00076507 0.0429668 0.0766281
   vertex 0.00112246 0.0425879 0.0768211
   vertex 0.00126192 0.0430938 0.077071
  endloop
 endfacet
 facet normal -0.622426 -0.202008 0.756161
  outer loop
   vertex 0.00162815 0.0378861 0.0759813
   vertex 0.00195188 0.0383016 0.0763588
   vertex 0.00141986 0.0385367 0.0759836
  endloop
 endfacet
 facet normal -0.622418 -0.202006 0.756168
  outer loop
   vertex 0.00396281 0.0407855 0.0786776
   vertex 0.00376936 0.0413046 0.078657
   vertex 0.00349536 0.0409583 0.078339
  endloop
 endfacet
 facet normal -0.622424 -0.202012 0.756161
  outer loop
   vertex 0.00154093 0.0425127 0.0771455
   vertex 0.00126192 0.0430938 0.077071
   vertex 0.00112246 0.0425879 0.0768211
  endloop
 endfacet
 facet normal -0.622425 -0.202003 0.756163
  outer loop
   vertex 0.00125824 0.0420571 0.0767911
   vertex 0.00154093 0.0425127 0.0771455
   vertex 0.00112246 0.0425879 0.0768211
  endloop
 endfacet
 facet normal -0.622427 -0.202005 0.75616
  outer loop
   vertex 0.00204734 0.0423883 0.0775291
   vertex 0.00181542 0.0430902 0.0775257
   vertex 0.00154093 0.0425127 0.0771455
  endloop
 endfacet
 facet normal -0.622423 -0.202004 0.756164
  outer loop
   vertex 0.000835403 0.0388228 0.075579
   vertex 0.00141986 0.0385367 0.0759836
   vertex 0.00126123 0.0392112 0.0760332
  endloop
 endfacet
 facet normal -0.622423 -0.201999 0.756166
  outer loop
   vertex 0.00246421 0.0381046 0.0767278
   vertex 0.00227937 0.0387024 0.0767354
   vertex 0.00195188 0.0383016 0.0763588
  endloop
 endfacet
 facet normal -0.622425 -0.202013 0.75616
  outer loop
   vertex 0.00215103 0.0377004 0.0763621
   vertex 0.00246421 0.0381046 0.0767278
   vertex 0.00195188 0.0383016 0.0763588
  endloop
 endfacet
 facet normal -0.622424 -0.202008 0.756162
  outer loop
   vertex 0.00296274 0.0379188 0.0770886
   vertex 0.00278957 0.0385061 0.0771029
   vertex 0.00246421 0.0381046 0.0767278
  endloop
 endfacet
 facet normal -0.622424 -0.202007 0.756162
  outer loop
   vertex 0.00263881 0.0375464 0.0767224
   vertex 0.00296274 0.0379188 0.0770886
   vertex 0.00246421 0.0381046 0.0767278
  endloop
 endfacet
 facet normal -0.622423 -0.20201 0.756163
  outer loop
   vertex 0.00423954 0.0384901 0.0782922
   vertex 0.00468303 0.0380705 0.0785451
   vertex 0.00478776 0.0387501 0.0788129
  endloop
 endfacet
 facet normal -0.622431 -0.202012 0.756155
  outer loop
   vertex 0.00107794 0.041027 0.0763675
   vertex 0.00159799 0.0406472 0.0766941
   vertex 0.00142915 0.041406 0.0767578
  endloop
 endfacet
 facet normal -0.622426 -0.20201 0.75616
  outer loop
   vertex 0.00125824 0.0420571 0.0767911
   vertex 0.000928171 0.0416706 0.0764161
   vertex 0.00142915 0.041406 0.0767578
  endloop
 endfacet
 facet normal -0.622423 -0.202012 0.756162
  outer loop
   vertex 0.001314 0.0374583 0.0756084
   vertex 0.00106165 0.0370497 0.0752915
   vertex 0.00154246 0.0368519 0.0756345
  endloop
 endfacet
 facet normal -0.622424 -0.202 0.756164
  outer loop
   vertex 0.00176767 0.0389346 0.0763762
   vertex 0.00141986 0.0385367 0.0759836
   vertex 0.00195188 0.0383016 0.0763588
  endloop
 endfacet
 facet normal -0.622423 -0.202007 0.756163
  outer loop
   vertex 0.000720064 0.0376078 0.0751594
   vertex 0.000237388 0.0381137 0.0748973
   vertex 0.000123294 0.0373921 0.0746106
  endloop
 endfacet
 facet normal -0.622423 -0.20201 0.756163
  outer loop
   vertex 0.000329501 0.0387354 0.0751392
   vertex 0.000237388 0.0381137 0.0748973
   vertex 0.000638444 0.0382729 0.0752699
  endloop
 endfacet
 facet normal -0.622425 -0.202005 0.756162
  outer loop
   vertex 0.00108928 0.0380931 0.075593
   vertex 0.001314 0.0374583 0.0756084
   vertex 0.00162815 0.0378861 0.0759813
  endloop
 endfacet
 facet normal -0.622428 -0.202011 0.756158
  outer loop
   vertex 0.000835403 0.0388228 0.075579
   vertex 0.000638444 0.0382729 0.0752699
   vertex 0.00108928 0.0380931 0.075593
  endloop
 endfacet
 facet normal -0.62243 -0.202013 0.756156
  outer loop
   vertex 0.00416942 0.0413279 0.0789926
   vertex 0.00396281 0.0407855 0.0786776
   vertex 0.00447559 0.0406954 0.0790756
  endloop
 endfacet
 facet normal -0.622431 -0.202015 0.756154
  outer loop
   vertex 0.00381269 0.0418583 0.0788406
   vertex 0.00376936 0.0413046 0.078657
   vertex 0.00416942 0.0413279 0.0789926
  endloop
 endfacet
 facet normal -0.622422 -0.202012 0.756162
  outer loop
   vertex 0.00381153 0.0381443 0.0778475
   vertex 0.00423019 0.0379417 0.078138
   vertex 0.00423954 0.0384901 0.0782922
  endloop
 endfacet
 facet normal -0.622423 -0.202011 0.756162
  outer loop
   vertex 0.00423954 0.0384901 0.0782922
   vertex 0.00423019 0.0379417 0.078138
   vertex 0.00468303 0.0380705 0.0785451
  endloop
 endfacet
 facet normal -0.622429 -0.202007 0.756158
  outer loop
   vertex 0.001314 0.0374583 0.0756084
   vertex 0.00108928 0.0380931 0.075593
   vertex 0.000720064 0.0376078 0.0751594
  endloop
 endfacet
 facet normal -0.622429 -0.202006 0.756159
  outer loop
   vertex 0.00106165 0.0370497 0.0752915
   vertex 0.001314 0.0374583 0.0756084
   vertex 0.000720064 0.0376078 0.0751594
  endloop
 endfacet
 facet normal -0.622432 -0.202011 0.756155
  outer loop
   vertex 0.00396281 0.0407855 0.0786776
   vertex 0.00416942 0.0413279 0.0789926
   vertex 0.00376936 0.0413046 0.078657
  endloop
 endfacet
 facet normal -0.622422 -0.202004 0.756165
  outer loop
   vertex 0.00141986 0.0385367 0.0759836
   vertex 0.00176767 0.0389346 0.0763762
   vertex 0.00126123 0.0392112 0.0760332
  endloop
 endfacet
 facet normal -0.622423 -0.202011 0.756162
  outer loop
   vertex 0.00312676 0.0405834 0.0779354
   vertex 0.00274059 0.0401868 0.0775116
   vertex 0.00324658 0.0398904 0.0778489
  endloop
 endfacet
 facet normal -0.622421 -0.20201 0.756164
  outer loop
   vertex 0.00184949 0.0372817 0.076002
   vertex 0.00162815 0.0378861 0.0759813
   vertex 0.001314 0.0374583 0.0756084
  endloop
 endfacet
 facet normal -0.622421 -0.202011 0.756164
  outer loop
   vertex 0.00154246 0.0368519 0.0756345
   vertex 0.00184949 0.0372817 0.076002
   vertex 0.001314 0.0374583 0.0756084
  endloop
 endfacet
 facet normal -0.622424 -0.202009 0.756162
  outer loop
   vertex 0.00381153 0.0381443 0.0778475
   vertex 0.00423954 0.0384901 0.0782922
   vertex 0.00367719 0.0388491 0.0779252
  endloop
 endfacet
 facet normal -0.622425 -0.202002 0.756163
  outer loop
   vertex 0.000586494 0.0368842 0.0748562
   vertex 0.00106165 0.0370497 0.0752915
   vertex 0.000720064 0.0376078 0.0751594
  endloop
 endfacet
 facet normal -0.622425 -0.202002 0.756163
  outer loop
   vertex 0.000123294 0.0373921 0.0746106
   vertex 0.000586494 0.0368842 0.0748562
   vertex 0.000720064 0.0376078 0.0751594
  endloop
 endfacet
 facet normal -0.622422 -0.202 0.756166
  outer loop
   vertex 0.00195188 0.0383016 0.0763588
   vertex 0.00227937 0.0387024 0.0767354
   vertex 0.00176767 0.0389346 0.0763762
  endloop
 endfacet
 facet normal -0.622427 -0.202012 0.756158
  outer loop
   vertex -0.000265957 0.0379983 0.0744521
   vertex -9.36412e-05 0.038681 0.0747764
   vertex -0.000576285 0.0387224 0.0743901
  endloop
 endfacet
 facet normal -0.622423 -0.202008 0.756162
  outer loop
   vertex 0.000638444 0.0382729 0.0752699
   vertex 0.000237388 0.0381137 0.0748973
   vertex 0.000720064 0.0376078 0.0751594
  endloop
 endfacet
 facet normal -0.622428 -0.202008 0.756159
  outer loop
   vertex 0.00108928 0.0380931 0.075593
   vertex 0.000638444 0.0382729 0.0752699
   vertex 0.000720064 0.0376078 0.0751594
  endloop
 endfacet
 facet normal -0.62243 -0.202011 0.756157
  outer loop
   vertex 0.000331253 0.0407149 0.0756695
   vertex 0.00075468 0.0402226 0.0758865
   vertex 0.000775693 0.0407382 0.0760415
  endloop
 endfacet
 facet normal -0.622423 -0.20201 0.756163
  outer loop
   vertex 0.00478776 0.0387501 0.0788129
   vertex 0.00423049 0.039217 0.0784789
   vertex 0.00423954 0.0384901 0.0782922
  endloop
 endfacet
 facet normal -0.622427 -0.202011 0.756159
  outer loop
   vertex 0.00324658 0.0398904 0.0778489
   vertex 0.00368007 0.0402435 0.0783001
   vertex 0.00312676 0.0405834 0.0779354
  endloop
 endfacet
 facet normal -0.622419 -0.202014 0.756164
  outer loop
   vertex 0.00114121 0.0404302 0.0762601
   vertex 0.000775693 0.0407382 0.0760415
   vertex 0.00075468 0.0402226 0.0758865
  endloop
 endfacet
 facet normal -0.622428 -0.202008 0.756159
  outer loop
   vertex 0.000786354 0.0395767 0.07574
   vertex 0.00116981 0.0398488 0.0761283
   vertex 0.00075468 0.0402226 0.0758865
  endloop
 endfacet
 facet normal -0.622426 -0.202011 0.756159
  outer loop
   vertex 0.00196594 0.0411758 0.0771381
   vertex 0.00142915 0.041406 0.0767578
   vertex 0.00159799 0.0406472 0.0766941
  endloop
 endfacet
 facet normal -0.622424 -0.20201 0.756161
  outer loop
   vertex 0.00367719 0.0388491 0.0779252
   vertex 0.00423954 0.0384901 0.0782922
   vertex 0.00423049 0.039217 0.0784789
  endloop
 endfacet
 facet normal -0.622422 -0.202008 0.756164
  outer loop
   vertex 0.00477848 0.0394126 0.0789822
   vertex 0.00438402 0.0397315 0.0787427
   vertex 0.00423049 0.039217 0.0784789
  endloop
 endfacet
 facet normal -0.622422 -0.202008 0.756164
  outer loop
   vertex 0.00478776 0.0387501 0.0788129
   vertex 0.00477848 0.0394126 0.0789822
   vertex 0.00423049 0.039217 0.0784789
  endloop
 endfacet
 facet normal -0.622418 -0.202004 0.756168
  outer loop
   vertex 0.00368007 0.0402435 0.0783001
   vertex 0.00396281 0.0407855 0.0786776
   vertex 0.00349536 0.0409583 0.078339
  endloop
 endfacet
 facet normal -0.622426 -0.202006 0.756161
  outer loop
   vertex 0.00312676 0.0405834 0.0779354
   vertex 0.00368007 0.0402435 0.0783001
   vertex 0.00349536 0.0409583 0.078339
  endloop
 endfacet
 facet normal -0.622423 -0.202011 0.756162
  outer loop
   vertex 0.00126123 0.0392112 0.0760332
   vertex 0.00176767 0.0389346 0.0763762
   vertex 0.00160983 0.0395602 0.0764134
  endloop
 endfacet
 facet normal -0.622419 -0.202009 0.756166
  outer loop
   vertex 0.00368007 0.0402435 0.0783001
   vertex 0.00370087 0.0395453 0.0781307
   vertex 0.00403878 0.0397851 0.0784729
  endloop
 endfacet
 facet normal -0.62242 -0.202006 0.756166
  outer loop
   vertex 0.00420143 0.0402123 0.0787209
   vertex 0.00438402 0.0397315 0.0787427
   vertex 0.00467424 0.040056 0.0790683
  endloop
 endfacet
 facet normal -0.622418 -0.202008 0.756167
  outer loop
   vertex 0.00142915 0.041406 0.0767578
   vertex 0.00174891 0.041872 0.0771455
   vertex 0.00125824 0.0420571 0.0767911
  endloop
 endfacet
 facet normal -0.622419 -0.202009 0.756166
  outer loop
   vertex 0.00125824 0.0420571 0.0767911
   vertex 0.00174891 0.041872 0.0771455
   vertex 0.00154093 0.0425127 0.0771455
  endloop
 endfacet
 facet normal -0.622429 -0.202003 0.756159
  outer loop
   vertex 0.00345157 0.0377346 0.0774417
   vertex 0.003942 0.0375504 0.0777962
   vertex 0.00381153 0.0381443 0.0778475
  endloop
 endfacet
 facet normal -0.622421 -0.202002 0.756167
  outer loop
   vertex 0.00381153 0.0381443 0.0778475
   vertex 0.003942 0.0375504 0.0777962
   vertex 0.00423019 0.0379417 0.078138
  endloop
 endfacet
 facet normal -0.622423 -0.201999 0.756165
  outer loop
   vertex 0.00368007 0.0402435 0.0783001
   vertex 0.00420143 0.0402123 0.0787209
   vertex 0.00396281 0.0407855 0.0786776
  endloop
 endfacet
 facet normal -0.622425 -0.202008 0.756161
  outer loop
   vertex 0.00059923 0.0412683 0.0760379
   vertex 8.38822e-05 0.0414842 0.0756714
   vertex 0.000331253 0.0407149 0.0756695
  endloop
 endfacet
 facet normal -0.622425 -0.202001 0.756163
  outer loop
   vertex 0.00174891 0.041872 0.0771455
   vertex 0.00142915 0.041406 0.0767578
   vertex 0.00196594 0.0411758 0.0771381
  endloop
 endfacet
 facet normal -0.622428 -0.202012 0.756158
  outer loop
   vertex 0.00154093 0.0425127 0.0771455
   vertex 0.00174891 0.041872 0.0771455
   vertex 0.00204734 0.0423883 0.0775291
  endloop
 endfacet
 facet normal -0.622422 -0.20201 0.756163
  outer loop
   vertex 0.003942 0.0375504 0.0777962
   vertex 0.00411464 0.0368979 0.077764
   vertex 0.00446601 0.0374633 0.0782043
  endloop
 endfacet
 facet normal -0.622422 -0.202 0.756166
  outer loop
   vertex 0.00423019 0.0379417 0.078138
   vertex 0.003942 0.0375504 0.0777962
   vertex 0.00446601 0.0374633 0.0782043
  endloop
 endfacet
 facet normal -0.622431 -0.202003 0.756158
  outer loop
   vertex 0.000331253 0.0407149 0.0756695
   vertex 0.000775693 0.0407382 0.0760415
   vertex 0.00059923 0.0412683 0.0760379
  endloop
 endfacet
 facet normal -0.62243 -0.202002 0.756159
  outer loop
   vertex 0.00447559 0.0406954 0.0790756
   vertex 0.00396281 0.0407855 0.0786776
   vertex 0.00420143 0.0402123 0.0787209
  endloop
 endfacet
 facet normal -0.62242 -0.202011 0.756164
  outer loop
   vertex 0.00467424 0.040056 0.0790683
   vertex 0.00447559 0.0406954 0.0790756
   vertex 0.00420143 0.0402123 0.0787209
  endloop
 endfacet
 facet normal -0.62242 -0.202007 0.756165
  outer loop
   vertex 8.38822e-05 0.0414842 0.0756714
   vertex -0.00013545 0.042296 0.0757077
   vertex -0.000487765 0.0417317 0.0752669
  endloop
 endfacet
 facet normal -0.622431 -0.202012 0.756155
  outer loop
   vertex 0.00227937 0.0387024 0.0767354
   vertex 0.00278957 0.0385061 0.0771029
   vertex 0.00259758 0.039118 0.0771083
  endloop
 endfacet
 facet normal -0.622418 -0.202007 0.756167
  outer loop
   vertex 0.00290529 0.0395261 0.0774707
   vertex 0.00332997 0.0393325 0.0777685
   vertex 0.00324658 0.0398904 0.0778489
  endloop
 endfacet
 facet normal -0.622423 -0.202007 0.756163
  outer loop
   vertex 0.0029935 0.0419524 0.0781915
   vertex 0.00341604 0.0416078 0.0784472
   vertex 0.0033924 0.0423118 0.0786158
  endloop
 endfacet
 facet normal -0.622425 -0.202017 0.756159
  outer loop
   vertex 0.00227937 0.0387024 0.0767354
   vertex 0.00209302 0.0393328 0.0767504
   vertex 0.00176767 0.0389346 0.0763762
  endloop
 endfacet
 facet normal -0.622429 -0.202012 0.756157
  outer loop
   vertex 0.00176767 0.0389346 0.0763762
   vertex 0.00209302 0.0393328 0.0767504
   vertex 0.00160983 0.0395602 0.0764134
  endloop
 endfacet
 facet normal -0.622421 -0.202011 0.756163
  outer loop
   vertex 0.000329501 0.0387354 0.0751392
   vertex -9.36412e-05 0.038681 0.0747764
   vertex 0.000237388 0.0381137 0.0748973
  endloop
 endfacet
 facet normal -0.622424 -0.202013 0.75616
  outer loop
   vertex 0.000237388 0.0381137 0.0748973
   vertex -9.36412e-05 0.038681 0.0747764
   vertex -0.000265957 0.0379983 0.0744521
  endloop
 endfacet
 facet normal -0.622423 -0.202009 0.756162
  outer loop
   vertex 0.00349536 0.0409583 0.078339
   vertex 0.00304396 0.0412805 0.0780535
   vertex 0.00312676 0.0405834 0.0779354
  endloop
 endfacet
 facet normal -0.62243 -0.202009 0.756157
  outer loop
   vertex 0.00189681 0.0399675 0.0767585
   vertex 0.00148163 0.0400902 0.0764495
   vertex 0.00160983 0.0395602 0.0764134
  endloop
 endfacet
 facet normal -0.62243 -0.202003 0.756159
  outer loop
   vertex 0.00240529 0.0397529 0.0771197
   vertex 0.00259758 0.039118 0.0771083
   vertex 0.00290529 0.0395261 0.0774707
  endloop
 endfacet
 facet normal -0.622418 -0.202005 0.756168
  outer loop
   vertex 0.00376936 0.0413046 0.078657
   vertex 0.00341604 0.0416078 0.0784472
   vertex 0.00349536 0.0409583 0.078339
  endloop
 endfacet
 facet normal -0.622424 -0.202004 0.756163
  outer loop
   vertex 0.00189681 0.0399675 0.0767585
   vertex 0.00219571 0.0404497 0.0771333
   vertex 0.00159799 0.0406472 0.0766941
  endloop
 endfacet
 facet normal -0.622425 -0.202013 0.75616
  outer loop
   vertex 0.00159799 0.0406472 0.0766941
   vertex 0.00219571 0.0404497 0.0771333
   vertex 0.00196594 0.0411758 0.0771381
  endloop
 endfacet
 facet normal -0.622418 -0.202005 0.756168
  outer loop
   vertex 0.00267874 0.0416239 0.0778446
   vertex 0.0029935 0.0419524 0.0781915
   vertex 0.00254181 0.042215 0.0778898
  endloop
 endfacet
 facet normal -0.622423 -0.202013 0.756162
  outer loop
   vertex 0.00267874 0.0416239 0.0778446
   vertex 0.00257127 0.0409963 0.0775885
   vertex 0.00304396 0.0412805 0.0780535
  endloop
 endfacet
 facet normal -0.622423 -0.202011 0.756162
  outer loop
   vertex 0.00308916 0.0361938 0.0767318
   vertex 0.00264848 0.0366707 0.0764965
   vertex 0.0024155 0.0360853 0.0761483
  endloop
 endfacet
 facet normal -0.622427 -0.202008 0.756159
  outer loop
   vertex 0.0024155 0.0360853 0.0761483
   vertex 0.00264848 0.0366707 0.0764965
   vertex 0.00210028 0.0366995 0.0760529
  endloop
 endfacet
 facet normal -0.622422 -0.202005 0.756165
  outer loop
   vertex 0.00296274 0.0379188 0.0770886
   vertex 0.00345157 0.0377346 0.0774417
   vertex 0.00330282 0.0383407 0.0774812
  endloop
 endfacet
 facet normal -0.622428 -0.202005 0.756159
  outer loop
   vertex 0.00263881 0.0375464 0.0767224
   vertex 0.00215103 0.0377004 0.0763621
   vertex 0.00236242 0.0371583 0.0763912
  endloop
 endfacet
 facet normal -0.622419 -0.202013 0.756165
  outer loop
   vertex 0.00310448 0.0389322 0.077476
   vertex 0.00332997 0.0393325 0.0777685
   vertex 0.00290529 0.0395261 0.0774707
  endloop
 endfacet
 facet normal -0.622426 -0.202018 0.756158
  outer loop
   vertex 0.00209302 0.0393328 0.0767504
   vertex 0.00227937 0.0387024 0.0767354
   vertex 0.00259758 0.039118 0.0771083
  endloop
 endfacet
 facet normal -0.622424 -0.202001 0.756164
  outer loop
   vertex 0.00240529 0.0397529 0.0771197
   vertex 0.00209302 0.0393328 0.0767504
   vertex 0.00259758 0.039118 0.0771083
  endloop
 endfacet
 facet normal -0.622423 -0.202003 0.756164
  outer loop
   vertex -9.36412e-05 0.038681 0.0747764
   vertex 0.000329501 0.0387354 0.0751392
   vertex 5.12238e-05 0.0391708 0.0750264
  endloop
 endfacet
 facet normal -0.622419 -0.202008 0.756167
  outer loop
   vertex 0.00209302 0.0393328 0.0767504
   vertex 0.00240529 0.0397529 0.0771197
   vertex 0.00189681 0.0399675 0.0767585
  endloop
 endfacet
 facet normal -0.622429 -0.202011 0.756157
  outer loop
   vertex 0.00160983 0.0395602 0.0764134
   vertex 0.00209302 0.0393328 0.0767504
   vertex 0.00189681 0.0399675 0.0767585
  endloop
 endfacet
 facet normal -0.622422 -0.202005 0.756165
  outer loop
   vertex 0.00304396 0.0412805 0.0780535
   vertex 0.00349536 0.0409583 0.078339
   vertex 0.00341604 0.0416078 0.0784472
  endloop
 endfacet
 facet normal -0.622423 -0.202009 0.756163
  outer loop
   vertex 0.00308916 0.0361938 0.0767318
   vertex 0.00364283 0.0364597 0.0772586
   vertex 0.00313896 0.036815 0.0769387
  endloop
 endfacet
 facet normal -0.62243 -0.202007 0.756157
  outer loop
   vertex 0.00148163 0.0400902 0.0764495
   vertex 0.00189681 0.0399675 0.0767585
   vertex 0.00159799 0.0406472 0.0766941
  endloop
 endfacet
 facet normal -0.622424 -0.202011 0.756161
  outer loop
   vertex 0.00240529 0.0397529 0.0771197
   vertex 0.00274059 0.0401868 0.0775116
   vertex 0.00219571 0.0404497 0.0771333
  endloop
 endfacet
 facet normal -0.622419 -0.20201 0.756166
  outer loop
   vertex 0.00189681 0.0399675 0.0767585
   vertex 0.00240529 0.0397529 0.0771197
   vertex 0.00219571 0.0404497 0.0771333
  endloop
 endfacet
 facet normal -0.62243 -0.202004 0.756158
  outer loop
   vertex 0.00274059 0.0401868 0.0775116
   vertex 0.00240529 0.0397529 0.0771197
   vertex 0.00290529 0.0395261 0.0774707
  endloop
 endfacet
 facet normal -0.622421 -0.202003 0.756166
  outer loop
   vertex 0.00324658 0.0398904 0.0778489
   vertex 0.00274059 0.0401868 0.0775116
   vertex 0.00290529 0.0395261 0.0774707
  endloop
 endfacet
 facet normal -0.622418 -0.202006 0.756167
  outer loop
   vertex 0.00289574 0.0426905 0.0783082
   vertex 0.00254181 0.042215 0.0778898
   vertex 0.0029935 0.0419524 0.0781915
  endloop
 endfacet
 facet normal -0.622424 -0.202006 0.756163
  outer loop
   vertex 0.0033924 0.0423118 0.0786158
   vertex 0.00289574 0.0426905 0.0783082
   vertex 0.0029935 0.0419524 0.0781915
  endloop
 endfacet
 facet normal -0.62243 -0.202006 0.756158
  outer loop
   vertex 0.00381269 0.0418583 0.0788406
   vertex 0.0033924 0.0423118 0.0786158
   vertex 0.00341604 0.0416078 0.0784472
  endloop
 endfacet
 facet normal -0.622424 -0.202018 0.756159
  outer loop
   vertex 0.00376936 0.0413046 0.078657
   vertex 0.00381269 0.0418583 0.0788406
   vertex 0.00341604 0.0416078 0.0784472
  endloop
 endfacet
 facet normal -0.622424 -0.202009 0.756162
  outer loop
   vertex 0.00219571 0.0404497 0.0771333
   vertex 0.00274059 0.0401868 0.0775116
   vertex 0.00257127 0.0409963 0.0775885
  endloop
 endfacet
 facet normal -0.622421 -0.202012 0.756163
  outer loop
   vertex 0.00196594 0.0411758 0.0771381
   vertex 0.00219571 0.0404497 0.0771333
   vertex 0.00257127 0.0409963 0.0775885
  endloop
 endfacet
 facet normal -0.622425 -0.202009 0.756161
  outer loop
   vertex 0.00257127 0.0409963 0.0775885
   vertex 0.00274059 0.0401868 0.0775116
   vertex 0.00312676 0.0405834 0.0779354
  endloop
 endfacet
 facet normal -0.622425 -0.202009 0.756161
  outer loop
   vertex 0.00304396 0.0412805 0.0780535
   vertex 0.00257127 0.0409963 0.0775885
   vertex 0.00312676 0.0405834 0.0779354
  endloop
 endfacet
 facet normal -0.622427 -0.202008 0.756159
  outer loop
   vertex 0.00210028 0.0366995 0.0760529
   vertex 0.00264848 0.0366707 0.0764965
   vertex 0.00236242 0.0371583 0.0763912
  endloop
 endfacet
 facet normal -0.622428 -0.202009 0.756158
  outer loop
   vertex -0.000722174 0.0410531 0.0748927
   vertex -0.000815906 0.040298 0.0746138
   vertex -0.000407752 0.0401719 0.0749161
  endloop
 endfacet
 facet normal -0.62242 -0.202009 0.756165
  outer loop
   vertex 0.00259758 0.039118 0.0771083
   vertex 0.00278957 0.0385061 0.0771029
   vertex 0.00310448 0.0389322 0.077476
  endloop
 endfacet
 facet normal -0.622421 -0.202013 0.756163
  outer loop
   vertex 0.00290529 0.0395261 0.0774707
   vertex 0.00259758 0.039118 0.0771083
   vertex 0.00310448 0.0389322 0.077476
  endloop
 endfacet
 facet normal -0.622419 -0.202005 0.756167
  outer loop
   vertex 0.0029935 0.0419524 0.0781915
   vertex 0.00267874 0.0416239 0.0778446
   vertex 0.00304396 0.0412805 0.0780535
  endloop
 endfacet
 facet normal -0.622422 -0.202004 0.756165
  outer loop
   vertex 0.00341604 0.0416078 0.0784472
   vertex 0.0029935 0.0419524 0.0781915
   vertex 0.00304396 0.0412805 0.0780535
  endloop
 endfacet
 facet normal -0.622424 -0.202008 0.756162
  outer loop
   vertex 0.00038188 0.0393442 0.0753449
   vertex 5.7333e-06 0.0397289 0.0751381
   vertex 5.12238e-05 0.0391708 0.0750264
  endloop
 endfacet
 facet normal -0.622422 -0.202009 0.756163
  outer loop
   vertex 0.00263881 0.0375464 0.0767224
   vertex 0.00309273 0.0373683 0.0770485
   vertex 0.00296274 0.0379188 0.0770886
  endloop
 endfacet
 facet normal -0.622422 -0.202009 0.756163
  outer loop
   vertex 0.00296274 0.0379188 0.0770886
   vertex 0.00309273 0.0373683 0.0770485
   vertex 0.00345157 0.0377346 0.0774417
  endloop
 endfacet
 facet normal -0.622427 -0.202009 0.75616
  outer loop
   vertex 0.00159799 0.0406472 0.0766941
   vertex 0.00114121 0.0404302 0.0762601
   vertex 0.00148163 0.0400902 0.0764495
  endloop
 endfacet
 facet normal -0.622428 -0.202017 0.756157
  outer loop
   vertex 0.000928171 0.0416706 0.0764161
   vertex 0.00107794 0.041027 0.0763675
   vertex 0.00142915 0.041406 0.0767578
  endloop
 endfacet
 facet normal -0.62243 -0.202007 0.756158
  outer loop
   vertex 0.00332997 0.0393325 0.0777685
   vertex 0.00370087 0.0395453 0.0781307
   vertex 0.00324658 0.0398904 0.0778489
  endloop
 endfacet
 facet normal -0.62243 -0.202007 0.756158
  outer loop
   vertex 0.00324658 0.0398904 0.0778489
   vertex 0.00370087 0.0395453 0.0781307
   vertex 0.00368007 0.0402435 0.0783001
  endloop
 endfacet
 facet normal -0.62242 -0.202007 0.756165
  outer loop
   vertex 0.00148163 0.0400902 0.0764495
   vertex 0.00116981 0.0398488 0.0761283
   vertex 0.00160983 0.0395602 0.0764134
  endloop
 endfacet
 facet normal -0.622431 -0.202008 0.756157
  outer loop
   vertex 0.00075468 0.0402226 0.0758865
   vertex 0.000367826 0.0399914 0.0755063
   vertex 0.000786354 0.0395767 0.07574
  endloop
 endfacet
 facet normal -0.622428 -0.202004 0.75616
  outer loop
   vertex 0.000786354 0.0395767 0.07574
   vertex 0.000367826 0.0399914 0.0755063
   vertex 0.00038188 0.0393442 0.0753449
  endloop
 endfacet
 facet normal -0.62243 -0.202009 0.756157
  outer loop
   vertex 0.00345157 0.0377346 0.0774417
   vertex 0.0035656 0.037135 0.0773754
   vertex 0.003942 0.0375504 0.0777962
  endloop
 endfacet
 facet normal -0.622428 -0.202011 0.756158
  outer loop
   vertex 0.003942 0.0375504 0.0777962
   vertex 0.0035656 0.037135 0.0773754
   vertex 0.00411464 0.0368979 0.077764
  endloop
 endfacet
 facet normal -0.622426 -0.202001 0.756162
  outer loop
   vertex 0.00196594 0.0411758 0.0771381
   vertex 0.00225795 0.0417092 0.077521
   vertex 0.00174891 0.041872 0.0771455
  endloop
 endfacet
 facet normal -0.622427 -0.202013 0.756158
  outer loop
   vertex 0.00174891 0.041872 0.0771455
   vertex 0.00225795 0.0417092 0.077521
   vertex 0.00204734 0.0423883 0.0775291
  endloop
 endfacet
 facet normal -0.622425 -0.202013 0.75616
  outer loop
   vertex -0.000722174 0.0410531 0.0748927
   vertex -0.000204855 0.0409183 0.0752825
   vertex -0.000487765 0.0417317 0.0752669
  endloop
 endfacet
 facet normal -0.622421 -0.202011 0.756164
  outer loop
   vertex -0.000487765 0.0417317 0.0752669
   vertex -0.000204855 0.0409183 0.0752825
   vertex 8.38822e-05 0.0414842 0.0756714
  endloop
 endfacet
 facet normal -0.622425 -0.202006 0.756162
  outer loop
   vertex 0.00264848 0.0366707 0.0764965
   vertex 0.00277817 0.0371051 0.0767193
   vertex 0.00236242 0.0371583 0.0763912
  endloop
 endfacet
 facet normal -0.622425 -0.202008 0.756161
  outer loop
   vertex 0.00236242 0.0371583 0.0763912
   vertex 0.00277817 0.0371051 0.0767193
   vertex 0.00263881 0.0375464 0.0767224
  endloop
 endfacet
 facet normal -0.622419 -0.202009 0.756166
  outer loop
   vertex 5.12238e-05 0.0391708 0.0750264
   vertex 5.7333e-06 0.0397289 0.0751381
   vertex -0.000303646 0.039334 0.0747779
  endloop
 endfacet
 facet normal -0.622428 -0.202004 0.75616
  outer loop
   vertex 0.00438402 0.0397315 0.0787427
   vertex 0.00403878 0.0397851 0.0784729
   vertex 0.00423049 0.039217 0.0784789
  endloop
 endfacet
 facet normal -0.622422 -0.202002 0.756165
  outer loop
   vertex 0.00423049 0.039217 0.0784789
   vertex 0.00403878 0.0397851 0.0784729
   vertex 0.00370087 0.0395453 0.0781307
  endloop
 endfacet
 facet normal -0.622428 -0.20201 0.756159
  outer loop
   vertex -0.00013545 0.042296 0.0757077
   vertex 0.000423359 0.0419557 0.0760767
   vertex 0.000279075 0.0426959 0.0761557
  endloop
 endfacet
 facet normal -0.622423 -0.202009 0.756162
  outer loop
   vertex 0.000279075 0.0426959 0.0761557
   vertex 0.000423359 0.0419557 0.0760767
   vertex 0.000794427 0.0423204 0.0764796
  endloop
 endfacet
 facet normal -0.622422 -0.202008 0.756164
  outer loop
   vertex 0.00309273 0.0373683 0.0770485
   vertex 0.00263881 0.0375464 0.0767224
   vertex 0.00277817 0.0371051 0.0767193
  endloop
 endfacet
 facet normal -0.622422 -0.202009 0.756164
  outer loop
   vertex 0.00313896 0.036815 0.0769387
   vertex 0.00309273 0.0373683 0.0770485
   vertex 0.00277817 0.0371051 0.0767193
  endloop
 endfacet
 facet normal -0.622429 -0.202005 0.756159
  outer loop
   vertex 0.00114121 0.0404302 0.0762601
   vertex 0.00159799 0.0406472 0.0766941
   vertex 0.00107794 0.041027 0.0763675
  endloop
 endfacet
 facet normal -0.622415 -0.202005 0.75617
  outer loop
   vertex 0.000775693 0.0407382 0.0760415
   vertex 0.00114121 0.0404302 0.0762601
   vertex 0.00107794 0.041027 0.0763675
  endloop
 endfacet
 facet normal -0.622429 -0.202008 0.756158
  outer loop
   vertex 0.00370087 0.0395453 0.0781307
   vertex 0.00332997 0.0393325 0.0777685
   vertex 0.00367719 0.0388491 0.0779252
  endloop
 endfacet
 facet normal -0.622424 -0.20201 0.756161
  outer loop
   vertex 0.00423049 0.039217 0.0784789
   vertex 0.00370087 0.0395453 0.0781307
   vertex 0.00367719 0.0388491 0.0779252
  endloop
 endfacet
 facet normal -0.622429 -0.20201 0.756157
  outer loop
   vertex 0.000367826 0.0399914 0.0755063
   vertex 0.00075468 0.0402226 0.0758865
   vertex 0.000331253 0.0407149 0.0756695
  endloop
 endfacet
 facet normal -0.62242 -0.202012 0.756164
  outer loop
   vertex 4.73471e-06 0.0403182 0.0752947
   vertex 0.000367826 0.0399914 0.0755063
   vertex 0.000331253 0.0407149 0.0756695
  endloop
 endfacet
 facet normal -0.622428 -0.202009 0.756159
  outer loop
   vertex 0.00364283 0.0364597 0.0772586
   vertex 0.00411464 0.0368979 0.077764
   vertex 0.0035656 0.037135 0.0773754
  endloop
 endfacet
 facet normal -0.622423 -0.202009 0.756163
  outer loop
   vertex 0.00313896 0.036815 0.0769387
   vertex 0.00364283 0.0364597 0.0772586
   vertex 0.0035656 0.037135 0.0773754
  endloop
 endfacet
 facet normal -0.622423 -0.202008 0.756163
  outer loop
   vertex 0.0035656 0.037135 0.0773754
   vertex 0.00345157 0.0377346 0.0774417
   vertex 0.00309273 0.0373683 0.0770485
  endloop
 endfacet
 facet normal -0.622423 -0.202009 0.756163
  outer loop
   vertex 0.00313896 0.036815 0.0769387
   vertex 0.0035656 0.037135 0.0773754
   vertex 0.00309273 0.0373683 0.0770485
  endloop
 endfacet
 facet normal -0.622428 -0.202004 0.75616
  outer loop
   vertex 0.00125824 0.0420571 0.0767911
   vertex 0.00112246 0.0425879 0.0768211
   vertex 0.000794427 0.0423204 0.0764796
  endloop
 endfacet
 facet normal -0.622429 -0.202006 0.756159
  outer loop
   vertex 0.000928171 0.0416706 0.0764161
   vertex 0.00125824 0.0420571 0.0767911
   vertex 0.000794427 0.0423204 0.0764796
  endloop
 endfacet
 facet normal -0.622421 -0.202006 0.756165
  outer loop
   vertex 0.00225795 0.0417092 0.077521
   vertex 0.00196594 0.0411758 0.0771381
   vertex 0.00257127 0.0409963 0.0775885
  endloop
 endfacet
 facet normal -0.622429 -0.20201 0.756158
  outer loop
   vertex 0.00267874 0.0416239 0.0778446
   vertex 0.00225795 0.0417092 0.077521
   vertex 0.00257127 0.0409963 0.0775885
  endloop
 endfacet
 facet normal -0.622429 -0.202007 0.756158
  outer loop
   vertex 0.00225795 0.0417092 0.077521
   vertex 0.00267874 0.0416239 0.0778446
   vertex 0.00254181 0.042215 0.0778898
  endloop
 endfacet
 facet normal -0.622423 -0.202012 0.756162
  outer loop
   vertex 0.00204734 0.0423883 0.0775291
   vertex 0.00225795 0.0417092 0.077521
   vertex 0.00254181 0.042215 0.0778898
  endloop
 endfacet
 facet normal -0.622421 -0.202007 0.756165
  outer loop
   vertex 0.00278957 0.0385061 0.0771029
   vertex 0.00296274 0.0379188 0.0770886
   vertex 0.00330282 0.0383407 0.0774812
  endloop
 endfacet
 facet normal -0.622421 -0.202008 0.756165
  outer loop
   vertex 0.00310448 0.0389322 0.077476
   vertex 0.00278957 0.0385061 0.0771029
   vertex 0.00330282 0.0383407 0.0774812
  endloop
 endfacet
 facet normal -0.622426 -0.202006 0.756161
  outer loop
   vertex 0.00332997 0.0393325 0.0777685
   vertex 0.00310448 0.0389322 0.077476
   vertex 0.00367719 0.0388491 0.0779252
  endloop
 endfacet
 facet normal -0.622422 -0.202013 0.756163
  outer loop
   vertex 0.00126123 0.0392112 0.0760332
   vertex 0.00160983 0.0395602 0.0764134
   vertex 0.00116981 0.0398488 0.0761283
  endloop
 endfacet
 facet normal -0.622425 -0.202013 0.75616
  outer loop
   vertex 0.000786354 0.0395767 0.07574
   vertex 0.00126123 0.0392112 0.0760332
   vertex 0.00116981 0.0398488 0.0761283
  endloop
 endfacet
 facet normal -0.622426 -0.202011 0.75616
  outer loop
   vertex 8.38822e-05 0.0414842 0.0756714
   vertex 0.00059923 0.0412683 0.0760379
   vertex 0.000423359 0.0419557 0.0760767
  endloop
 endfacet
 facet normal -0.622427 -0.202009 0.756159
  outer loop
   vertex -0.00013545 0.042296 0.0757077
   vertex 8.38822e-05 0.0414842 0.0756714
   vertex 0.000423359 0.0419557 0.0760767
  endloop
 endfacet
 facet normal -0.622427 -0.202009 0.756159
  outer loop
   vertex 0.00403878 0.0397851 0.0784729
   vertex 0.00438402 0.0397315 0.0787427
   vertex 0.00420143 0.0402123 0.0787209
  endloop
 endfacet
 facet normal -0.622422 -0.202013 0.756162
  outer loop
   vertex 0.00368007 0.0402435 0.0783001
   vertex 0.00403878 0.0397851 0.0784729
   vertex 0.00420143 0.0402123 0.0787209
  endloop
 endfacet
 facet normal -0.622425 -0.202006 0.756162
  outer loop
   vertex -0.000204855 0.0409183 0.0752825
   vertex 4.73471e-06 0.0403182 0.0752947
   vertex 0.000331253 0.0407149 0.0756695
  endloop
 endfacet
 facet normal -0.622425 -0.202008 0.756161
  outer loop
   vertex 8.38822e-05 0.0414842 0.0756714
   vertex -0.000204855 0.0409183 0.0752825
   vertex 0.000331253 0.0407149 0.0756695
  endloop
 endfacet
 facet normal -0.622426 -0.202008 0.75616
  outer loop
   vertex -0.000407752 0.0401719 0.0749161
   vertex 5.7333e-06 0.0397289 0.0751381
   vertex 4.73471e-06 0.0403182 0.0752947
  endloop
 endfacet
 facet normal -0.62242 -0.20201 0.756165
  outer loop
   vertex 0.000367826 0.0399914 0.0755063
   vertex 4.73471e-06 0.0403182 0.0752947
   vertex 5.7333e-06 0.0397289 0.0751381
  endloop
 endfacet
 facet normal -0.622422 -0.202005 0.756164
  outer loop
   vertex 0.00038188 0.0393442 0.0753449
   vertex 0.000367826 0.0399914 0.0755063
   vertex 5.7333e-06 0.0397289 0.0751381
  endloop
 endfacet
 facet normal -0.622427 -0.202011 0.756159
  outer loop
   vertex 0.000423359 0.0419557 0.0760767
   vertex 0.00059923 0.0412683 0.0760379
   vertex 0.000928171 0.0416706 0.0764161
  endloop
 endfacet
 facet normal -0.622426 -0.202006 0.756161
  outer loop
   vertex 0.000794427 0.0423204 0.0764796
   vertex 0.000423359 0.0419557 0.0760767
   vertex 0.000928171 0.0416706 0.0764161
  endloop
 endfacet
 facet normal -0.622425 -0.202002 0.756163
  outer loop
   vertex 0.00114121 0.0404302 0.0762601
   vertex 0.00075468 0.0402226 0.0758865
   vertex 0.00116981 0.0398488 0.0761283
  endloop
 endfacet
 facet normal -0.622423 -0.202002 0.756164
  outer loop
   vertex 0.00148163 0.0400902 0.0764495
   vertex 0.00114121 0.0404302 0.0762601
   vertex 0.00116981 0.0398488 0.0761283
  endloop
 endfacet
 facet normal -0.622427 -0.20201 0.756159
  outer loop
   vertex 0.00330282 0.0383407 0.0774812
   vertex 0.00381153 0.0381443 0.0778475
   vertex 0.00367719 0.0388491 0.0779252
  endloop
 endfacet
 facet normal -0.622426 -0.20201 0.75616
  outer loop
   vertex 0.00310448 0.0389322 0.077476
   vertex 0.00330282 0.0383407 0.0774812
   vertex 0.00367719 0.0388491 0.0779252
  endloop
 endfacet
 facet normal -0.62242 -0.201999 0.756168
  outer loop
   vertex 0.00059923 0.0412683 0.0760379
   vertex 0.000775693 0.0407382 0.0760415
   vertex 0.00107794 0.041027 0.0763675
  endloop
 endfacet
 facet normal -0.622423 -0.202016 0.756161
  outer loop
   vertex 0.000928171 0.0416706 0.0764161
   vertex 0.00059923 0.0412683 0.0760379
   vertex 0.00107794 0.041027 0.0763675
  endloop
 endfacet
 facet normal -0.622426 -0.20201 0.75616
  outer loop
   vertex -0.000767661 0.0395074 0.0744423
   vertex -0.000576285 0.0387224 0.0743901
   vertex -0.000303646 0.039334 0.0747779
  endloop
 endfacet
 facet normal -0.622425 -0.202008 0.756162
  outer loop
   vertex -0.000204855 0.0409183 0.0752825
   vertex -0.000722174 0.0410531 0.0748927
   vertex -0.000407752 0.0401719 0.0749161
  endloop
 endfacet
 facet normal -0.622427 -0.202007 0.75616
  outer loop
   vertex 4.73471e-06 0.0403182 0.0752947
   vertex -0.000204855 0.0409183 0.0752825
   vertex -0.000407752 0.0401719 0.0749161
  endloop
 endfacet
 facet normal -0.622419 -0.202006 0.756167
  outer loop
   vertex -9.36412e-05 0.038681 0.0747764
   vertex 5.12238e-05 0.0391708 0.0750264
   vertex -0.000303646 0.039334 0.0747779
  endloop
 endfacet
 facet normal -0.622428 -0.202008 0.756159
  outer loop
   vertex -0.000576285 0.0387224 0.0743901
   vertex -9.36412e-05 0.038681 0.0747764
   vertex -0.000303646 0.039334 0.0747779
  endloop
 endfacet
 facet normal -0.622424 -0.202012 0.756161
  outer loop
   vertex 0.000794427 0.0423204 0.0764796
   vertex 0.00112246 0.0425879 0.0768211
   vertex 0.00076507 0.0429668 0.0766281
  endloop
 endfacet
 facet normal -0.622424 -0.202012 0.756161
  outer loop
   vertex 0.000279075 0.0426959 0.0761557
   vertex 0.000794427 0.0423204 0.0764796
   vertex 0.00076507 0.0429668 0.0766281
  endloop
 endfacet
 facet normal -0.622423 -0.202004 0.756164
  outer loop
   vertex 5.7333e-06 0.0397289 0.0751381
   vertex -0.000407752 0.0401719 0.0749161
   vertex -0.000303646 0.039334 0.0747779
  endloop
 endfacet
 facet normal -0.622425 -0.202004 0.756162
  outer loop
   vertex -0.000767661 0.0395074 0.0744423
   vertex -0.000303646 0.039334 0.0747779
   vertex -0.000407752 0.0401719 0.0749161
  endloop
 endfacet
 facet normal -0.622428 -0.202002 0.756161
  outer loop
   vertex -0.000815906 0.040298 0.0746138
   vertex -0.000767661 0.0395074 0.0744423
   vertex -0.000407752 0.0401719 0.0749161
  endloop
 endfacet
 facet normal -0.622421 -0.202009 0.756164
  outer loop
   vertex 0.00264848 0.0366707 0.0764965
   vertex 0.00308916 0.0361938 0.0767318
   vertex 0.00313896 0.036815 0.0769387
  endloop
 endfacet
 facet normal -0.622421 -0.202008 0.756164
  outer loop
   vertex 0.00277817 0.0371051 0.0767193
   vertex 0.00264848 0.0366707 0.0764965
   vertex 0.00313896 0.036815 0.0769387
  endloop
 endfacet
endsolid
