solid ascii
 facet normal 0.378537 -0.450833 0.808368
  outer loop
   vertex 0.0191336 0.0374384 0.0772346
   vertex 0.0188031 0.0368638 0.0770689
   vertex 0.019287 0.0368403 0.0768292
  endloop
 endfacet
 facet normal 0.378551 -0.450831 0.808363
  outer loop
   vertex 0.0205942 0.0389888 0.0774153
   vertex 0.0201699 0.0382872 0.0772227
   vertex 0.0207785 0.0384665 0.0770377
  endloop
 endfacet
 facet normal 0.378546 -0.45084 0.80836
  outer loop
   vertex 0.0185758 0.037366 0.0774555
   vertex 0.0191336 0.0374384 0.0772346
   vertex 0.0188342 0.0379431 0.0776563
  endloop
 endfacet
 facet normal 0.378548 -0.450834 0.808362
  outer loop
   vertex 0.0201676 0.0394529 0.0778739
   vertex 0.0198245 0.0387896 0.0776647
   vertex 0.0205942 0.0389888 0.0774153
  endloop
 endfacet
 facet normal 0.378554 -0.450841 0.808356
  outer loop
   vertex 0.019287 0.0368403 0.0768292
   vertex 0.0198001 0.0369325 0.0766404
   vertex 0.019817 0.0375144 0.076957
  endloop
 endfacet
 facet normal 0.37854 -0.450832 0.808368
  outer loop
   vertex 0.0191336 0.0374384 0.0772346
   vertex 0.019287 0.0368403 0.0768292
   vertex 0.019817 0.0375144 0.076957
  endloop
 endfacet
 facet normal 0.378548 -0.450829 0.808365
  outer loop
   vertex 0.0201699 0.0382872 0.0772227
   vertex 0.0205942 0.0389888 0.0774153
   vertex 0.0198245 0.0387896 0.0776647
  endloop
 endfacet
 facet normal 0.37854 -0.450838 0.808365
  outer loop
   vertex 0.019817 0.0375144 0.076957
   vertex 0.0194822 0.0380987 0.0774397
   vertex 0.0191336 0.0374384 0.0772346
  endloop
 endfacet
 facet normal 0.378542 -0.450843 0.808361
  outer loop
   vertex 0.0198001 0.0369325 0.0766404
   vertex 0.0203049 0.0371456 0.0765228
   vertex 0.019817 0.0375144 0.076957
  endloop
 endfacet
 facet normal 0.378546 -0.45084 0.80836
  outer loop
   vertex 0.0188342 0.0379431 0.0776563
   vertex 0.0191336 0.0374384 0.0772346
   vertex 0.0194822 0.0380987 0.0774397
  endloop
 endfacet
 facet normal 0.378543 -0.450836 0.808364
  outer loop
   vertex 0.0194822 0.0380987 0.0774397
   vertex 0.019817 0.0375144 0.076957
   vertex 0.0201699 0.0382872 0.0772227
  endloop
 endfacet
 facet normal 0.378543 -0.450833 0.808366
  outer loop
   vertex 0.0198245 0.0387896 0.0776647
   vertex 0.0194822 0.0380987 0.0774397
   vertex 0.0201699 0.0382872 0.0772227
  endloop
 endfacet
 facet normal 0.378546 -0.450834 0.808364
  outer loop
   vertex 0.0192097 0.0397892 0.07851
   vertex 0.0187429 0.0392006 0.0784004
   vertex 0.0194732 0.039286 0.078106
  endloop
 endfacet
 facet normal 0.378541 -0.450833 0.808367
  outer loop
   vertex 0.0191264 0.0386182 0.077896
   vertex 0.0194822 0.0380987 0.0774397
   vertex 0.0198245 0.0387896 0.0776647
  endloop
 endfacet
 facet normal 0.378547 -0.450834 0.808363
  outer loop
   vertex 0.0215214 0.0399047 0.0774919
   vertex 0.0212398 0.0393248 0.0773004
   vertex 0.0216529 0.039359 0.077126
  endloop
 endfacet
 facet normal 0.378549 -0.450836 0.808361
  outer loop
   vertex 0.0192097 0.0397892 0.07851
   vertex 0.0187068 0.0398824 0.0787976
   vertex 0.0187429 0.0392006 0.0784004
  endloop
 endfacet
 facet normal 0.378545 -0.450833 0.808365
  outer loop
   vertex 0.0201676 0.0394529 0.0778739
   vertex 0.0194732 0.039286 0.078106
   vertex 0.0198245 0.0387896 0.0776647
  endloop
 endfacet
 facet normal 0.378548 -0.450837 0.808361
  outer loop
   vertex 0.019817 0.0375144 0.076957
   vertex 0.020561 0.037846 0.0767935
   vertex 0.0201699 0.0382872 0.0772227
  endloop
 endfacet
 facet normal 0.378552 -0.450834 0.808361
  outer loop
   vertex 0.0201699 0.0382872 0.0772227
   vertex 0.020561 0.037846 0.0767935
   vertex 0.0207785 0.0384665 0.0770377
  endloop
 endfacet
 facet normal 0.378546 -0.45083 0.808366
  outer loop
   vertex 0.0188342 0.0379431 0.0776563
   vertex 0.0194822 0.0380987 0.0774397
   vertex 0.0191264 0.0386182 0.077896
  endloop
 endfacet
 facet normal 0.37855 -0.45083 0.808364
  outer loop
   vertex 0.0211985 0.0385545 0.0768901
   vertex 0.0214263 0.0383361 0.0766617
   vertex 0.0216157 0.0388608 0.0768655
  endloop
 endfacet
 facet normal 0.378545 -0.450832 0.808365
  outer loop
   vertex 0.0194732 0.039286 0.078106
   vertex 0.0201676 0.0394529 0.0778739
   vertex 0.0198219 0.0398872 0.078278
  endloop
 endfacet
 facet normal 0.378547 -0.450833 0.808364
  outer loop
   vertex 0.0192097 0.0397892 0.07851
   vertex 0.0194732 0.039286 0.078106
   vertex 0.0198219 0.0398872 0.078278
  endloop
 endfacet
 facet normal 0.378536 -0.450834 0.808368
  outer loop
   vertex 0.0203049 0.0371456 0.0765228
   vertex 0.0207316 0.0374395 0.0764869
   vertex 0.020561 0.037846 0.0767935
  endloop
 endfacet
 facet normal 0.378548 -0.450836 0.808362
  outer loop
   vertex 0.019817 0.0375144 0.076957
   vertex 0.0203049 0.0371456 0.0765228
   vertex 0.020561 0.037846 0.0767935
  endloop
 endfacet
 facet normal 0.378541 -0.450836 0.808365
  outer loop
   vertex 0.0191264 0.0386182 0.077896
   vertex 0.0198245 0.0387896 0.0776647
   vertex 0.0194732 0.039286 0.078106
  endloop
 endfacet
 facet normal 0.378546 -0.450837 0.808362
  outer loop
   vertex 0.0187429 0.0392006 0.0784004
   vertex 0.0191264 0.0386182 0.077896
   vertex 0.0194732 0.039286 0.078106
  endloop
 endfacet
 facet normal 0.378535 -0.450831 0.80837
  outer loop
   vertex 0.0210155 0.0382116 0.0767846
   vertex 0.0207785 0.0384665 0.0770377
   vertex 0.020561 0.037846 0.0767935
  endloop
 endfacet
 facet normal 0.378548 -0.450828 0.808366
  outer loop
   vertex 0.0207316 0.0374395 0.0764869
   vertex 0.0211307 0.0378442 0.0765257
   vertex 0.020561 0.037846 0.0767935
  endloop
 endfacet
 facet normal 0.378547 -0.450836 0.808362
  outer loop
   vertex 0.0216507 0.039112 0.0769893
   vertex 0.0216529 0.039359 0.077126
   vertex 0.0212398 0.0393248 0.0773004
  endloop
 endfacet
 facet normal 0.378541 -0.450835 0.808365
  outer loop
   vertex 0.0198219 0.0398872 0.078278
   vertex 0.0201676 0.0394529 0.0778739
   vertex 0.0205016 0.0400779 0.0780661
  endloop
 endfacet
 facet normal 0.378551 -0.450833 0.808362
  outer loop
   vertex 0.0197668 0.0408301 0.0788297
   vertex 0.0201196 0.0404283 0.0784404
   vertex 0.0203098 0.0408224 0.0785711
  endloop
 endfacet
 facet normal 0.378549 -0.450835 0.808362
  outer loop
   vertex 0.0187429 0.0392006 0.0784004
   vertex 0.0184126 0.0384052 0.0781115
   vertex 0.0191264 0.0386182 0.077896
  endloop
 endfacet
 facet normal 0.378548 -0.45083 0.808365
  outer loop
   vertex 0.0191264 0.0386182 0.077896
   vertex 0.0184126 0.0384052 0.0781115
   vertex 0.0188342 0.0379431 0.0776563
  endloop
 endfacet
 facet normal 0.378549 -0.450842 0.808358
  outer loop
   vertex 0.0208292 0.0406542 0.0782341
   vertex 0.0205016 0.0400779 0.0780661
   vertex 0.0212366 0.0403571 0.0778776
  endloop
 endfacet
 facet normal 0.378548 -0.450837 0.808361
  outer loop
   vertex 0.0212366 0.0403571 0.0778776
   vertex 0.0205016 0.0400779 0.0780661
   vertex 0.0208722 0.0396856 0.0776738
  endloop
 endfacet
 facet normal 0.378548 -0.450837 0.808361
  outer loop
   vertex 0.0201676 0.0394529 0.0778739
   vertex 0.0208722 0.0396856 0.0776738
   vertex 0.0205016 0.0400779 0.0780661
  endloop
 endfacet
 facet normal 0.378538 -0.450834 0.808367
  outer loop
   vertex 0.017759 0.0375193 0.0779235
   vertex 0.0179746 0.0379936 0.078087
   vertex 0.0175762 0.0378967 0.0782195
  endloop
 endfacet
 facet normal 0.378539 -0.450834 0.808367
  outer loop
   vertex 0.0205942 0.0389888 0.0774153
   vertex 0.0212398 0.0393248 0.0773004
   vertex 0.0208722 0.0396856 0.0776738
  endloop
 endfacet
 facet normal 0.378547 -0.450835 0.808362
  outer loop
   vertex 0.0201676 0.0394529 0.0778739
   vertex 0.0205942 0.0389888 0.0774153
   vertex 0.0208722 0.0396856 0.0776738
  endloop
 endfacet
 facet normal 0.378541 -0.450835 0.808366
  outer loop
   vertex 0.0215214 0.0399047 0.0774919
   vertex 0.0212366 0.0403571 0.0778776
   vertex 0.0208722 0.0396856 0.0776738
  endloop
 endfacet
 facet normal 0.378541 -0.450832 0.808367
  outer loop
   vertex 0.0212398 0.0393248 0.0773004
   vertex 0.0215214 0.0399047 0.0774919
   vertex 0.0208722 0.0396856 0.0776738
  endloop
 endfacet
 facet normal 0.378545 -0.450834 0.808364
  outer loop
   vertex 0.0184126 0.0384052 0.0781115
   vertex 0.0187429 0.0392006 0.0784004
   vertex 0.0180818 0.0389521 0.0785713
  endloop
 endfacet
 facet normal 0.378542 -0.450839 0.808363
  outer loop
   vertex 0.0201196 0.0404283 0.0784404
   vertex 0.0198219 0.0398872 0.078278
   vertex 0.0205016 0.0400779 0.0780661
  endloop
 endfacet
 facet normal 0.378555 -0.450821 0.808366
  outer loop
   vertex 0.0187068 0.0398824 0.0787976
   vertex 0.0192097 0.0397892 0.07851
   vertex 0.0190718 0.0402239 0.078817
  endloop
 endfacet
 facet normal 0.378543 -0.450833 0.808365
  outer loop
   vertex 0.0177005 0.0393163 0.078953
   vertex 0.0175457 0.0388666 0.0787748
   vertex 0.0180818 0.0389521 0.0785713
  endloop
 endfacet
 facet normal 0.378539 -0.450838 0.808365
  outer loop
   vertex 0.0184126 0.0384052 0.0781115
   vertex 0.0180818 0.0389521 0.0785713
   vertex 0.0178493 0.038412 0.078379
  endloop
 endfacet
 facet normal 0.378548 -0.450836 0.808361
  outer loop
   vertex 0.0175762 0.0378967 0.0782195
   vertex 0.0178493 0.038412 0.078379
   vertex 0.0174957 0.0383668 0.0785194
  endloop
 endfacet
 facet normal 0.378546 -0.450828 0.808367
  outer loop
   vertex 0.0183809 0.0369937 0.0773391
   vertex 0.0185758 0.037366 0.0774555
   vertex 0.0180285 0.0372179 0.0776291
  endloop
 endfacet
 facet normal 0.378555 -0.450839 0.808357
  outer loop
   vertex 0.0214263 0.0383361 0.0766617
   vertex 0.0210155 0.0382116 0.0767846
   vertex 0.0211307 0.0378442 0.0765257
  endloop
 endfacet
 facet normal 0.378545 -0.450844 0.808359
  outer loop
   vertex 0.0211307 0.0378442 0.0765257
   vertex 0.0210155 0.0382116 0.0767846
   vertex 0.020561 0.037846 0.0767935
  endloop
 endfacet
 facet normal 0.378544 -0.450832 0.808366
  outer loop
   vertex 0.0207785 0.0384665 0.0770377
   vertex 0.0211985 0.0385545 0.0768901
   vertex 0.0211759 0.0388865 0.0770859
  endloop
 endfacet
 facet normal 0.378547 -0.450833 0.808364
  outer loop
   vertex 0.0198219 0.0398872 0.078278
   vertex 0.019529 0.040307 0.0786493
   vertex 0.0192097 0.0397892 0.07851
  endloop
 endfacet
 facet normal 0.378538 -0.450829 0.80837
  outer loop
   vertex 0.0192097 0.0397892 0.07851
   vertex 0.019529 0.040307 0.0786493
   vertex 0.0190718 0.0402239 0.078817
  endloop
 endfacet
 facet normal 0.378543 -0.450833 0.808365
  outer loop
   vertex 0.0180818 0.0389521 0.0785713
   vertex 0.0182425 0.0395326 0.0788199
   vertex 0.0177005 0.0393163 0.078953
  endloop
 endfacet
 facet normal 0.378546 -0.450842 0.808359
  outer loop
   vertex 0.0177005 0.0393163 0.078953
   vertex 0.0182425 0.0395326 0.0788199
   vertex 0.0179508 0.0397415 0.079073
  endloop
 endfacet
 facet normal 0.378542 -0.450843 0.80836
  outer loop
   vertex 0.0212398 0.0393248 0.0773004
   vertex 0.0211759 0.0388865 0.0770859
   vertex 0.0216507 0.039112 0.0769893
  endloop
 endfacet
 facet normal 0.378548 -0.450832 0.808364
  outer loop
   vertex 0.0180285 0.0372179 0.0776291
   vertex 0.0182657 0.0377402 0.0778093
   vertex 0.017759 0.0375193 0.0779235
  endloop
 endfacet
 facet normal 0.378549 -0.450837 0.808361
  outer loop
   vertex 0.017759 0.0375193 0.0779235
   vertex 0.0182657 0.0377402 0.0778093
   vertex 0.0179746 0.0379936 0.078087
  endloop
 endfacet
 facet normal 0.378538 -0.450833 0.808368
  outer loop
   vertex 0.0178493 0.038412 0.078379
   vertex 0.0175762 0.0378967 0.0782195
   vertex 0.0179746 0.0379936 0.078087
  endloop
 endfacet
 facet normal 0.378541 -0.450832 0.808367
  outer loop
   vertex 0.0184126 0.0384052 0.0781115
   vertex 0.0178493 0.038412 0.078379
   vertex 0.0179746 0.0379936 0.078087
  endloop
 endfacet
 facet normal 0.378554 -0.450827 0.808364
  outer loop
   vertex 0.0210155 0.0382116 0.0767846
   vertex 0.0214263 0.0383361 0.0766617
   vertex 0.0211985 0.0385545 0.0768901
  endloop
 endfacet
 facet normal 0.378544 -0.450823 0.80837
  outer loop
   vertex 0.0207785 0.0384665 0.0770377
   vertex 0.0210155 0.0382116 0.0767846
   vertex 0.0211985 0.0385545 0.0768901
  endloop
 endfacet
 facet normal 0.37854 -0.450838 0.808364
  outer loop
   vertex 0.019529 0.040307 0.0786493
   vertex 0.0198219 0.0398872 0.078278
   vertex 0.0201196 0.0404283 0.0784404
  endloop
 endfacet
 facet normal 0.378546 -0.450833 0.808364
  outer loop
   vertex 0.0205942 0.0389888 0.0774153
   vertex 0.0207785 0.0384665 0.0770377
   vertex 0.0211759 0.0388865 0.0770859
  endloop
 endfacet
 facet normal 0.378542 -0.450843 0.80836
  outer loop
   vertex 0.0212398 0.0393248 0.0773004
   vertex 0.0205942 0.0389888 0.0774153
   vertex 0.0211759 0.0388865 0.0770859
  endloop
 endfacet
 facet normal 0.378538 -0.450839 0.808365
  outer loop
   vertex 0.0182657 0.0377402 0.0778093
   vertex 0.0188342 0.0379431 0.0776563
   vertex 0.0184126 0.0384052 0.0781115
  endloop
 endfacet
 facet normal 0.378547 -0.450839 0.80836
  outer loop
   vertex 0.0179746 0.0379936 0.078087
   vertex 0.0182657 0.0377402 0.0778093
   vertex 0.0184126 0.0384052 0.0781115
  endloop
 endfacet
 facet normal 0.378546 -0.450836 0.808362
  outer loop
   vertex 0.0188031 0.0368638 0.0770689
   vertex 0.0191336 0.0374384 0.0772346
   vertex 0.0185758 0.037366 0.0774555
  endloop
 endfacet
 facet normal 0.378555 -0.450831 0.808361
  outer loop
   vertex 0.0183809 0.0369937 0.0773391
   vertex 0.0188031 0.0368638 0.0770689
   vertex 0.0185758 0.037366 0.0774555
  endloop
 endfacet
 facet normal 0.37854 -0.450843 0.808361
  outer loop
   vertex 0.0197668 0.0408301 0.0788297
   vertex 0.019221 0.0407004 0.0790129
   vertex 0.019529 0.040307 0.0786493
  endloop
 endfacet
 facet normal 0.37854 -0.450843 0.808362
  outer loop
   vertex 0.0201196 0.0404283 0.0784404
   vertex 0.0197668 0.0408301 0.0788297
   vertex 0.019529 0.040307 0.0786493
  endloop
 endfacet
 facet normal 0.378544 -0.45085 0.808355
  outer loop
   vertex 0.0216157 0.0388608 0.0768655
   vertex 0.0216507 0.039112 0.0769893
   vertex 0.0211759 0.0388865 0.0770859
  endloop
 endfacet
 facet normal 0.37855 -0.45083 0.808364
  outer loop
   vertex 0.0211985 0.0385545 0.0768901
   vertex 0.0216157 0.0388608 0.0768655
   vertex 0.0211759 0.0388865 0.0770859
  endloop
 endfacet
 facet normal 0.378546 -0.450832 0.808365
  outer loop
   vertex 0.0182657 0.0377402 0.0778093
   vertex 0.0180285 0.0372179 0.0776291
   vertex 0.0185758 0.037366 0.0774555
  endloop
 endfacet
 facet normal 0.378538 -0.450838 0.808365
  outer loop
   vertex 0.0188342 0.0379431 0.0776563
   vertex 0.0182657 0.0377402 0.0778093
   vertex 0.0185758 0.037366 0.0774555
  endloop
 endfacet
 facet normal 0.37854 -0.450839 0.808364
  outer loop
   vertex 0.0182425 0.0395326 0.0788199
   vertex 0.0187068 0.0398824 0.0787976
   vertex 0.0182841 0.0401205 0.0791283
  endloop
 endfacet
 facet normal 0.378549 -0.450837 0.80836
  outer loop
   vertex 0.0179508 0.0397415 0.079073
   vertex 0.0182425 0.0395326 0.0788199
   vertex 0.0182841 0.0401205 0.0791283
  endloop
 endfacet
 facet normal 0.37854 -0.450839 0.808364
  outer loop
   vertex 0.0187429 0.0392006 0.0784004
   vertex 0.0187068 0.0398824 0.0787976
   vertex 0.0182425 0.0395326 0.0788199
  endloop
 endfacet
 facet normal 0.378544 -0.450833 0.808365
  outer loop
   vertex 0.0180818 0.0389521 0.0785713
   vertex 0.0187429 0.0392006 0.0784004
   vertex 0.0182425 0.0395326 0.0788199
  endloop
 endfacet
 facet normal 0.378541 -0.450839 0.808363
  outer loop
   vertex 0.0201196 0.0404283 0.0784404
   vertex 0.0205016 0.0400779 0.0780661
   vertex 0.0208292 0.0406542 0.0782341
  endloop
 endfacet
 facet normal 0.37854 -0.45083 0.808368
  outer loop
   vertex 0.0203098 0.0408224 0.0785711
   vertex 0.0201196 0.0404283 0.0784404
   vertex 0.0208292 0.0406542 0.0782341
  endloop
 endfacet
 facet normal 0.378548 -0.450835 0.808362
  outer loop
   vertex 0.0175457 0.0388666 0.0787748
   vertex 0.0174957 0.0383668 0.0785194
   vertex 0.0178493 0.038412 0.078379
  endloop
 endfacet
 facet normal 0.378543 -0.450839 0.808362
  outer loop
   vertex 0.0180818 0.0389521 0.0785713
   vertex 0.0175457 0.0388666 0.0787748
   vertex 0.0178493 0.038412 0.078379
  endloop
 endfacet
 facet normal 0.378538 -0.450844 0.808361
  outer loop
   vertex 0.0190718 0.0402239 0.078817
   vertex 0.019529 0.040307 0.0786493
   vertex 0.019221 0.0407004 0.0790129
  endloop
 endfacet
 facet normal 0.378532 -0.450844 0.808364
  outer loop
   vertex 0.018728 0.0404631 0.0791115
   vertex 0.0190718 0.0402239 0.078817
   vertex 0.019221 0.0407004 0.0790129
  endloop
 endfacet
 facet normal 0.378554 -0.450819 0.808368
  outer loop
   vertex 0.018728 0.0404631 0.0791115
   vertex 0.0182841 0.0401205 0.0791283
   vertex 0.0187068 0.0398824 0.0787976
  endloop
 endfacet
 facet normal 0.378553 -0.450819 0.808369
  outer loop
   vertex 0.0190718 0.0402239 0.078817
   vertex 0.018728 0.0404631 0.0791115
   vertex 0.0187068 0.0398824 0.0787976
  endloop
 endfacet
endsolid
