solid ascii
 facet normal 0.158698 -0.510074 0.845364
  outer loop
   vertex 0.0237801 0.050485 0.072241
   vertex 0.0233087 0.0508544 0.0725524
   vertex 0.0233282 0.0503482 0.0722433
  endloop
 endfacet
 facet normal 0.1587 -0.510079 0.84536
  outer loop
   vertex 0.0233282 0.0503482 0.0722433
   vertex 0.023496 0.0498673 0.0719217
   vertex 0.0237801 0.050485 0.072241
  endloop
 endfacet
 facet normal 0.158688 -0.510086 0.845358
  outer loop
   vertex 0.0233087 0.0508544 0.0725524
   vertex 0.0239286 0.0510509 0.0725546
   vertex 0.0234192 0.0513144 0.0728092
  endloop
 endfacet
 facet normal 0.158687 -0.510084 0.845359
  outer loop
   vertex 0.0239286 0.0510509 0.0725546
   vertex 0.0233087 0.0508544 0.0725524
   vertex 0.0237801 0.050485 0.072241
  endloop
 endfacet
 facet normal 0.158689 -0.510076 0.845364
  outer loop
   vertex 0.023496 0.0498673 0.0719217
   vertex 0.0241656 0.0500765 0.0719222
   vertex 0.0237801 0.050485 0.072241
  endloop
 endfacet
 facet normal 0.158681 -0.510094 0.845355
  outer loop
   vertex 0.023672 0.051786 0.0730463
   vertex 0.024297 0.0519366 0.0730199
   vertex 0.0240443 0.0521981 0.0732251
  endloop
 endfacet
 facet normal 0.15869 -0.510079 0.845362
  outer loop
   vertex 0.0241656 0.0500765 0.0719222
   vertex 0.023496 0.0498673 0.0719217
   vertex 0.0238031 0.0494625 0.0716197
  endloop
 endfacet
 facet normal 0.158678 -0.510088 0.845359
  outer loop
   vertex 0.0249067 0.0502655 0.0718971
   vertex 0.0241656 0.0500765 0.0719222
   vertex 0.0245602 0.0496623 0.0715982
  endloop
 endfacet
 facet normal 0.158691 -0.510082 0.84536
  outer loop
   vertex 0.0270176 0.0525377 0.0728719
   vertex 0.0268833 0.0519625 0.07255
   vertex 0.0274171 0.0522239 0.0726075
  endloop
 endfacet
 facet normal 0.158685 -0.51009 0.845356
  outer loop
   vertex 0.0253496 0.0497492 0.0715024
   vertex 0.0249067 0.0502655 0.0718971
   vertex 0.0245602 0.0496623 0.0715982
  endloop
 endfacet
 facet normal 0.158689 -0.510077 0.845363
  outer loop
   vertex 0.0238031 0.0494625 0.0716197
   vertex 0.0242226 0.0491462 0.0713501
   vertex 0.0245602 0.0496623 0.0715982
  endloop
 endfacet
 facet normal 0.15869 -0.510079 0.845362
  outer loop
   vertex 0.0241656 0.0500765 0.0719222
   vertex 0.0238031 0.0494625 0.0716197
   vertex 0.0245602 0.0496623 0.0715982
  endloop
 endfacet
 facet normal 0.158691 -0.510086 0.845358
  outer loop
   vertex 0.0256622 0.0504032 0.0718384
   vertex 0.0249067 0.0502655 0.0718971
   vertex 0.0253496 0.0497492 0.0715024
  endloop
 endfacet
 facet normal 0.158695 -0.510083 0.845358
  outer loop
   vertex 0.024297 0.0519366 0.0730199
   vertex 0.0244643 0.0524975 0.0733269
   vertex 0.0240443 0.0521981 0.0732251
  endloop
 endfacet
 facet normal 0.158688 -0.510087 0.845357
  outer loop
   vertex 0.0258522 0.0513836 0.0723943
   vertex 0.0252727 0.0509791 0.072259
   vertex 0.0260425 0.0509458 0.0720944
  endloop
 endfacet
 facet normal 0.158685 -0.510082 0.845361
  outer loop
   vertex 0.024297 0.0519366 0.0730199
   vertex 0.0249879 0.0522023 0.0730505
   vertex 0.0244643 0.0524975 0.0733269
  endloop
 endfacet
 facet normal 0.15869 -0.510079 0.845362
  outer loop
   vertex 0.0252727 0.0509791 0.072259
   vertex 0.0249067 0.0502655 0.0718971
   vertex 0.0256622 0.0504032 0.0718384
  endloop
 endfacet
 facet normal 0.15869 -0.51008 0.845362
  outer loop
   vertex 0.0260425 0.0509458 0.0720944
   vertex 0.0252727 0.0509791 0.072259
   vertex 0.0256622 0.0504032 0.0718384
  endloop
 endfacet
 facet normal 0.158684 -0.510081 0.845362
  outer loop
   vertex 0.024297 0.0519366 0.0730199
   vertex 0.0246203 0.0514388 0.0726588
   vertex 0.0249879 0.0522023 0.0730505
  endloop
 endfacet
 facet normal 0.158689 -0.510079 0.845362
  outer loop
   vertex 0.0263484 0.0504935 0.0717641
   vertex 0.0260425 0.0509458 0.0720944
   vertex 0.0256622 0.0504032 0.0718384
  endloop
 endfacet
 facet normal 0.158685 -0.510084 0.84536
  outer loop
   vertex 0.02611 0.0518608 0.0726338
   vertex 0.0264553 0.0514287 0.0723083
   vertex 0.0268833 0.0519625 0.07255
  endloop
 endfacet
 facet normal 0.158685 -0.510085 0.84536
  outer loop
   vertex 0.0264553 0.0514287 0.0723083
   vertex 0.02611 0.0518608 0.0726338
   vertex 0.0258522 0.0513836 0.0723943
  endloop
 endfacet
 facet normal 0.158685 -0.510089 0.845357
  outer loop
   vertex 0.0260425 0.0509458 0.0720944
   vertex 0.0264553 0.0514287 0.0723083
   vertex 0.0258522 0.0513836 0.0723943
  endloop
 endfacet
 facet normal 0.158683 -0.510084 0.84536
  outer loop
   vertex 0.0244643 0.0524975 0.0733269
   vertex 0.0249879 0.0522023 0.0730505
   vertex 0.0249471 0.0527141 0.073367
  endloop
 endfacet
 facet normal 0.158682 -0.510084 0.845361
  outer loop
   vertex 0.02611 0.0518608 0.0726338
   vertex 0.0254238 0.051695 0.0726626
   vertex 0.0258522 0.0513836 0.0723943
  endloop
 endfacet
 facet normal 0.15869 -0.51008 0.845362
  outer loop
   vertex 0.0257412 0.0488804 0.0709047
   vertex 0.0263069 0.0490212 0.0708835
   vertex 0.0259135 0.0494183 0.0711969
  endloop
 endfacet
 facet normal 0.158685 -0.510088 0.845357
  outer loop
   vertex 0.0249174 0.0492667 0.0712924
   vertex 0.0253496 0.0497492 0.0715024
   vertex 0.0245602 0.0496623 0.0715982
  endloop
 endfacet
 facet normal 0.158706 -0.510079 0.845359
  outer loop
   vertex 0.0260091 0.052855 0.0732527
   vertex 0.02545 0.0528322 0.0733439
   vertex 0.0257242 0.0523044 0.0729739
  endloop
 endfacet
 facet normal 0.158692 -0.510083 0.845359
  outer loop
   vertex 0.0246203 0.0514388 0.0726588
   vertex 0.0254238 0.051695 0.0726626
   vertex 0.0249879 0.0522023 0.0730505
  endloop
 endfacet
 facet normal 0.158691 -0.510081 0.845361
  outer loop
   vertex 0.0252227 0.0488599 0.0709896
   vertex 0.0249174 0.0492667 0.0712924
   vertex 0.0247233 0.0489412 0.0711325
  endloop
 endfacet
 facet normal 0.158682 -0.510084 0.845361
  outer loop
   vertex 0.0260425 0.0509458 0.0720944
   vertex 0.0263484 0.0504935 0.0717641
   vertex 0.0267287 0.0509657 0.0719776
  endloop
 endfacet
 facet normal 0.158682 -0.510087 0.845359
  outer loop
   vertex 0.0264553 0.0514287 0.0723083
   vertex 0.0260425 0.0509458 0.0720944
   vertex 0.0267287 0.0509657 0.0719776
  endloop
 endfacet
 facet normal 0.158696 -0.510083 0.845358
  outer loop
   vertex 0.0242226 0.0491462 0.0713501
   vertex 0.0247233 0.0489412 0.0711325
   vertex 0.0249174 0.0492667 0.0712924
  endloop
 endfacet
 facet normal 0.158696 -0.51008 0.84536
  outer loop
   vertex 0.0245602 0.0496623 0.0715982
   vertex 0.0242226 0.0491462 0.0713501
   vertex 0.0249174 0.0492667 0.0712924
  endloop
 endfacet
 facet normal 0.158685 -0.510085 0.845359
  outer loop
   vertex 0.0263798 0.0523791 0.0728959
   vertex 0.02611 0.0518608 0.0726338
   vertex 0.0268833 0.0519625 0.07255
  endloop
 endfacet
 facet normal 0.158685 -0.510084 0.84536
  outer loop
   vertex 0.0249471 0.0527141 0.073367
   vertex 0.0249879 0.0522023 0.0730505
   vertex 0.02545 0.0528322 0.0733439
  endloop
 endfacet
 facet normal 0.158678 -0.510072 0.845369
  outer loop
   vertex 0.0260091 0.052855 0.0732527
   vertex 0.0263798 0.0523791 0.0728959
   vertex 0.0265539 0.0527503 0.0730872
  endloop
 endfacet
 facet normal 0.158682 -0.510083 0.845361
  outer loop
   vertex 0.02611 0.0518608 0.0726338
   vertex 0.0257242 0.0523044 0.0729739
   vertex 0.0254238 0.051695 0.0726626
  endloop
 endfacet
 facet normal 0.158682 -0.510086 0.845359
  outer loop
   vertex 0.0266233 0.0501371 0.0714974
   vertex 0.027 0.050511 0.0716523
   vertex 0.0263484 0.0504935 0.0717641
  endloop
 endfacet
 facet normal 0.15868 -0.51007 0.845369
  outer loop
   vertex 0.0263798 0.0523791 0.0728959
   vertex 0.0260091 0.052855 0.0732527
   vertex 0.0257242 0.0523044 0.0729739
  endloop
 endfacet
 facet normal 0.158681 -0.510083 0.845361
  outer loop
   vertex 0.02611 0.0518608 0.0726338
   vertex 0.0263798 0.0523791 0.0728959
   vertex 0.0257242 0.0523044 0.0729739
  endloop
 endfacet
 facet normal 0.15869 -0.510079 0.845362
  outer loop
   vertex 0.0268262 0.0492761 0.0709398
   vertex 0.0272307 0.0495918 0.0710544
   vertex 0.0265846 0.0496402 0.0712048
  endloop
 endfacet
 facet normal 0.158685 -0.510082 0.845361
  outer loop
   vertex 0.0263069 0.0490212 0.0708835
   vertex 0.0268262 0.0492761 0.0709398
   vertex 0.0265846 0.0496402 0.0712048
  endloop
 endfacet
 facet normal 0.158686 -0.510082 0.845361
  outer loop
   vertex 0.0259135 0.0494183 0.0711969
   vertex 0.0263069 0.0490212 0.0708835
   vertex 0.0265846 0.0496402 0.0712048
  endloop
 endfacet
 facet normal 0.158681 -0.510087 0.845359
  outer loop
   vertex 0.0264553 0.0514287 0.0723083
   vertex 0.0267287 0.0509657 0.0719776
   vertex 0.0271635 0.0514375 0.0721806
  endloop
 endfacet
 facet normal 0.158682 -0.510082 0.845362
  outer loop
   vertex 0.0268833 0.0519625 0.07255
   vertex 0.0264553 0.0514287 0.0723083
   vertex 0.0271635 0.0514375 0.0721806
  endloop
 endfacet
 facet normal 0.158687 -0.510074 0.845366
  outer loop
   vertex 0.0270176 0.0525377 0.0728719
   vertex 0.0265539 0.0527503 0.0730872
   vertex 0.0263798 0.0523791 0.0728959
  endloop
 endfacet
 facet normal 0.158689 -0.510082 0.84536
  outer loop
   vertex 0.0268833 0.0519625 0.07255
   vertex 0.0270176 0.0525377 0.0728719
   vertex 0.0263798 0.0523791 0.0728959
  endloop
 endfacet
 facet normal 0.158674 -0.510081 0.845364
  outer loop
   vertex 0.0254284 0.0492358 0.0711779
   vertex 0.0252227 0.0488599 0.0709896
   vertex 0.0257412 0.0488804 0.0709047
  endloop
 endfacet
 facet normal 0.158689 -0.510086 0.845358
  outer loop
   vertex 0.0257242 0.0523044 0.0729739
   vertex 0.02545 0.0528322 0.0733439
   vertex 0.0249879 0.0522023 0.0730505
  endloop
 endfacet
 facet normal 0.158689 -0.510085 0.845358
  outer loop
   vertex 0.0254238 0.051695 0.0726626
   vertex 0.0257242 0.0523044 0.0729739
   vertex 0.0249879 0.0522023 0.0730505
  endloop
 endfacet
 facet normal 0.158682 -0.510084 0.84536
  outer loop
   vertex 0.0267287 0.0509657 0.0719776
   vertex 0.0263484 0.0504935 0.0717641
   vertex 0.027 0.050511 0.0716523
  endloop
 endfacet
 facet normal 0.15869 -0.510079 0.845362
  outer loop
   vertex 0.0278484 0.0514416 0.0720546
   vertex 0.0276876 0.0518565 0.0723351
   vertex 0.0271635 0.0514375 0.0721806
  endloop
 endfacet
 facet normal 0.158691 -0.510082 0.84536
  outer loop
   vertex 0.0260774 0.0499755 0.0715024
   vertex 0.0265846 0.0496402 0.0712048
   vertex 0.0266233 0.0501371 0.0714974
  endloop
 endfacet
 facet normal 0.158685 -0.51009 0.845356
  outer loop
   vertex 0.0274014 0.0509595 0.0718476
   vertex 0.0271635 0.0514375 0.0721806
   vertex 0.0267287 0.0509657 0.0719776
  endloop
 endfacet
 facet normal 0.158686 -0.510082 0.845361
  outer loop
   vertex 0.027 0.050511 0.0716523
   vertex 0.0274014 0.0509595 0.0718476
   vertex 0.0267287 0.0509657 0.0719776
  endloop
 endfacet
 facet normal 0.158683 -0.510087 0.845358
  outer loop
   vertex 0.0271288 0.0500508 0.0713504
   vertex 0.027 0.050511 0.0716523
   vertex 0.0266233 0.0501371 0.0714974
  endloop
 endfacet
 facet normal 0.158682 -0.510094 0.845354
  outer loop
   vertex 0.0234192 0.0513144 0.0728092
   vertex 0.0239286 0.0510509 0.0725546
   vertex 0.0239885 0.0515043 0.0728169
  endloop
 endfacet
 facet normal 0.158677 -0.510084 0.845361
  outer loop
   vertex 0.0249067 0.0502655 0.0718971
   vertex 0.0244458 0.0507155 0.0722551
   vertex 0.0241656 0.0500765 0.0719222
  endloop
 endfacet
 facet normal 0.158679 -0.510084 0.845361
  outer loop
   vertex 0.0241656 0.0500765 0.0719222
   vertex 0.0244458 0.0507155 0.0722551
   vertex 0.0237801 0.050485 0.072241
  endloop
 endfacet
 facet normal 0.158685 -0.510084 0.84536
  outer loop
   vertex 0.0253496 0.0497492 0.0715024
   vertex 0.0260774 0.0499755 0.0715024
   vertex 0.0256622 0.0504032 0.0718384
  endloop
 endfacet
 facet normal 0.158679 -0.510078 0.845365
  outer loop
   vertex 0.0257412 0.0488804 0.0709047
   vertex 0.0259135 0.0494183 0.0711969
   vertex 0.0254284 0.0492358 0.0711779
  endloop
 endfacet
 facet normal 0.158683 -0.510088 0.845358
  outer loop
   vertex 0.0253496 0.0497492 0.0715024
   vertex 0.0254284 0.0492358 0.0711779
   vertex 0.0259135 0.0494183 0.0711969
  endloop
 endfacet
 facet normal 0.158685 -0.51008 0.845362
  outer loop
   vertex 0.024297 0.0519366 0.0730199
   vertex 0.0239885 0.0515043 0.0728169
   vertex 0.0246203 0.0514388 0.0726588
  endloop
 endfacet
 facet normal 0.158682 -0.510094 0.845354
  outer loop
   vertex 0.0246203 0.0514388 0.0726588
   vertex 0.0239885 0.0515043 0.0728169
   vertex 0.0239286 0.0510509 0.0725546
  endloop
 endfacet
 facet normal 0.158678 -0.510089 0.845358
  outer loop
   vertex 0.0275515 0.0499725 0.0712239
   vertex 0.0271288 0.0500508 0.0713504
   vertex 0.0272307 0.0495918 0.0710544
  endloop
 endfacet
 facet normal 0.158685 -0.510078 0.845364
  outer loop
   vertex 0.0244458 0.0507155 0.0722551
   vertex 0.0249067 0.0502655 0.0718971
   vertex 0.0252727 0.0509791 0.072259
  endloop
 endfacet
 facet normal 0.158688 -0.510087 0.845358
  outer loop
   vertex 0.0246203 0.0514388 0.0726588
   vertex 0.0244458 0.0507155 0.0722551
   vertex 0.0252727 0.0509791 0.072259
  endloop
 endfacet
 facet normal 0.158676 -0.510085 0.845361
  outer loop
   vertex 0.0244458 0.0507155 0.0722551
   vertex 0.0246203 0.0514388 0.0726588
   vertex 0.0239286 0.0510509 0.0725546
  endloop
 endfacet
 facet normal 0.158678 -0.510083 0.845362
  outer loop
   vertex 0.0237801 0.050485 0.072241
   vertex 0.0244458 0.0507155 0.0722551
   vertex 0.0239286 0.0510509 0.0725546
  endloop
 endfacet
 facet normal 0.158685 -0.510085 0.845359
  outer loop
   vertex 0.0260774 0.0499755 0.0715024
   vertex 0.0253496 0.0497492 0.0715024
   vertex 0.0259135 0.0494183 0.0711969
  endloop
 endfacet
 facet normal 0.158688 -0.510086 0.845358
  outer loop
   vertex 0.0265846 0.0496402 0.0712048
   vertex 0.0260774 0.0499755 0.0715024
   vertex 0.0259135 0.0494183 0.0711969
  endloop
 endfacet
 facet normal 0.158689 -0.510088 0.845357
  outer loop
   vertex 0.0278484 0.0514416 0.0720546
   vertex 0.0271635 0.0514375 0.0721806
   vertex 0.0274014 0.0509595 0.0718476
  endloop
 endfacet
 facet normal 0.158679 -0.510081 0.845363
  outer loop
   vertex 0.027891 0.0509471 0.0717482
   vertex 0.0278484 0.0514416 0.0720546
   vertex 0.0274014 0.0509595 0.0718476
  endloop
 endfacet
 facet normal 0.158689 -0.510085 0.845358
  outer loop
   vertex 0.0277903 0.0504469 0.0714653
   vertex 0.027 0.050511 0.0716523
   vertex 0.0271288 0.0500508 0.0713504
  endloop
 endfacet
 facet normal 0.158683 -0.510076 0.845365
  outer loop
   vertex 0.0275515 0.0499725 0.0712239
   vertex 0.0277903 0.0504469 0.0714653
   vertex 0.0271288 0.0500508 0.0713504
  endloop
 endfacet
 facet normal 0.158684 -0.510085 0.845359
  outer loop
   vertex 0.0249174 0.0492667 0.0712924
   vertex 0.0252227 0.0488599 0.0709896
   vertex 0.0254284 0.0492358 0.0711779
  endloop
 endfacet
 facet normal 0.158684 -0.510088 0.845358
  outer loop
   vertex 0.0253496 0.0497492 0.0715024
   vertex 0.0249174 0.0492667 0.0712924
   vertex 0.0254284 0.0492358 0.0711779
  endloop
 endfacet
 facet normal 0.158689 -0.510087 0.845358
  outer loop
   vertex 0.0265846 0.0496402 0.0712048
   vertex 0.0272307 0.0495918 0.0710544
   vertex 0.0271288 0.0500508 0.0713504
  endloop
 endfacet
 facet normal 0.158685 -0.510082 0.845361
  outer loop
   vertex 0.0266233 0.0501371 0.0714974
   vertex 0.0265846 0.0496402 0.0712048
   vertex 0.0271288 0.0500508 0.0713504
  endloop
 endfacet
 facet normal 0.158677 -0.510092 0.845357
  outer loop
   vertex 0.0277903 0.0504469 0.0714653
   vertex 0.027891 0.0509471 0.0717482
   vertex 0.0274014 0.0509595 0.0718476
  endloop
 endfacet
 facet normal 0.15869 -0.510084 0.845359
  outer loop
   vertex 0.027 0.050511 0.0716523
   vertex 0.0277903 0.0504469 0.0714653
   vertex 0.0274014 0.0509595 0.0718476
  endloop
 endfacet
 facet normal 0.158678 -0.510076 0.845366
  outer loop
   vertex 0.0239885 0.0515043 0.0728169
   vertex 0.024297 0.0519366 0.0730199
   vertex 0.023672 0.051786 0.0730463
  endloop
 endfacet
 facet normal 0.158676 -0.510078 0.845365
  outer loop
   vertex 0.0234192 0.0513144 0.0728092
   vertex 0.0239885 0.0515043 0.0728169
   vertex 0.023672 0.051786 0.0730463
  endloop
 endfacet
 facet normal 0.158689 -0.510081 0.845361
  outer loop
   vertex 0.0263484 0.0504935 0.0717641
   vertex 0.0256622 0.0504032 0.0718384
   vertex 0.0260774 0.0499755 0.0715024
  endloop
 endfacet
 facet normal 0.15869 -0.510081 0.845361
  outer loop
   vertex 0.0266233 0.0501371 0.0714974
   vertex 0.0263484 0.0504935 0.0717641
   vertex 0.0260774 0.0499755 0.0715024
  endloop
 endfacet
 facet normal 0.158684 -0.510082 0.845362
  outer loop
   vertex 0.0252727 0.0509791 0.072259
   vertex 0.0258522 0.0513836 0.0723943
   vertex 0.0254238 0.051695 0.0726626
  endloop
 endfacet
 facet normal 0.158692 -0.510082 0.84536
  outer loop
   vertex 0.0246203 0.0514388 0.0726588
   vertex 0.0252727 0.0509791 0.072259
   vertex 0.0254238 0.051695 0.0726626
  endloop
 endfacet
 facet normal 0.15869 -0.510078 0.845362
  outer loop
   vertex 0.0268833 0.0519625 0.07255
   vertex 0.0271635 0.0514375 0.0721806
   vertex 0.0276876 0.0518565 0.0723351
  endloop
 endfacet
 facet normal 0.158689 -0.51008 0.845361
  outer loop
   vertex 0.0274171 0.0522239 0.0726075
   vertex 0.0268833 0.0519625 0.07255
   vertex 0.0276876 0.0518565 0.0723351
  endloop
 endfacet
endsolid
